<?xml version="1.0" encoding="utf-8"?>
<!-- Generator: Adobe Illustrator 16.0.0, SVG Export Plug-In . SVG Version: 6.00 Build 0)  -->
<!DOCTYPE svg PUBLIC "-//W3C//DTD SVG 1.1//EN" "http://www.w3.org/Graphics/SVG/1.1/DTD/svg11.dtd">
<svg version="1.1" id="Layer_1" xmlns="http://www.w3.org/2000/svg" xmlns:xlink="http://www.w3.org/1999/xlink" x="0px" y="0px"
	 width="113.606px" height="113.6px" viewBox="0 0 113.606 113.6" enable-background="new 0 0 113.606 113.6" xml:space="preserve">
<g>
	<g>
		<g>
			<path fill="#C6801B" d="M54.705,10.867L96.147,26.87v30.825c0,0-0.54,17.013-11.331,28.796
				c-10.792,11.782-28.009,17.553-28.009,17.553l-0.668-0.18c0,0-17.216-5.771-28.007-17.554
				C17.341,74.527,16.801,57.515,16.801,57.515V25.271L54.705,10.867L54.705,10.867z"/>
		</g>
	</g>
	<g>
		<g>
			<linearGradient id="SVGID_1_" gradientUnits="userSpaceOnUse" x1="61.7222" y1="107.0352" x2="61.7222" y2="13.3125">
				<stop  offset="0" style="stop-color:#C6801B"/>
				<stop  offset="0.0287" style="stop-color:#CA8620"/>
				<stop  offset="0.1385" style="stop-color:#D69730"/>
				<stop  offset="0.2753" style="stop-color:#DEA23B"/>
				<stop  offset="0.4672" style="stop-color:#E3A941"/>
				<stop  offset="1" style="stop-color:#E4AB43"/>
			</linearGradient>
			<path fill="url(#SVGID_1_)" d="M62.056,13.494l39.34,14.949v32.244c0,0-0.54,17.013-11.33,28.796
				c-10.793,11.783-28.01,17.553-28.01,17.553l-0.668-0.18c0,0-17.215-5.771-28.007-17.554
				C22.589,77.519,22.049,60.506,22.049,60.506V28.262l39.339-14.949L62.056,13.494z"/>
		</g>
	</g>
	<linearGradient id="SVGID_2_" gradientUnits="userSpaceOnUse" x1="46.8999" y1="41.1519" x2="77.0078" y2="41.1519">
		<stop  offset="0" style="stop-color:#B1B1B7"/>
		<stop  offset="0.3043" style="stop-color:#DEDDE6"/>
	</linearGradient>
	<path fill="url(#SVGID_2_)" d="M46.999,52.828c0,0-1.062-14.282,3.763-18.721c4.825-4.439,9.383-4.632,11.192-4.632
		c1.809,0.001,7.817,0,11.483,4.921c3.136,4.208,3.57,5.309,3.57,18.432h-4.921c0,0,0.829-11.457-2.219-14.958
		c-2.38-2.733-4.439-3.591-8.026-3.659c-3.843-0.07-6.641,1.826-7.799,3.467c-1.158,1.64-2.605,3.379-2.123,15.15H46.999z"/>
	<linearGradient id="SVGID_3_" gradientUnits="userSpaceOnUse" x1="43.5537" y1="67.9277" x2="80" y2="67.9277">
		<stop  offset="0" style="stop-color:#39548D"/>
		<stop  offset="0.0639" style="stop-color:#376BA3"/>
		<stop  offset="0.1461" style="stop-color:#3581B8"/>
		<stop  offset="0.2432" style="stop-color:#3392C8"/>
		<stop  offset="0.3633" style="stop-color:#329DD4"/>
		<stop  offset="0.532" style="stop-color:#31A4DA"/>
		<stop  offset="1" style="stop-color:#31A6DC"/>
	</linearGradient>
	<path fill="url(#SVGID_3_)" d="M76.236,52.828C78.648,52.73,80,53.116,80,56.011c0,2.896,0,24.896,0,24.896
		s-0.29,2.123-2.992,2.123c-2.701,0-30.588,0-30.588,0s-2.766,0.289-2.83-2.123s-0.025-23.336-0.013-24.143
		c0.013-0.806-0.502-3.949,3.422-3.936C49.797,52.838,73.824,52.925,76.236,52.828z"/>
	<g>
		<ellipse fill="none" stroke="#DEDDE6" stroke-miterlimit="10" cx="61.954" cy="63.825" rx="3.546" ry="3.65"/>
		<path fill="none" stroke="#DEDDE6" stroke-miterlimit="10" d="M64.54,71.855c0,1.648-1.161,2.985-2.594,2.985l0,0
			c-1.434,0-2.594-1.337-2.594-2.985v-5.483c0-1.651,1.16-2.986,2.594-2.986l0,0c1.433,0,2.594,1.335,2.594,2.986V71.855z"/>
		<g>
			<circle fill="#39548D" cx="61.947" cy="63.713" r="3.249"/>
			<path fill="#39548D" d="M64.19,71.604c0,1.593-1.005,2.885-2.244,2.885l0,0c-1.239,0-2.244-1.292-2.244-2.885v-5.296
				c0-1.594,1.005-2.885,2.244-2.885l0,0c1.239,0,2.244,1.291,2.244,2.885V71.604z"/>
		</g>
	</g>
</g>
</svg>
