<?xml version="1.0" encoding="utf-8"?>
<!-- Generator: Adobe Illustrator 16.0.0, SVG Export Plug-In . SVG Version: 6.00 Build 0)  -->
<!DOCTYPE svg PUBLIC "-//W3C//DTD SVG 1.1//EN" "http://www.w3.org/Graphics/SVG/1.1/DTD/svg11.dtd">
<svg version="1.1" id="Layer_1" xmlns="http://www.w3.org/2000/svg" xmlns:xlink="http://www.w3.org/1999/xlink" x="0px" y="0px"
	 width="113.606px" height="113.6px" viewBox="0 0 113.606 113.6" enable-background="new 0 0 113.606 113.6" xml:space="preserve">
<g>
	<polygon fill="#B1B1B7" points="76.349,92.281 22.378,92.281 22.378,17.337 24.225,15.01 78.194,15.01 78.194,89.953 	"/>
	<rect x="24.225" y="15.01" fill="#DFDFE5" width="53.97" height="74.942"/>
	<rect x="29" y="20.393" fill="#B1B1B7" width="29.969" height="2.578"/>
	<rect x="29" y="26.998" fill="#B1B1B7" width="43.179" height="1.204"/>
	<rect x="29" y="29.659" fill="#B1B1B7" width="40.844" height="1.204"/>
	<rect x="29" y="32.54" fill="#B1B1B7" width="37.949" height="1.204"/>
	<rect x="29" y="35.138" fill="#B1B1B7" width="43.179" height="1.204"/>
	<rect x="29" y="37.604" fill="#B1B1B7" width="43.179" height="1.204"/>
	<rect x="29" y="40.182" fill="#B1B1B7" width="27.229" height="1.205"/>
	<g>
		<rect x="28.697" y="45.287" fill="#B1B1B7" width="43.179" height="1.205"/>
		<rect x="28.697" y="47.95" fill="#B1B1B7" width="40.844" height="1.204"/>
		<rect x="28.697" y="50.83" fill="#B1B1B7" width="37.948" height="1.205"/>
		<rect x="28.697" y="53.427" fill="#B1B1B7" width="43.179" height="1.205"/>
		<rect x="28.697" y="55.894" fill="#B1B1B7" width="43.179" height="1.205"/>
		<rect x="28.697" y="58.471" fill="#B1B1B7" width="27.229" height="1.205"/>
	</g>
	<g>
		<rect x="29" y="64.354" fill="#B1B1B7" width="43.179" height="1.204"/>
		<rect x="29" y="67.016" fill="#B1B1B7" width="40.844" height="1.204"/>
		<rect x="29" y="69.896" fill="#B1B1B7" width="37.949" height="1.205"/>
		<rect x="29" y="72.495" fill="#B1B1B7" width="43.179" height="1.204"/>
		<rect x="29" y="74.961" fill="#B1B1B7" width="43.179" height="1.204"/>
		<rect x="29" y="77.539" fill="#B1B1B7" width="27.229" height="1.205"/>
	</g>
	<polygon fill="#B1B1B7" points="89.383,102.99 35.412,102.99 35.412,28.048 37.259,25.72 91.229,25.72 91.229,100.662 	"/>
	<rect x="37.259" y="25.72" fill="#F0EFF8" width="53.97" height="74.942"/>
	<rect x="42.034" y="31.103" fill="#B1B1B7" width="29.968" height="2.577"/>
	<rect x="52.666" y="37.707" fill="#B1B1B7" width="32.548" height="1.205"/>
	<rect x="52.666" y="40.37" fill="#B1B1B7" width="30.787" height="1.204"/>
	<rect x="52.666" y="43.249" fill="#B1B1B7" width="28.605" height="1.204"/>
	<rect x="52.666" y="48.313" fill="#B1B1B7" width="32.548" height="1.205"/>
	<rect x="52.666" y="50.892" fill="#B1B1B7" width="20.524" height="1.204"/>
	<g>
		<rect x="52.666" y="55.997" fill="#B1B1B7" width="32.244" height="1.204"/>
		<rect x="52.666" y="58.659" fill="#B1B1B7" width="30.499" height="1.204"/>
		<rect x="52.666" y="64.137" fill="#B1B1B7" width="32.244" height="1.204"/>
		<rect x="52.666" y="66.604" fill="#B1B1B7" width="32.244" height="1.204"/>
		<rect x="52.666" y="69.181" fill="#B1B1B7" width="20.333" height="1.205"/>
	</g>
	<g>
		<rect x="52.666" y="75.064" fill="#B1B1B7" width="32.548" height="1.203"/>
		<rect x="52.666" y="77.726" fill="#B1B1B7" width="30.787" height="1.204"/>
		<rect x="52.666" y="83.204" fill="#B1B1B7" width="32.548" height="1.205"/>
		<rect x="52.666" y="85.671" fill="#B1B1B7" width="32.548" height="1.204"/>
		<rect x="52.666" y="88.249" fill="#B1B1B7" width="20.524" height="1.204"/>
	</g>
	<g>
		<g>
			<path fill="#C6801B" d="M48.963,57.672c0.115,0.143-0.228,0.359-0.371,0.473l-4.837,3.865c-0.142,0.114-0.35,0.091-0.464-0.052
				l-0.265-0.33c-0.113-0.143-0.09-0.351,0.052-0.465l4.837-3.865c0.286-0.218,0.686-0.08,0.8,0.063L48.963,57.672z"/>
			<path fill="#C6801B" d="M43.862,62.227c-0.104,0.088-0.312,0.089-0.4-0.015l-1.954-2.331c-0.088-0.104-0.073-0.26,0.03-0.347
				l0.542-0.442c0.23-0.168,0.569-0.107,0.657-0.003l1.65,1.978c0.088,0.104,0.153,0.616,0.049,0.703L43.862,62.227z"/>
		</g>
		<g>
			<path fill="#F4BB43" d="M48.993,57.71c0.115,0.143,0.092,0.351-0.052,0.465l-4.837,3.864c-0.143,0.115-0.351,0.092-0.464-0.052
				l-0.265-0.33c-0.113-0.143-0.091-0.351,0.052-0.465l4.838-3.865c0.143-0.114,0.351-0.091,0.465,0.052L48.993,57.71z"/>
			<path fill="#F4BB43" d="M44.026,62.114c-0.104,0.086-0.261,0.073-0.348-0.031l-1.821-2.173c-0.087-0.104-0.073-0.26,0.03-0.347
				l0.539-0.451c0.104-0.088,0.26-0.074,0.348,0.03l1.821,2.172c0.088,0.104,0.073,0.261-0.03,0.348L44.026,62.114z"/>
		</g>
	</g>
	<g>
		<g>
			<path fill="#C6801B" d="M48.964,39.507c0.114,0.143-0.228,0.36-0.371,0.474l-4.837,3.864c-0.143,0.115-0.351,0.092-0.465-0.052
				l-0.264-0.33c-0.114-0.143-0.091-0.351,0.052-0.465l4.837-3.865c0.285-0.218,0.686-0.08,0.8,0.064L48.964,39.507z"/>
			<path fill="#C6801B" d="M43.862,44.062c-0.104,0.088-0.312,0.088-0.399-0.015l-1.955-2.332c-0.087-0.104-0.072-0.26,0.031-0.347
				l0.541-0.442c0.23-0.167,0.57-0.107,0.657-0.002l1.65,1.978c0.089,0.104,0.153,0.616,0.05,0.703L43.862,44.062z"/>
		</g>
		<g>
			<path fill="#F4BB43" d="M48.994,39.545c0.114,0.143,0.092,0.351-0.052,0.465l-4.837,3.865c-0.143,0.114-0.351,0.091-0.465-0.052
				l-0.264-0.33c-0.114-0.143-0.091-0.351,0.052-0.465l4.837-3.865c0.143-0.114,0.352-0.091,0.465,0.052L48.994,39.545z"/>
			<path fill="#F4BB43" d="M44.027,43.949c-0.104,0.087-0.261,0.074-0.348-0.031l-1.821-2.173c-0.087-0.104-0.073-0.26,0.03-0.347
				l0.539-0.451c0.104-0.088,0.26-0.074,0.348,0.03l1.821,2.172c0.087,0.104,0.073,0.26-0.03,0.348L44.027,43.949z"/>
		</g>
	</g>
	<g>
		<g>
			<path fill="#C6801B" d="M49.676,65.384c0.114,0.143-0.229,0.36-0.372,0.474l-4.836,3.865c-0.143,0.114-0.351,0.091-0.465-0.052
				l-0.265-0.33c-0.113-0.143-0.09-0.35,0.052-0.465l4.837-3.865c0.286-0.218,0.686-0.08,0.799,0.064L49.676,65.384z"/>
			<path fill="#C6801B" d="M44.574,69.939c-0.104,0.088-0.312,0.089-0.4-0.015l-1.953-2.332c-0.089-0.104-0.074-0.26,0.03-0.347
				l0.541-0.442c0.23-0.167,0.569-0.107,0.657-0.002l1.65,1.978c0.088,0.104,0.153,0.616,0.049,0.703L44.574,69.939z"/>
		</g>
		<g>
			<path fill="#F4BB43" d="M49.706,65.422c0.114,0.143,0.091,0.351-0.053,0.465l-4.836,3.865c-0.144,0.114-0.352,0.091-0.466-0.052
				l-0.264-0.33c-0.113-0.143-0.091-0.351,0.053-0.465l4.837-3.865c0.143-0.114,0.351-0.091,0.465,0.052L49.706,65.422z"/>
			<path fill="#F4BB43" d="M44.738,69.826c-0.105,0.087-0.26,0.074-0.347-0.031l-1.821-2.173c-0.088-0.104-0.074-0.26,0.03-0.347
				l0.538-0.451c0.104-0.088,0.26-0.074,0.348,0.03l1.821,2.172c0.088,0.104,0.074,0.26-0.03,0.348L44.738,69.826z"/>
		</g>
	</g>
	<g>
		<g>
			<path fill="#C6801B" d="M50.388,83.933c0.114,0.143-0.229,0.36-0.372,0.474l-4.836,3.865c-0.143,0.114-0.351,0.091-0.465-0.052
				l-0.265-0.33c-0.113-0.143-0.09-0.35,0.052-0.465l4.838-3.864c0.285-0.218,0.685-0.08,0.799,0.063L50.388,83.933z"/>
			<path fill="#C6801B" d="M45.286,88.488c-0.104,0.088-0.312,0.089-0.399-0.015l-1.954-2.332c-0.089-0.104-0.074-0.259,0.03-0.347
				l0.541-0.441c0.23-0.168,0.57-0.107,0.657-0.003l1.65,1.978c0.088,0.105,0.153,0.616,0.049,0.703L45.286,88.488z"/>
		</g>
		<g>
			<path fill="#F4BB43" d="M50.418,83.972c0.114,0.143,0.091,0.351-0.052,0.465l-4.837,3.864c-0.144,0.115-0.351,0.092-0.466-0.052
				l-0.264-0.33c-0.113-0.143-0.09-0.351,0.053-0.465l4.837-3.865c0.143-0.114,0.351-0.091,0.465,0.052L50.418,83.972z"/>
			<path fill="#F4BB43" d="M45.45,88.375c-0.104,0.086-0.26,0.073-0.347-0.031l-1.821-2.173c-0.088-0.104-0.073-0.26,0.03-0.347
				l0.538-0.451c0.104-0.088,0.26-0.074,0.348,0.03l1.821,2.172c0.088,0.104,0.074,0.26-0.03,0.348L45.45,88.375z"/>
		</g>
	</g>
	<g>
		<path fill="#C6801B" d="M47.379,48.295l-0.281-0.204c-0.173-0.126-0.639-0.198-0.848,0.075l-3.48,4.788
			c-0.103,0.14-0.046,0.357,0.127,0.482l0.399,0.291c0.173,0.126,0.396,0.114,0.498-0.028l3.48-4.787
			c0.039-0.052,0.1-0.124,0.152-0.2C47.409,48.572,47.386,48.432,47.379,48.295z"/>
		<path fill="#C6801B" d="M42.841,48.444c-0.138,0.105-0.166,0.304-0.061,0.442l3.579,4.715c0.104,0.14,0.304,0.167,0.442,0.062
			l0.322-0.246c0.139-0.104,0.167-0.303,0.061-0.442l-3.578-4.715c-0.105-0.139-0.304-0.166-0.442-0.061L42.841,48.444z"/>
		<path fill="#F4BB43" d="M43.021,48.333c-0.139,0.105-0.167,0.304-0.061,0.443l3.578,4.715c0.104,0.139,0.304,0.166,0.442,0.061
			l0.322-0.245c0.14-0.105,0.167-0.304,0.061-0.442l-3.578-4.715c-0.106-0.139-0.304-0.167-0.442-0.061L43.021,48.333z"/>
		<path fill="#F4BB43" d="M47.349,48.273c0.141,0.102,0.172,0.301,0.069,0.441l-3.48,4.787c-0.103,0.141-0.301,0.173-0.441,0.07
			l-0.327-0.239c-0.142-0.102-0.173-0.3-0.069-0.442l3.479-4.787c0.104-0.141,0.301-0.173,0.442-0.07L47.349,48.273z"/>
	</g>
	<g>
		<path fill="#C6801B" d="M47.265,74.554l-0.281-0.204c-0.173-0.126-0.639-0.198-0.848,0.075l-3.48,4.788
			c-0.103,0.14-0.046,0.358,0.127,0.482l0.399,0.291c0.173,0.126,0.396,0.114,0.498-0.028l3.48-4.787
			c0.039-0.053,0.1-0.125,0.152-0.2C47.295,74.831,47.271,74.691,47.265,74.554z"/>
		<path fill="#C6801B" d="M42.727,74.703c-0.138,0.105-0.166,0.304-0.061,0.442l3.579,4.715c0.104,0.139,0.304,0.166,0.442,0.061
			l0.322-0.245c0.139-0.104,0.167-0.303,0.061-0.442l-3.578-4.715c-0.105-0.139-0.304-0.167-0.442-0.061L42.727,74.703z"/>
		<path fill="#F4BB43" d="M42.906,74.592c-0.139,0.105-0.166,0.304-0.06,0.443l3.577,4.715c0.105,0.139,0.304,0.166,0.443,0.06
			l0.321-0.244c0.141-0.105,0.167-0.304,0.062-0.443l-3.579-4.715c-0.105-0.139-0.304-0.167-0.442-0.061L42.906,74.592z"/>
		<path fill="#F4BB43" d="M47.234,74.532c0.141,0.102,0.172,0.3,0.069,0.441l-3.48,4.787c-0.103,0.142-0.301,0.173-0.441,0.07
			l-0.327-0.239c-0.142-0.102-0.173-0.3-0.069-0.441l3.479-4.787c0.104-0.142,0.301-0.173,0.442-0.07L47.234,74.532z"/>
	</g>
</g>
</svg>
