<?xml version="1.0" encoding="utf-8"?>
<!-- Generator: Adobe Illustrator 16.0.0, SVG Export Plug-In . SVG Version: 6.00 Build 0)  -->
<!DOCTYPE svg PUBLIC "-//W3C//DTD SVG 1.1//EN" "http://www.w3.org/Graphics/SVG/1.1/DTD/svg11.dtd">
<svg version="1.1" id="Layer_1" xmlns="http://www.w3.org/2000/svg" xmlns:xlink="http://www.w3.org/1999/xlink" x="0px" y="0px"
	 width="113.606px" height="113.6px" viewBox="0 0 113.606 113.6" enable-background="new 0 0 113.606 113.6" xml:space="preserve">
<polygon fill="#B1B1B7" points="87.164,102.593 23.195,102.593 23.195,13.767 25.385,11.007 89.354,11.007 89.354,99.833 "/>
<rect x="25.385" y="11.007" fill="#F0EFF8" width="63.969" height="88.826"/>
<rect x="31.045" y="17.387" fill="#B1B1B7" width="35.52" height="3.055"/>
<rect x="31.045" y="25.216" fill="#B1B1B7" width="51.178" height="1.428"/>
<rect x="31.045" y="28.37" fill="#B1B1B7" width="48.41" height="1.428"/>
<rect x="31.045" y="31.784" fill="#B1B1B7" width="44.979" height="1.428"/>
<rect x="31.045" y="34.863" fill="#B1B1B7" width="51.178" height="1.427"/>
<rect x="31.045" y="37.788" fill="#B1B1B7" width="51.178" height="1.427"/>
<rect x="31.045" y="40.843" fill="#B1B1B7" width="32.272" height="1.428"/>
<g>
	<rect x="30.686" y="46.894" fill="#B1B1B7" width="51.178" height="1.429"/>
	<rect x="30.686" y="50.05" fill="#B1B1B7" width="48.41" height="1.428"/>
	<rect x="30.686" y="53.463" fill="#B1B1B7" width="44.979" height="1.427"/>
	<rect x="30.686" y="56.542" fill="#B1B1B7" width="51.178" height="1.427"/>
	<rect x="30.686" y="59.466" fill="#B1B1B7" width="51.178" height="1.428"/>
	<rect x="30.686" y="62.521" fill="#B1B1B7" width="32.272" height="1.428"/>
</g>
<g>
	<rect x="30.686" y="66.946" fill="#B1B1B7" width="51.178" height="1.426"/>
	<rect x="30.686" y="70.101" fill="#B1B1B7" width="48.41" height="1.426"/>
	<rect x="30.686" y="73.515" fill="#B1B1B7" width="44.979" height="1.428"/>
	<rect x="30.686" y="76.594" fill="#B1B1B7" width="51.178" height="1.427"/>
	<rect x="30.686" y="79.519" fill="#B1B1B7" width="51.178" height="1.428"/>
	<rect x="30.686" y="82.573" fill="#B1B1B7" width="32.272" height="1.426"/>
</g>
<line fill="none" stroke="#B1B1B7" stroke-miterlimit="10" x1="30.686" y1="94.722" x2="71.625" y2="94.722"/>
<path fill="none" stroke="#395494" stroke-width="2" stroke-linecap="round" stroke-linejoin="round" stroke-miterlimit="10" d="
	M31.568,94.155c0,0,3.797,0.072,4.441-3.582c0.645-3.652,0.931-4.799,0.931-4.799s-2.577,5.945,0,7.879
	c2.578,1.934,3.365,1.002,5.014-1.504c1.646-2.508,2.792-2.723,2.792-2.723s1.719,0.717,0,1.361s-3.581,0.502-3.581,0.502
	s3.175,3.502,4.345,3.398"/>
<path fill="none" stroke="#395491" stroke-width="2" stroke-linecap="round" stroke-linejoin="round" stroke-miterlimit="10" d="
	M31.568,88.64c0,0,6.805-0.285,8.881-1.289"/>
<g>
	<g>
		<path fill="#395492" d="M51.859,89.63c0,0-1.774,1.172-2.511,1.471c-0.735,0.301-1.471,0.602-1.791,1.268
			c-0.319,0.67-1.119,2.189-1.609,2.729c-0.49,0.541,1.857-0.58,2.638-0.562c1.183,0.029,2.158-0.768,2.352-1.021
			c0.194-0.256,2.266-1.98,2.266-1.98L51.859,89.63z"/>
		<path fill="#395494" d="M53.316,91.782c0,0-1.749,1.211-2.301,1.781c-0.552,0.572-1.104,1.143-1.842,1.191
			c-0.74,0.049-2.448,0.227-3.132,0.48c-0.685,0.256,1.23-1.508,1.503-2.24c0.414-1.105,1.516-1.719,1.824-1.803
			c0.308-0.086,2.68-1.365,2.68-1.365L53.316,91.782z"/>
	</g>
	<g>
		<defs>
			<path id="SVGID_1_" d="M46.767,93.265c0.312,0.039,1.121,0.105,1.177,0.469c0.054,0.363-0.314,0.684-0.004,1.141
				s2.23-0.346,2.23-0.346l3.368-2.818l-1.739-2.254l-4.302,2.494L46.767,93.265z"/>
		</defs>
		<clipPath id="SVGID_2_">
			<use xlink:href="#SVGID_1_"  overflow="visible"/>
		</clipPath>
		<g clip-path="url(#SVGID_2_)">
			<path fill="#B1B1B7" d="M51.859,89.63c0,0-1.774,1.172-2.511,1.471c-0.735,0.301-1.471,0.602-1.791,1.268
				c-0.319,0.67-1.119,2.189-1.609,2.729c-0.49,0.541,1.857-0.58,2.638-0.562c1.183,0.029,2.158-0.768,2.352-1.021
				c0.194-0.256,2.266-1.98,2.266-1.98L51.859,89.63z"/>
			<path fill="#B1B1B7" d="M53.316,91.782c0,0-1.749,1.211-2.301,1.781c-0.552,0.572-1.104,1.143-1.842,1.191
				c-0.74,0.049-2.448,0.227-3.132,0.48c-0.685,0.256,1.23-1.508,1.503-2.24c0.414-1.105,1.516-1.719,1.824-1.803
				c0.308-0.086,2.68-1.365,2.68-1.365L53.316,91.782z"/>
		</g>
	</g>
	<polyline fill="#E5E4ED" stroke="#E5E4ED" stroke-width="0.3" stroke-linecap="round" stroke-miterlimit="10" points="
		45.978,95.179 49.261,92.958 49.853,93.036 50.016,92.446 49.416,92.358 49.261,92.958 	"/>
	<path fill="#31A3D9" d="M77.99,70.504c0,0-6.686,4.233-8.808,5.609c-2.121,1.38-7.211,4.765-7.473,5.06
		c-0.262,0.291,3.077,4.545,3.077,4.545s6.181-4.24,7.631-5.164c1.451-0.923,8.579-6.062,8.579-6.062S78.988,69.872,77.99,70.504z"
		/>
	<path fill="#395494" d="M61.873,80.995l-2.099,1.836l0.566,2.627l2.272,1.475l2.371-1.342
		C64.984,85.591,62.925,83.636,61.873,80.995z"/>
	<path fill="#31A3D9" d="M51.057,89.448l2.153,3.182l9.403-5.697c0,0-1.68-1.418-2.839-4.102L51.057,89.448z"/>
	<path fill="#395494" d="M78.138,69.651c0,0-0.651,2.63,3.193,5.16c0,0,1.27-0.514,7.236-4.896
		c5.968-4.385,11.597-8.252,13.493-9.881c1.895-1.629,4.059-3.285,3.191-4.994c-0.869-1.707-4.459-0.029-6.095,0.963
		C97.523,56.995,79.039,68.927,78.138,69.651z"/>
	<path fill="#31A3D9" d="M100.761,56.231L87.04,65.516c0,0-1.603,1.039-0.975,1.883c0.628,0.845,2.235-0.358,2.235-0.358
		l13.563-9.178L100.761,56.231z"/>
	<path fill="#31A3D9" d="M100.971,55.061c0,0-0.047,1.723,2.509,3.747l-0.767,0.67c-1.913-1.092-2.93-3.84-2.684-3.963
		C100.276,55.39,100.971,55.061,100.971,55.061z"/>
</g>
</svg>
