<?xml version="1.0" encoding="utf-8"?>
<!-- Generator: Adobe Illustrator 16.0.0, SVG Export Plug-In . SVG Version: 6.00 Build 0)  -->
<!DOCTYPE svg PUBLIC "-//W3C//DTD SVG 1.1//EN" "http://www.w3.org/Graphics/SVG/1.1/DTD/svg11.dtd">
<svg version="1.1" id="Layer_1" xmlns="http://www.w3.org/2000/svg" xmlns:xlink="http://www.w3.org/1999/xlink" x="0px" y="0px"
	 width="113.606px" height="113.6px" viewBox="0 0 113.606 113.6" enable-background="new 0 0 113.606 113.6" xml:space="preserve">
<g>
	<polygon fill="#B1B1B7" points="91.24,104.67 37.27,104.67 37.27,29.729 39.116,27.4 93.086,27.4 93.086,102.343 	"/>
	<rect x="39.116" y="27.4" fill="#DFDFE5" width="53.97" height="74.942"/>
	<g>
		<rect x="43.903" y="44.914" fill="#B1B1B7" width="44.314" height="1.205"/>
		<rect x="45.265" y="47.577" fill="#B1B1B7" width="41.917" height="1.204"/>
		<rect x="43.903" y="50.456" fill="#B1B1B7" width="44.314" height="1.204"/>
		<rect x="44.066" y="53.01" fill="#B1B1B7" width="44.314" height="1.204"/>
		<rect x="44.066" y="55.676" fill="#B1B1B7" width="44.314" height="1.204"/>
		<rect x="43.984" y="58.558" fill="#B1B1B7" width="44.314" height="1.205"/>
		<rect x="45.346" y="61.221" fill="#B1B1B7" width="41.917" height="1.204"/>
		<rect x="43.984" y="64.1" fill="#B1B1B7" width="44.314" height="1.204"/>
		<rect x="44.147" y="66.654" fill="#B1B1B7" width="44.314" height="1.204"/>
		<rect x="44.147" y="69.32" fill="#B1B1B7" width="44.314" height="1.204"/>
		<rect x="43.821" y="72.371" fill="#B1B1B7" width="44.314" height="1.205"/>
		<rect x="43.821" y="75.034" fill="#B1B1B7" width="44.56" height="1.204"/>
		<rect x="43.821" y="77.913" fill="#B1B1B7" width="44.314" height="1.204"/>
		<rect x="43.984" y="80.467" fill="#B1B1B7" width="44.314" height="1.204"/>
		<rect x="43.984" y="83.133" fill="#B1B1B7" width="44.314" height="1.204"/>
		<rect x="43.74" y="85.688" fill="#B1B1B7" width="44.314" height="1.205"/>
		<rect x="45.102" y="88.351" fill="#B1B1B7" width="41.917" height="1.204"/>
		<rect x="43.74" y="91.23" fill="#B1B1B7" width="44.314" height="1.204"/>
		<rect x="43.903" y="93.784" fill="#B1B1B7" width="44.314" height="1.204"/>
		<rect x="43.903" y="96.45" fill="#B1B1B7" width="44.314" height="1.204"/>
	</g>
	<rect x="44.147" y="33.531" fill="#B1B1B7" width="43.988" height="7.766"/>
</g>
<polygon fill="#B1B1B7" points="74.49,92.532 20.52,92.532 20.52,17.59 22.366,15.262 76.336,15.262 76.336,90.204 "/>
<rect x="22.366" y="15.262" fill="#F0EFF8" width="53.97" height="74.942"/>
<g>
	<rect x="27.153" y="32.373" fill="#B1B1B7" width="44.314" height="1.205"/>
	<rect x="28.515" y="35.036" fill="#B1B1B7" width="41.917" height="1.204"/>
	<rect x="27.153" y="37.916" fill="#B1B1B7" width="44.314" height="1.204"/>
	<rect x="27.316" y="40.469" fill="#B1B1B7" width="44.314" height="1.204"/>
	<rect x="27.316" y="43.136" fill="#B1B1B7" width="44.314" height="1.204"/>
	<rect x="27.234" y="46.017" fill="#B1B1B7" width="44.314" height="1.205"/>
	<rect x="28.596" y="48.68" fill="#B1B1B7" width="41.917" height="1.204"/>
	<rect x="27.234" y="51.56" fill="#B1B1B7" width="44.314" height="1.204"/>
	<rect x="27.397" y="54.113" fill="#B1B1B7" width="44.314" height="1.204"/>
	<rect x="27.397" y="56.78" fill="#B1B1B7" width="44.314" height="1.204"/>
	<rect x="27.071" y="59.83" fill="#B1B1B7" width="44.314" height="1.205"/>
	<rect x="27.071" y="62.493" fill="#B1B1B7" width="44.56" height="1.204"/>
	<rect x="27.071" y="65.373" fill="#B1B1B7" width="44.314" height="1.204"/>
	<rect x="27.234" y="67.926" fill="#B1B1B7" width="44.314" height="1.204"/>
	<rect x="27.234" y="70.593" fill="#B1B1B7" width="44.314" height="1.204"/>
	<rect x="26.99" y="73.147" fill="#B1B1B7" width="44.314" height="1.205"/>
	<rect x="28.352" y="75.81" fill="#B1B1B7" width="41.917" height="1.204"/>
	<rect x="26.99" y="78.689" fill="#B1B1B7" width="44.314" height="1.204"/>
	<rect x="27.153" y="81.243" fill="#B1B1B7" width="44.314" height="1.204"/>
	<rect x="27.153" y="83.91" fill="#B1B1B7" width="44.314" height="1.204"/>
</g>
<rect x="27.397" y="20.99" fill="#B1B1B7" width="43.988" height="7.766"/>
<ellipse fill="#39549F" cx="76.336" cy="24.873" rx="14.349" ry="13.509"/>
<circle fill="#31AEE4" cx="77.176" cy="24.873" r="13.509"/>
<g>
	<g>
		<path fill="#C6801B" d="M74.752,14.276h3.829v3.375h-3.829V14.276z M74.844,20.479h3.647v14.99h-3.647V20.479z"/>
	</g>
	<g>
		<path fill="#F4BB43" d="M75.771,14.276H79.6v3.375h-3.829V14.276z M75.863,20.479h3.647v14.99h-3.647V20.479z"/>
	</g>
</g>
</svg>
