<?xml version="1.0" encoding="utf-8"?>
<!-- Generator: Adobe Illustrator 16.0.0, SVG Export Plug-In . SVG Version: 6.00 Build 0)  -->
<!DOCTYPE svg PUBLIC "-//W3C//DTD SVG 1.1//EN" "http://www.w3.org/Graphics/SVG/1.1/DTD/svg11.dtd">
<svg version="1.1" id="Layer_1" xmlns="http://www.w3.org/2000/svg" xmlns:xlink="http://www.w3.org/1999/xlink" x="0px" y="0px"
	 width="113.606px" height="113.6px" viewBox="0 0 113.606 113.6" enable-background="new 0 0 113.606 113.6" xml:space="preserve">
<g>
	<path fill="#C6801B" d="M98.452,37.459c0,2.557-1.252,4.629-4.629,4.629l0,0h-4.629V17.44c0-2.557,2.072-4.629,4.629-4.629l0,0
		c2.557,0,4.629,2.072,4.629,4.629V37.459z"/>
	<path fill="#E9B043" d="M98.452,35.848c0,2.557-2.072,4.629-4.629,4.629l0,0c-2.557,0-4.629-2.072-4.629-4.629V15.829
		c0-2.557,2.072-4.628,4.629-4.628l0,0c2.557,0,4.629,2.072,4.629,4.628V35.848z"/>
	<rect x="85.538" y="11.2" fill="#E9B043" width="8.88" height="29.277"/>
</g>
<path fill="#C6801B" d="M91.843,96.843c0,2.926-2.22,8.009-8.001,8.009H22.466c-2.927,0-5.299-2.372-5.299-5.296l-0.013-81.881
	c0-2.926,2.718-6.474,8.015-6.474h59.672c2.927,0,4.298,5.083,4.298,8.009L91.843,96.843z"/>
<path fill="#E9B043" d="M91.843,96.843c0,2.926-2.371,5.297-5.298,5.297H25.169c-2.926,0-5.297-2.372-5.297-5.297V16.498
	c0-2.926,2.371-5.297,5.297-5.297h61.376c2.927,0,5.298,2.372,5.298,5.297V96.843z"/>
<g>
	<polygon fill="#B1B1B7" points="78.643,93.261 24.672,93.261 24.672,18.318 26.519,15.991 80.488,15.991 80.488,90.933 	"/>
	<rect x="26.519" y="15.991" fill="#F0EFF8" width="53.97" height="74.942"/>
	<rect x="31.294" y="21.374" fill="#B1B1B7" width="29.969" height="2.578"/>
	<rect x="31.294" y="27.979" fill="#B1B1B7" width="43.179" height="1.204"/>
	<rect x="31.294" y="30.64" fill="#B1B1B7" width="40.844" height="1.204"/>
	<rect x="31.294" y="33.521" fill="#B1B1B7" width="37.949" height="1.204"/>
	<rect x="31.294" y="36.118" fill="#B1B1B7" width="43.179" height="1.204"/>
	<rect x="31.294" y="38.585" fill="#B1B1B7" width="43.179" height="1.204"/>
	<rect x="31.294" y="41.163" fill="#B1B1B7" width="27.229" height="1.205"/>
	<g>
		<rect x="30.991" y="46.268" fill="#B1B1B7" width="43.179" height="1.205"/>
		<rect x="30.991" y="48.93" fill="#B1B1B7" width="40.844" height="1.204"/>
		<rect x="30.991" y="51.81" fill="#B1B1B7" width="37.948" height="1.205"/>
		<rect x="30.991" y="54.408" fill="#B1B1B7" width="43.179" height="1.205"/>
		<rect x="30.991" y="56.875" fill="#B1B1B7" width="43.179" height="1.205"/>
		<rect x="30.991" y="59.452" fill="#B1B1B7" width="27.229" height="1.205"/>
	</g>
	<g>
		<rect x="31.294" y="65.335" fill="#B1B1B7" width="43.179" height="1.204"/>
		<rect x="31.294" y="67.997" fill="#B1B1B7" width="40.844" height="1.204"/>
		<rect x="31.294" y="70.877" fill="#B1B1B7" width="37.949" height="1.205"/>
		<rect x="31.294" y="73.475" fill="#B1B1B7" width="43.179" height="1.204"/>
		<rect x="31.294" y="75.941" fill="#B1B1B7" width="43.179" height="1.204"/>
		<rect x="31.294" y="78.52" fill="#B1B1B7" width="27.229" height="1.205"/>
	</g>
</g>
<polygon fill="#B1B1B7" points="82.995,96.714 29.024,96.714 29.024,21.772 30.871,19.444 84.841,19.444 84.841,94.386 "/>
<rect x="30.871" y="19.444" fill="#F0EFF8" width="53.97" height="74.942"/>
<rect x="35.646" y="24.827" fill="#B1B1B7" width="29.968" height="2.577"/>
<rect x="46.278" y="31.431" fill="#B1B1B7" width="32.548" height="1.205"/>
<rect x="46.278" y="34.094" fill="#B1B1B7" width="30.787" height="1.204"/>
<rect x="46.278" y="36.973" fill="#B1B1B7" width="28.605" height="1.204"/>
<rect x="46.278" y="42.037" fill="#B1B1B7" width="32.548" height="1.205"/>
<rect x="46.278" y="44.616" fill="#B1B1B7" width="20.524" height="1.204"/>
<g>
	<rect x="46.278" y="49.721" fill="#B1B1B7" width="32.244" height="1.204"/>
	<rect x="46.278" y="52.383" fill="#B1B1B7" width="30.499" height="1.204"/>
	<rect x="46.278" y="57.861" fill="#B1B1B7" width="32.244" height="1.204"/>
	<rect x="46.278" y="60.328" fill="#B1B1B7" width="32.244" height="1.204"/>
	<rect x="46.278" y="62.905" fill="#B1B1B7" width="20.333" height="1.205"/>
</g>
<g>
	<rect x="46.278" y="68.788" fill="#B1B1B7" width="32.548" height="1.203"/>
	<rect x="46.278" y="71.45" fill="#B1B1B7" width="30.787" height="1.204"/>
	<rect x="46.278" y="76.928" fill="#B1B1B7" width="32.548" height="1.205"/>
	<rect x="46.278" y="79.395" fill="#B1B1B7" width="32.548" height="1.204"/>
	<rect x="46.278" y="81.973" fill="#B1B1B7" width="20.524" height="1.204"/>
</g>
<path fill="#39549F" d="M42.999,36.764c0,0.724-0.587,1.311-1.312,1.311h-4.729c-0.725,0-1.312-0.587-1.312-1.311v-4.022
	c0-0.724,0.587-1.311,1.312-1.311h4.729c0.725,0,1.312,0.587,1.312,1.311V36.764z"/>
<path fill="#39549F" d="M42.999,45.81c0,0.724-0.587,1.311-1.312,1.311h-4.729c-0.725,0-1.312-0.587-1.312-1.311v-4.022
	c0-0.724,0.587-1.311,1.312-1.311h4.729c0.725,0,1.312,0.587,1.312,1.311V45.81z"/>
<path fill="#39549F" d="M42.999,53.821c0,0.724-0.587,1.311-1.312,1.311h-4.729c-0.725,0-1.312-0.587-1.312-1.311v-4.022
	c0-0.724,0.587-1.311,1.312-1.311h4.729c0.725,0,1.312,0.587,1.312,1.311V53.821z"/>
<path fill="#39549F" d="M42.999,62.94c0,0.724-0.587,1.311-1.312,1.311h-4.729c-0.725,0-1.312-0.587-1.312-1.311v-4.022
	c0-0.724,0.587-1.311,1.312-1.311h4.729c0.725,0,1.312,0.587,1.312,1.311V62.94z"/>
<path fill="#39549F" d="M42.999,72.888c0,0.724-0.587,1.311-1.312,1.311h-4.729c-0.725,0-1.312-0.587-1.312-1.311v-4.022
	c0-0.724,0.587-1.311,1.312-1.311h4.729c0.725,0,1.312,0.587,1.312,1.311V72.888z"/>
<path fill="#39549F" d="M42.999,81.735c0,0.724-0.587,1.311-1.312,1.311h-4.729c-0.725,0-1.312-0.587-1.312-1.311v-4.022
	c0-0.724,0.587-1.311,1.312-1.311h4.729c0.725,0,1.312,0.587,1.312,1.311V81.735z"/>
<g>
	<path fill="#31AEE4" d="M44.605,36.764c0,0.724-0.587,1.311-1.312,1.311h-4.729c-0.725,0-1.312-0.587-1.312-1.311v-4.022
		c0-0.724,0.587-1.311,1.312-1.311h4.729c0.725,0,1.312,0.587,1.312,1.311V36.764z"/>
	<path fill="#31AEE4" d="M44.605,45.81c0,0.724-0.587,1.311-1.312,1.311h-4.729c-0.725,0-1.312-0.587-1.312-1.311v-4.022
		c0-0.724,0.587-1.311,1.312-1.311h4.729c0.725,0,1.312,0.587,1.312,1.311V45.81z"/>
	<path fill="#31AEE4" d="M44.605,53.821c0,0.724-0.587,1.311-1.312,1.311h-4.729c-0.725,0-1.312-0.587-1.312-1.311v-4.022
		c0-0.724,0.587-1.311,1.312-1.311h4.729c0.725,0,1.312,0.587,1.312,1.311V53.821z"/>
	<path fill="#31AEE4" d="M44.605,62.94c0,0.724-0.587,1.311-1.312,1.311h-4.729c-0.725,0-1.312-0.587-1.312-1.311v-4.022
		c0-0.724,0.587-1.311,1.312-1.311h4.729c0.725,0,1.312,0.587,1.312,1.311V62.94z"/>
	<path fill="#31AEE4" d="M44.605,72.888c0,0.724-0.587,1.311-1.312,1.311h-4.729c-0.725,0-1.312-0.587-1.312-1.311v-4.022
		c0-0.724,0.587-1.311,1.312-1.311h4.729c0.725,0,1.312,0.587,1.312,1.311V72.888z"/>
	<path fill="#31AEE4" d="M44.605,81.735c0,0.724-0.587,1.311-1.312,1.311h-4.729c-0.725,0-1.312-0.587-1.312-1.311v-4.022
		c0-0.724,0.587-1.311,1.312-1.311h4.729c0.725,0,1.312,0.587,1.312,1.311V81.735z"/>
</g>
</svg>
