<?xml version="1.0" encoding="utf-8"?>
<!-- Generator: Adobe Illustrator 16.0.0, SVG Export Plug-In . SVG Version: 6.00 Build 0)  -->
<!DOCTYPE svg PUBLIC "-//W3C//DTD SVG 1.1//EN" "http://www.w3.org/Graphics/SVG/1.1/DTD/svg11.dtd">
<svg version="1.1" id="Layer_1" xmlns="http://www.w3.org/2000/svg" xmlns:xlink="http://www.w3.org/1999/xlink" x="0px" y="0px"
	 width="113.606px" height="113.6px" viewBox="0 0 113.606 113.6" enable-background="new 0 0 113.606 113.6" xml:space="preserve">
<g>
	<circle fill="#F4BB43" cx="41.112" cy="66.647" r="35.521"/>
	<g>
		<defs>
			<circle id="SVGID_1_" cx="41.112" cy="66.648" r="35.521"/>
		</defs>
		<clipPath id="SVGID_2_">
			<use xlink:href="#SVGID_1_"  overflow="visible"/>
		</clipPath>
		<g clip-path="url(#SVGID_2_)">
			<path fill="#395491" d="M48.595,43.046c-3.854-0.917-9.077,0.197-9.95,0.26C25.36,44.257,19.897,59.979,20.672,64.493
				c1.422,8.321,3.461,11.345-1.307,17.998c-9.562,13.344-2.958,24.329,4.826,27.052c4.67,1.634,11.032-2.815,11.032-2.815
				c0.117,0.045,16.521-15.617,24.634-23.223C73.496,77.884,58.407,45.385,48.595,43.046z"/>
			<path fill="#685FE3" d="M34.404,87.638c0,0-6.221-0.63-12.345,2.38c-3.768,1.854-7.356,3.868-7.356,3.868l19.009,13.764
				l35.582-10.847c0,0-7.878-8.2-21.384-8.683S34.404,87.638,34.404,87.638z"/>
			<path fill="#A67559" d="M35.393,82.268c0,0-0.185,4.085-0.988,5.37c-0.805,1.286,3.983,5.308,7.056,4.984
				c3.073-0.321,5.164-1.607,6.45-4.502c0,0-1.271-5.112-0.412-5.853C48.357,81.526,35.393,82.268,35.393,82.268z"/>
			<path fill="#7F5341" d="M27.008,61.351c0,0-1.93,0.16-2.251,2.892c-0.321,2.735,1.414,7.104,3.802,6.527
				c2.389-0.576-0.266-9.419-0.266-9.419H27.008z"/>
			<path fill="#7F5341" d="M56.077,62.069c0,0,1.93,0.16,2.252,2.893c0.321,2.734-1.415,7.103-3.803,6.526s0.266-9.419,0.266-9.419
				H56.077z"/>
			<path fill="#7F5341" d="M34.992,81.938c0,0,1.496,2.758,2.747,3.816c1.81,1.535,5.8,1.233,7.035,0.115s2.723-3.602,2.723-3.602
				L34.992,81.938z"/>
			<path fill="#A67559" d="M27.008,64.083c0,0,2.697,20.339,14.452,20.339s14.488-20.58,14.488-20.58v-5.628l-8.843-9.027H33.861
				l-6.049,4.043l-0.805,3.217V64.083z"/>
			<path fill="#395491" d="M52.601,46.818c0,0-9.852,14.104-18.218,17.173S22.06,65.132,22.06,65.132s3.993-5.495,5.307-13.056
				c0.389-2.229,1.936-4.087,4.074-4.831C37.438,45.15,49.003,41.943,52.601,46.818z"/>
			<path fill="#395491" d="M44.458,47.858c0,0,5.267,3.005,7.37,5.697c2.031,2.597,4.2,9.489,3.885,12.53
				c0,0,3.318-14.48-1.994-19.748C48.086,40.751,44.458,47.858,44.458,47.858z"/>
		</g>
	</g>
	<g>
		<path fill="#31AEE4" d="M58.605,55.241c0,0,2.017-5.389,9.855-5.389s-9.855-8.484-9.855-8.484V55.241z"/>
		<path fill="#31AEE4" d="M108.015,41.191c0,4.783-3.878,8.661-8.663,8.661H67.267c-4.783,0-8.661-3.878-8.661-8.661V20.093
			c0-4.784,3.878-8.662,8.661-8.662h32.085c4.785,0,8.663,3.877,8.663,8.662V41.191z"/>
	</g>
	<g>
		<path fill="#C6801B" d="M80.818,34.338c0-7.156,6.287-7.078,6.287-10.875c0-1.739-1.304-2.569-3.479-2.569
			c-2.768,0-4.073,1.423-4.034,4.19h-5.259c0-5.852,3.836-9.134,9.411-9.134c4.469,0,8.542,2.095,8.542,7.631
			c0,6.962-6.445,6.407-6.445,11.193v0.593h-5.022V34.338z M80.343,38.333h6.131v5.615h-6.131V38.333z"/>
	</g>
	<g>
		<path fill="#F4BB43" d="M79.429,34.338c0-7.156,6.286-7.078,6.286-10.875c0-1.739-1.304-2.569-3.479-2.569
			c-2.768,0-4.073,1.423-4.034,4.19h-5.259c0-5.852,3.836-9.134,9.411-9.134c4.469,0,8.542,2.095,8.542,7.631
			c0,6.962-6.445,6.407-6.445,11.193v0.593h-5.021V34.338z M78.952,38.333h6.131v5.615h-6.131V38.333z"/>
	</g>
</g>
</svg>
