<?xml version="1.0" encoding="utf-8"?>
<!-- Generator: Adobe Illustrator 16.0.0, SVG Export Plug-In . SVG Version: 6.00 Build 0)  -->
<!DOCTYPE svg PUBLIC "-//W3C//DTD SVG 1.1//EN" "http://www.w3.org/Graphics/SVG/1.1/DTD/svg11.dtd">
<svg version="1.1" id="Layer_1" xmlns="http://www.w3.org/2000/svg" xmlns:xlink="http://www.w3.org/1999/xlink" x="0px" y="0px"
	 width="113.606px" height="113.6px" viewBox="0 0 113.606 113.6" enable-background="new 0 0 113.606 113.6" xml:space="preserve">
<g>
	<g>
		<path opacity="0.1" fill-rule="evenodd" clip-rule="evenodd" fill="#008DD0" d="M18.547,59.878c0-6.057-0.002-12.113,0.002-18.17
			c0-2.602,1.125-4.572,3.377-5.875c10.5-6.066,21.004-12.129,31.508-18.188c2.232-1.287,4.49-1.295,6.723-0.01
			c10.506,6.059,21.008,12.123,31.508,18.189c2.275,1.314,3.395,3.303,3.395,5.928c0,12.072-0.002,24.146,0,36.219
			c0.002,2.678-1.164,4.664-3.482,6c-10.33,5.959-20.67,11.904-30.98,17.9c-2.547,1.48-4.965,1.52-7.52,0.035
			C42.711,95.886,32.319,89.911,21.94,83.915c-2.252-1.301-3.389-3.266-3.391-5.869C18.545,71.989,18.547,65.935,18.547,59.878z"/>
		<g>
			<g>
				<g>
					<linearGradient id="SVGID_1_" gradientUnits="userSpaceOnUse" x1="34.2622" y1="59.8379" x2="84.2437" y2="59.8379">
						<stop  offset="0" style="stop-color:#20335E"/>
						<stop  offset="0.2892" style="stop-color:#3757A0"/>
						<stop  offset="0.5901" style="stop-color:#2181C5"/>
						<stop  offset="1" style="stop-color:#1A8DD0"/>
					</linearGradient>
					<path fill-rule="evenodd" clip-rule="evenodd" fill="url(#SVGID_1_)" d="M41.463,81.38c-1.471-0.256-2.756-0.359-3.967-0.717
						c-2.256-0.666-3.232-2.102-3.232-4.439c-0.002-11.916-0.004-23.83,0.002-35.744c0-3.203,1.066-5.129,3.424-5.996
						c0.809-0.297,1.713-0.461,2.572-0.463c8.475-0.01,16.949,0.037,25.424,0.025c0.549-0.002,1.156-0.254,1.635-0.551
						c4.965-3.094,11.279-2.164,14.973,2.236c3.668,4.369,1.713,8.404-2.15,12.721c-0.605,0.678-0.32,1.465-1.084,1.959
						c-0.625,0.404-0.086,1.041-0.082,1.75c0.033,9.115,0.156,20.17,0.162,29.287c0,0.717,0.002,1.445-0.111,2.15
						c-0.48,2.971-2.164,4.391-5.164,4.391c-8.557,0.006-17.113,0.025-25.668-0.023c-1.256-0.008-2.559-0.219-3.754-0.6
						c-2.055-0.654-2.969-2.105-2.979-4.268C41.461,82.507,41.463,81.917,41.463,81.38z M64.458,36.265
						c-0.33,0-1.154,0.006-1.576,0.006c-7.318,0-14.639,0.012-21.957-0.006c-3.287-0.008-4.447,1.045-4.453,4.316
						c-0.02,11.877,0,23.756-0.02,35.635c-0.002,1.234,0.561,2.021,1.682,2.299c1.074,0.266,2.199,0.451,3.301,0.455
						c8.199,0.037,16.398,0.02,24.598,0.02c2.729,0,3.615-0.834,3.623-3.547c0.02-6.879,0-13.758,0.018-20.637
						c0.002-0.68-0.02-2.176-0.701-2.457c-1.855-0.764-1.355-0.982-2.619-2.52c-0.293-0.355-1.23-0.748-1.68-0.75
						c-6.598-0.043-14.904,0.035-21.504,0.029c-1.42-0.002-1.693-0.277-1.703-1.668c-0.008-1.318,0.02-2.639-0.008-3.959
						c-0.021-1.062,0.443-1.514,1.518-1.502c2.92,0.031,5.838,0.01,8.758,0.01c3.438,0,8.074,0.006,11.369,0.006
						C63.477,39.771,63.516,37.7,64.458,36.265z M43.762,81.19c-0.271,3.357,0.086,4.215,3.707,4.553
						c0.158,0.016,0.318,0.006,0.479,0.006c8.678,0,17.355,0.004,26.033-0.002c1.766-0.002,2.658-0.764,2.828-2.553
						c0.111-1.188,0.051-2.391,0.051-3.586c0.004-8.039,0.002-16.076,0.002-24.113c0-0.457,0.072-2.695,0.072-3.084
						c-1.746,0.137-3.41-0.131-5.082,0c0,0.436,0.053,3.076,0.053,3.545c0,6.518-0.008,13.037,0.002,19.555
						c0.006,3.135-1.541,5.791-5.656,5.715c-7.035-0.131-14.076-0.035-21.113-0.035C44.704,81.19,44.272,81.19,43.762,81.19z
						 M43.762,44.218c0,0.867,0,1.709,0,2.559c6.148,0,15.42,0.053,21.465,0.053c0-0.908-1.75-1.789-1.75-2.625
						C57.348,44.204,49.885,44.218,43.762,44.218z"/>
					<linearGradient id="SVGID_2_" gradientUnits="userSpaceOnUse" x1="41.522" y1="59.2695" x2="64.6533" y2="59.2695">
						<stop  offset="0" style="stop-color:#20335E"/>
						<stop  offset="0.2892" style="stop-color:#3757A0"/>
						<stop  offset="0.5901" style="stop-color:#2181C5"/>
						<stop  offset="1" style="stop-color:#1A8DD0"/>
					</linearGradient>
					<path fill-rule="evenodd" clip-rule="evenodd" fill="url(#SVGID_2_)" d="M53.106,60.392c-3.277,0-6.555,0.002-9.832-0.002
						c-0.803-0.002-1.734,0.1-1.752-1.084c-0.016-1.154,0.871-1.156,1.703-1.156c6.596,0,13.189,0.004,19.785-0.004
						c0.818,0,1.617,0.08,1.643,1.109c0.027,1.051-0.771,1.143-1.592,1.139C59.743,60.386,56.424,60.392,53.106,60.392z"/>
					<linearGradient id="SVGID_3_" gradientUnits="userSpaceOnUse" x1="41.6558" y1="54.0684" x2="64.8252" y2="54.0684">
						<stop  offset="0" style="stop-color:#20335E"/>
						<stop  offset="0.2892" style="stop-color:#3757A0"/>
						<stop  offset="0.5901" style="stop-color:#2181C5"/>
						<stop  offset="1" style="stop-color:#1A8DD0"/>
					</linearGradient>
					<path fill-rule="evenodd" clip-rule="evenodd" fill="url(#SVGID_3_)" d="M53.311,52.95c3.316,0,6.635,0.006,9.951-0.006
						c0.783-0.002,1.537,0.1,1.562,1.055c0.025,1.008-0.736,1.193-1.576,1.193c-6.674-0.004-13.35-0.002-20.023-0.002
						c-0.844,0-1.6-0.223-1.568-1.215c0.029-0.959,0.811-1.031,1.582-1.029C46.596,52.954,49.954,52.948,53.311,52.95z"/>
					<linearGradient id="SVGID_4_" gradientUnits="userSpaceOnUse" x1="41.5024" y1="69.7686" x2="64.6748" y2="69.7686">
						<stop  offset="0" style="stop-color:#20335E"/>
						<stop  offset="0.2892" style="stop-color:#3757A0"/>
						<stop  offset="0.5901" style="stop-color:#2181C5"/>
						<stop  offset="1" style="stop-color:#1A8DD0"/>
					</linearGradient>
					<path fill-rule="evenodd" clip-rule="evenodd" fill="url(#SVGID_4_)" d="M53.188,68.671c3.318,0,6.637,0.01,9.955-0.01
						c0.809-0.004,1.51,0.15,1.531,1.09c0.021,0.949-0.678,1.125-1.488,1.125c-6.715-0.01-13.432-0.012-20.148,0
						c-0.807,0.002-1.523-0.164-1.535-1.092c-0.014-1.033,0.781-1.125,1.609-1.121C46.471,68.679,49.829,68.671,53.188,68.671z"/>
					<linearGradient id="SVGID_5_" gradientUnits="userSpaceOnUse" x1="41.5215" y1="64.4492" x2="64.6548" y2="64.4492">
						<stop  offset="0" style="stop-color:#20335E"/>
						<stop  offset="0.2892" style="stop-color:#3757A0"/>
						<stop  offset="0.5901" style="stop-color:#2181C5"/>
						<stop  offset="1" style="stop-color:#1A8DD0"/>
					</linearGradient>
					<path fill-rule="evenodd" clip-rule="evenodd" fill="url(#SVGID_5_)" d="M53.065,63.351c3.355,0,6.711,0.008,10.066-0.006
						c0.787-0.004,1.523,0.078,1.523,1.062c0.002,0.934-0.676,1.146-1.488,1.146c-6.711-0.006-13.422-0.006-20.135,0
						c-0.789,0-1.488-0.131-1.51-1.105c-0.023-1.006,0.682-1.105,1.475-1.104C46.352,63.356,49.709,63.351,53.065,63.351z"/>
				</g>
				<path fill-rule="evenodd" clip-rule="evenodd" fill="#FFFFFF" d="M74.624,45.032c-0.002,1.318,0.08,2.645-0.047,3.951
					c-0.043,0.438-0.551,1.072-0.963,1.184c-0.752,0.201-1.172-0.387-1.178-1.133c-0.02-2.678-0.016-5.354-0.002-8.031
					c0.002-0.738,0.355-1.248,1.152-1.229c0.818,0.02,1.055,0.557,1.043,1.303C74.608,42.396,74.624,43.714,74.624,45.032z"/>
				<circle fill-rule="evenodd" clip-rule="evenodd" fill="#FFFFFF" cx="73.536" cy="37.767" r="1.062"/>
			</g>
			<g>
				<defs>
					<circle id="SVGID_6_" cx="73.614" cy="42.718" r="11.352"/>
				</defs>
				<clipPath id="SVGID_7_">
					<use xlink:href="#SVGID_6_"  overflow="visible"/>
				</clipPath>
				<g clip-path="url(#SVGID_7_)">
					<g>
						<linearGradient id="SVGID_8_" gradientUnits="userSpaceOnUse" x1="34.2012" y1="59.5254" x2="84.9043" y2="59.5254">
							<stop  offset="0" style="stop-color:#20335E"/>
							<stop  offset="0.2892" style="stop-color:#3757A0"/>
							<stop  offset="0.5901" style="stop-color:#2181C5"/>
							<stop  offset="1" style="stop-color:#1A8DD0"/>
						</linearGradient>
						<path fill-rule="evenodd" clip-rule="evenodd" fill="url(#SVGID_8_)" d="M41.401,81.067c-1.471-0.256-2.756-0.359-3.967-0.717
							c-2.256-0.666-3.232-2.102-3.232-4.439c0-11.916-0.002-23.83,0.002-35.744c0.002-3.203,1.066-5.129,3.426-5.996
							c0.807-0.297,1.711-0.461,2.57-0.463c8.475-0.01,16.949,0.037,25.424,0.025c0.549-0.002,1.156-0.254,1.635-0.551
							c4.967-3.094,11.279-2.164,14.973,2.236c3.668,4.369,3.557,10.713-0.307,15.029c-0.607,0.678-1.33,1.285-2.094,1.777
							c-0.625,0.406-0.805,0.854-0.803,1.562c0.035,9.115,0.043,18.23,0.049,27.348c0,0.717,0.004,1.445-0.111,2.15
							c-0.48,2.971-2.164,4.391-5.164,4.391c-8.557,0.006-17.111,0.025-25.668-0.023c-1.256-0.008-2.557-0.219-3.754-0.6
							c-2.053-0.654-2.967-2.105-2.977-4.268C41.399,82.194,41.401,81.604,41.401,81.067z M64.397,35.952
							c-0.332,0-1.156,0.006-1.578,0.006c-7.318,0-14.637,0.012-21.957-0.006c-3.287-0.008-4.447,1.045-4.453,4.316
							c-0.018,11.877,0.002,23.756-0.018,35.635c-0.002,1.234,0.559,2.021,1.68,2.299c1.074,0.266,2.199,0.451,3.303,0.455
							c8.199,0.037,16.396,0.02,24.596,0.02c2.729,0,3.615-0.834,3.623-3.547c0.021-6.879,0-13.758,0.02-20.637
							c0.002-0.68-0.17-1.08-0.852-1.361c-1.855-0.764-3.273-2.098-4.537-3.635c-0.291-0.355-0.871-0.666-1.318-0.67
							c-6.6-0.043-13.199-0.025-19.797-0.031c-1.422-0.002-1.695-0.277-1.705-1.668c-0.008-1.318,0.02-2.639-0.008-3.959
							c-0.021-1.062,0.443-1.514,1.518-1.502c2.92,0.031,5.84,0.01,8.76,0.01c3.436,0,7.33,0.01,10.625,0.01
							C62.672,39.462,63.454,37.388,64.397,35.952z M43.7,80.878c-0.27,3.357,0.086,4.215,3.707,4.553
							c0.158,0.016,0.32,0.006,0.48,0.006c8.676,0,17.354,0.004,26.031-0.002c1.766-0.002,2.658-0.764,2.828-2.553
							c0.111-1.188,0.051-2.391,0.053-3.586c0.002-8.039,0-16.076,0-24.113c0-0.457,0-0.912,0-1.301
							c-1.746,0.137-3.285,0.258-4.957,0.389c0,0.436,0,0.904,0,1.373c0,6.518-0.006,13.037,0.002,19.555
							c0.006,3.135-1.539,5.791-5.656,5.715c-7.035-0.131-14.076-0.035-21.113-0.035C44.643,80.878,44.209,80.878,43.7,80.878z
							 M43.702,43.905c0,0.867,0,1.709,0,2.559c6.146,0,12.23,0,18.275,0c0-0.908,0-1.721,0-2.559
							C55.848,43.905,49.825,43.905,43.702,43.905z"/>
						<linearGradient id="SVGID_9_" gradientUnits="userSpaceOnUse" x1="41.145" y1="58.957" x2="64.2764" y2="58.957">
							<stop  offset="0" style="stop-color:#20335E"/>
							<stop  offset="0.2892" style="stop-color:#3757A0"/>
							<stop  offset="0.5901" style="stop-color:#2181C5"/>
							<stop  offset="1" style="stop-color:#1A8DD0"/>
						</linearGradient>
						<path fill-rule="evenodd" clip-rule="evenodd" fill="url(#SVGID_9_)" d="M52.729,60.079c-3.279,0-6.557,0.002-9.834-0.002
							c-0.803-0.002-1.734,0.1-1.75-1.084c-0.016-1.154,0.869-1.156,1.701-1.156c6.596,0,13.191,0.004,19.787-0.004
							c0.816,0,1.617,0.08,1.643,1.109c0.025,1.051-0.771,1.143-1.594,1.139C59.364,60.073,56.045,60.079,52.729,60.079z"/>
						<linearGradient id="SVGID_10_" gradientUnits="userSpaceOnUse" x1="41.4409" y1="53.7559" x2="64.6104" y2="53.7559">
							<stop  offset="0" style="stop-color:#20335E"/>
							<stop  offset="0.2892" style="stop-color:#3757A0"/>
							<stop  offset="0.5901" style="stop-color:#2181C5"/>
							<stop  offset="1" style="stop-color:#1A8DD0"/>
						</linearGradient>
						<path fill-rule="evenodd" clip-rule="evenodd" fill="url(#SVGID_10_)" d="M53.096,52.638c3.318,0,6.635,0.006,9.953-0.006
							c0.781-0.002,1.537,0.1,1.561,1.055c0.027,1.008-0.734,1.193-1.574,1.193c-6.676-0.004-13.35-0.002-20.025-0.002
							c-0.844,0-1.598-0.223-1.568-1.215c0.029-0.959,0.811-1.031,1.582-1.029C46.381,52.642,49.739,52.636,53.096,52.638z"/>
						<linearGradient id="SVGID_11_" gradientUnits="userSpaceOnUse" x1="41.4399" y1="69.4561" x2="64.6123" y2="69.4561">
							<stop  offset="0" style="stop-color:#20335E"/>
							<stop  offset="0.2892" style="stop-color:#3757A0"/>
							<stop  offset="0.5901" style="stop-color:#2181C5"/>
							<stop  offset="1" style="stop-color:#1A8DD0"/>
						</linearGradient>
						<path fill-rule="evenodd" clip-rule="evenodd" fill="url(#SVGID_11_)" d="M53.125,68.358c3.318,0,6.637,0.01,9.955-0.01
							c0.809-0.004,1.51,0.15,1.531,1.09c0.021,0.949-0.676,1.125-1.486,1.125c-6.717-0.01-13.434-0.012-20.15,0
							c-0.807,0.002-1.523-0.164-1.535-1.092c-0.014-1.033,0.781-1.125,1.611-1.121C46.409,68.366,49.768,68.358,53.125,68.358z"/>
						<linearGradient id="SVGID_12_" gradientUnits="userSpaceOnUse" x1="41.1367" y1="64.1367" x2="64.272" y2="64.1367">
							<stop  offset="0" style="stop-color:#20335E"/>
							<stop  offset="0.2892" style="stop-color:#3757A0"/>
							<stop  offset="0.5901" style="stop-color:#2181C5"/>
							<stop  offset="1" style="stop-color:#1A8DD0"/>
						</linearGradient>
						<path fill-rule="evenodd" clip-rule="evenodd" fill="url(#SVGID_12_)" d="M52.68,63.038c3.355,0,6.711,0.008,10.068-0.006
							c0.787-0.004,1.523,0.078,1.523,1.062c0,0.934-0.676,1.146-1.488,1.146c-6.713-0.006-13.424-0.006-20.135,0
							c-0.791,0-1.49-0.131-1.512-1.105c-0.021-1.006,0.684-1.105,1.477-1.104C45.969,63.044,49.325,63.038,52.68,63.038z"/>
					</g>
					<path fill-rule="evenodd" clip-rule="evenodd" fill="#FFFFFF" d="M74.561,44.72c0,1.318,0.082,2.645-0.047,3.951
						c-0.041,0.438-0.551,1.072-0.961,1.184c-0.754,0.201-1.174-0.387-1.18-1.133c-0.018-2.678-0.016-5.354-0.002-8.031
						c0.004-0.738,0.355-1.248,1.152-1.229c0.818,0.02,1.055,0.557,1.043,1.303C74.547,42.083,74.561,43.401,74.561,44.72z"/>
					<circle fill-rule="evenodd" clip-rule="evenodd" fill="#FFFFFF" cx="73.473" cy="37.454" r="1.062"/>
				</g>
			</g>
		</g>
	</g>
	
		<line opacity="0.1" fill-rule="evenodd" clip-rule="evenodd" fill="none" stroke="#008DD0" stroke-width="2.5" stroke-linecap="round" stroke-miterlimit="10" x1="73.536" y1="40.11" x2="73.536" y2="48.944"/>
	<circle opacity="0.1" fill-rule="evenodd" clip-rule="evenodd" fill="#008DD0" cx="73.392" cy="37.419" r="1.317"/>
</g>
</svg>
