<?xml version="1.0" encoding="utf-8"?>
<!-- Generator: Adobe Illustrator 16.0.0, SVG Export Plug-In . SVG Version: 6.00 Build 0)  -->
<!DOCTYPE svg PUBLIC "-//W3C//DTD SVG 1.1//EN" "http://www.w3.org/Graphics/SVG/1.1/DTD/svg11.dtd">
<svg version="1.1" id="Layer_1" xmlns="http://www.w3.org/2000/svg" xmlns:xlink="http://www.w3.org/1999/xlink" x="0px" y="0px"
	 width="113.606px" height="113.6px" viewBox="0 0 113.606 113.6" enable-background="new 0 0 113.606 113.6" xml:space="preserve">
<g>
	<path opacity="0.1" fill-rule="evenodd" clip-rule="evenodd" fill="#008DD0" d="M16.721,59.83c0-6.057-0.002-12.113,0.002-18.169
		c0-2.603,1.125-4.573,3.377-5.875c10.5-6.067,21.003-12.13,31.508-18.189c2.232-1.288,4.49-1.295,6.723-0.008
		c10.506,6.057,21.008,12.122,31.508,18.188c2.275,1.315,3.395,3.304,3.395,5.929c0,12.073-0.002,24.145,0,36.217
		c0.001,2.678-1.165,4.664-3.482,6c-10.331,5.959-20.67,11.906-30.98,17.901c-2.547,1.48-4.965,1.521-7.521,0.034
		c-10.364-6.021-20.757-11.994-31.136-17.991c-2.252-1.301-3.389-3.265-3.391-5.868C16.718,71.942,16.721,65.885,16.721,59.83z"/>
	<g>
		<linearGradient id="SVGID_1_" gradientUnits="userSpaceOnUse" x1="28.1152" y1="59.7905" x2="68.9639" y2="59.7905">
			<stop  offset="0" style="stop-color:#20335E"/>
			<stop  offset="0.2892" style="stop-color:#3757A0"/>
			<stop  offset="0.5901" style="stop-color:#2181C5"/>
			<stop  offset="1" style="stop-color:#1A8DD0"/>
		</linearGradient>
		<path fill-rule="evenodd" clip-rule="evenodd" fill="url(#SVGID_1_)" d="M28.234,59.739c0-8.274-0.002-16.549,0.002-24.824
			c0.002-1.683,0.249-1.923,1.97-1.924c11.075-0.003,22.149-0.003,33.224-0.001c3.675,0.001,5.504,1.812,5.52,5.538
			c0.024,5.277,0.007,10.555,0.007,15.833c0,7.996,0.03,15.992-0.028,23.988c-0.01,1.375-0.213,2.807-0.639,4.109
			c-0.9,2.762-3.027,4.144-5.924,4.135c-8.676-0.028-17.35-0.061-26.023-0.075c-2.157-0.004-4.314,0.062-6.472,0.069
			c-1.415,0.006-1.751-0.345-1.752-1.781c-0.005-8.355-0.002-16.711-0.002-25.066C28.156,59.739,28.195,59.739,28.234,59.739z
			 M38,35.258c0,16.407,0,32.664,0,48.943c0.233,0.028,0.387,0.062,0.541,0.062c7.999,0.029,15.998,0.057,23.996,0.082
			c1.764,0.006,3.025-0.83,3.582-2.469c0.365-1.078,0.607-2.256,0.61-3.39c0.041-13.199,0.027-26.399,0.022-39.599
			c0-0.437-0.015-0.884-0.104-1.31c-0.318-1.523-0.967-2.299-2.188-2.304C55.667,35.244,46.875,35.258,38,35.258z M35.596,84.258
			c0-16.412,0-32.658,0-48.941c-1.731,0-3.382,0-5.155,0c0,16.363,0,32.641,0,48.941C32.166,84.258,33.828,84.258,35.596,84.258z"/>
		<linearGradient id="SVGID_2_" gradientUnits="userSpaceOnUse" x1="67.0557" y1="59.7534" x2="90.3975" y2="59.7534">
			<stop  offset="0" style="stop-color:#2181C5"/>
			<stop  offset="0.5901" style="stop-color:#2181C5"/>
			<stop  offset="1" style="stop-color:#1A8DD0"/>
		</linearGradient>
		<path fill-rule="evenodd" clip-rule="evenodd" fill="url(#SVGID_2_)" d="M80.414,76.047c0.307-0.455,0.501-0.876,0.809-1.182
			c1.104-1.093,2.246-2.146,3.6-3.428c-1.381-1.293-2.578-2.453-3.82-3.562c-0.738-0.659-0.668-1.274-0.447-2.214
			c0.586-2.498,2.072-3.18,4.422-2.834c1.011,0.148,2.062,0.024,3.176,0.024c0-2.067,0-4.044,0-6.2
			c-1.682,0-3.348-0.044-5.009,0.017c-1.022,0.037-1.727-0.221-1.896-1.327c-0.006-0.039-0.021-0.08-0.044-0.111
			c-1.492-2.043-0.707-3.558,1.067-4.92c0.819-0.628,1.524-1.408,2.165-2.01c-1.495-1.5-2.891-2.899-4.434-4.448
			c-0.963,0.997-2.121,2.14-3.211,3.344c-0.721,0.797-1.458,1.079-2.404,0.439c-0.066-0.044-0.139-0.096-0.214-0.106
			c-2.288-0.324-2.799-1.761-2.526-3.827c0.14-1.061,0.018-2.156,0.01-3.235c-0.002-0.076-0.037-0.151-0.094-0.362
			c-1.055,0-2.15,0-3.346,0c0-0.751,0-1.373,0-2.157c1.496,0,3.047-0.079,4.578,0.059c0.353,0.032,0.877,0.79,0.912,1.245
			c0.116,1.511,0.043,3.036,0.047,4.556c0.002,0.623-0.103,1.2,0.722,1.561c0.825,0.361,1.167-0.086,1.614-0.536
			c1.072-1.077,2.158-2.141,3.221-3.227c0.663-0.679,1.291-0.688,1.959-0.015c1.805,1.815,3.619,3.622,5.428,5.433
			c0.656,0.658,0.668,1.301-0.014,1.97c-1.172,1.147-2.357,2.284-3.454,3.5c-0.257,0.285-0.345,0.929-0.212,1.3
			c0.114,0.314,0.652,0.65,1.018,0.667c1.557,0.073,3.118,0.021,4.678,0.035c1.297,0.011,1.666,0.358,1.675,1.614
			c0.016,2.439-0.009,4.879,0.01,7.318c0.009,1.119-0.505,1.585-1.618,1.556c-1.559-0.042-3.121-0.059-4.677,0.024
			c-0.393,0.021-0.95,0.383-1.091,0.729c-0.143,0.346,0,0.993,0.266,1.286c1.07,1.186,2.23,2.29,3.369,3.415
			c0.701,0.693,0.73,1.346,0.005,2.06c-1.796,1.767-3.581,3.545-5.342,5.347c-0.769,0.789-1.427,0.688-2.144-0.051
			c-1.086-1.118-2.17-2.244-3.324-3.289c-0.299-0.27-0.863-0.369-1.293-0.342c-0.699,0.045-0.818,0.586-0.806,1.219
			c0.032,1.56-0.014,3.12,0.017,4.68c0.021,1.06-0.426,1.541-1.502,1.52c-1.676-0.031-3.353-0.008-5.202-0.008
			c0.224-0.775,0.415-1.439,0.629-2.18c1.312,0,2.579,0,3.987,0c0-1.836,0.037-3.584-0.016-5.33
			c-0.027-0.867,0.295-1.364,1.119-1.567c0.154-0.038,0.328-0.062,0.451-0.149c1.852-1.32,3.256-0.758,4.531,0.931
			C78.45,74.194,79.352,74.954,80.414,76.047z"/>
		<linearGradient id="SVGID_3_" gradientUnits="userSpaceOnUse" x1="67.415" y1="59.7354" x2="76.9312" y2="59.7354">
			<stop  offset="0" style="stop-color:#2181C5"/>
			<stop  offset="0.5901" style="stop-color:#2181C5"/>
			<stop  offset="1" style="stop-color:#1A8DD0"/>
		</linearGradient>
		<path fill-rule="evenodd" clip-rule="evenodd" fill="url(#SVGID_3_)" d="M68.307,53.438c0-0.675,0-1.298,0-2.032
			c3.375,0.082,5.955,1.426,7.52,4.339c1.656,3.085,1.459,6.189-0.647,9.006c-1.882,2.518-4.485,3.562-7.764,3.265
			c0.065-0.727,0.12-1.344,0.173-1.943c5.018-0.867,7.133-2.771,7.121-6.357C74.699,56.329,72.433,54.073,68.307,53.438z"/>
		<linearGradient id="SVGID_4_" gradientUnits="userSpaceOnUse" x1="42.7905" y1="44.5142" x2="62.917" y2="44.5142">
			<stop  offset="0" style="stop-color:#20335E"/>
			<stop  offset="0.2892" style="stop-color:#3757A0"/>
			<stop  offset="0.5901" style="stop-color:#2181C5"/>
			<stop  offset="1" style="stop-color:#1A8DD0"/>
		</linearGradient>
		<path fill-rule="evenodd" clip-rule="evenodd" fill="url(#SVGID_4_)" d="M52.853,47.872c-2.8,0-5.6,0.007-8.399-0.003
			c-1.321-0.005-1.63-0.307-1.652-1.616c-0.021-1.2-0.001-2.4-0.005-3.6c-0.003-0.973,0.45-1.499,1.448-1.499
			c5.76,0,11.52-0.003,17.279,0.002c0.92,0.001,1.404,0.458,1.394,1.409c-0.011,1.2,0.005,2.399-0.003,3.6
			c-0.008,1.439-0.254,1.699-1.662,1.705C58.452,47.879,55.652,47.873,52.853,47.872z"/>
	</g>
</g>
</svg>
