<?xml version="1.0" encoding="utf-8"?>
<!-- Generator: Adobe Illustrator 16.0.0, SVG Export Plug-In . SVG Version: 6.00 Build 0)  -->
<!DOCTYPE svg PUBLIC "-//W3C//DTD SVG 1.1//EN" "http://www.w3.org/Graphics/SVG/1.1/DTD/svg11.dtd">
<svg version="1.1" id="Layer_1" xmlns="http://www.w3.org/2000/svg" xmlns:xlink="http://www.w3.org/1999/xlink" x="0px" y="0px"
	 width="113.606px" height="113.6px" viewBox="0 0 113.606 113.6" enable-background="new 0 0 113.606 113.6" xml:space="preserve">
<g>
	<path opacity="0.1" fill-rule="evenodd" clip-rule="evenodd" fill="#008DD0" d="M18.547,59.396c0-6.057-0.002-12.113,0.002-18.169
		c0-2.603,1.125-4.573,3.377-5.875c10.5-6.067,21.004-12.13,31.508-18.189c2.232-1.288,4.49-1.295,6.723-0.008
		c10.506,6.057,21.008,12.122,31.508,18.188c2.275,1.315,3.395,3.304,3.395,5.929c0,12.073-0.002,24.146,0,36.218
		c0.002,2.678-1.164,4.664-3.482,6c-10.33,5.959-20.67,11.906-30.98,17.9c-2.547,1.48-4.965,1.52-7.52,0.035
		C42.711,95.404,32.319,89.43,21.94,83.434c-2.252-1.301-3.389-3.266-3.391-5.868C18.545,71.509,18.547,65.453,18.547,59.396z"/>
	<g>
		<linearGradient id="SVGID_1_" gradientUnits="userSpaceOnUse" x1="32.7207" y1="61.9727" x2="84.4531" y2="61.9727">
			<stop  offset="0" style="stop-color:#20335E"/>
			<stop  offset="0.2892" style="stop-color:#3757A0"/>
			<stop  offset="0.5901" style="stop-color:#2181C5"/>
			<stop  offset="1" style="stop-color:#1A8DD0"/>
		</linearGradient>
		<path fill-rule="evenodd" clip-rule="evenodd" fill="url(#SVGID_1_)" d="M79.512,61.553c7.395,6.857,6.205,18.271-1.676,23.564
			c-6.914,4.644-16.334,2.736-20.857-4.301c-0.555-0.862-1.121-1.137-2.109-1.129c-5.518,0.048-11.037,0.026-16.557,0.021
			c-3.936-0.002-5.59-1.671-5.59-5.643c-0.004-10.678-0.002-21.355-0.002-32.033c0.002-3.736,1.926-5.677,5.686-5.68
			c11.236-0.01,22.473-0.003,33.709-0.006c0.838,0,1.682-0.098,2.512-0.032c3.105,0.243,5.07,2.173,5.109,5.267
			c0.078,6.238,0.029,12.477,0.016,18.716C79.752,60.682,79.61,61.066,79.512,61.553z M56.227,53.924
			c-1.436,1.21-2.746,2.384-4.137,3.455c-0.453,0.35-1.225,0.713-1.643,0.547c-0.377-0.148-0.652-1.012-0.658-1.563
			c-0.047-5.438-0.027-10.876-0.027-16.314c0-0.464,0-0.929,0-1.468c-4.107,0-8.061-0.084-12.008,0.035
			c-1.994,0.061-2.787,1.118-2.787,3.148c-0.006,10.836-0.006,21.672-0.002,32.508c0.002,2.469,0.736,3.192,3.238,3.195
			c5.277,0.006,10.557,0.004,15.834-0.001c0.375-0.001,0.748-0.044,1.182-0.069c-1.621-6.613-0.24-12.279,5.119-16.453
			c5.338-4.158,11.168-4.152,17.086-1.029c0.045-0.214,0.088-0.326,0.088-0.439c0.004-5.918,0.031-11.836-0.008-17.753
			c-0.014-2.102-1.32-3.224-3.5-3.209c-2.559,0.016-5.117,0.027-7.676,0.037c-1.305,0.005-2.611,0.001-4.006,0.001
			c0,0.581,0,1.014,0,1.447c0,5.478,0.018,10.956-0.027,16.433c-0.004,0.52-0.307,1.364-0.65,1.47
			c-0.463,0.143-1.221-0.144-1.643-0.495C58.715,56.332,57.528,55.141,56.227,53.924z M69.489,85.389
			c7.016,0.008,12.76-5.712,12.754-12.701c-0.006-6.946-5.854-12.773-12.783-12.738c-6.941,0.036-12.631,5.747-12.656,12.705
			C56.78,79.703,62.436,85.381,69.489,85.389z"/>
		<linearGradient id="SVGID_2_" gradientUnits="userSpaceOnUse" x1="37.6792" y1="69.8032" x2="46.2939" y2="69.8032">
			<stop  offset="0" style="stop-color:#20335E"/>
			<stop  offset="0.633" style="stop-color:#3757A0"/>
			<stop  offset="1" style="stop-color:#2181C5"/>
		</linearGradient>
		<path fill-rule="evenodd" clip-rule="evenodd" fill="url(#SVGID_2_)" d="M46.284,69.823c0,1.118-0.027,2.236,0.008,3.353
			c0.029,1.004-0.418,1.492-1.414,1.492c-1.916,0-3.832-0.005-5.748,0.002c-0.932,0.003-1.428-0.467-1.436-1.38
			c-0.02-2.315-0.02-4.63-0.002-6.944c0.008-0.965,0.486-1.432,1.508-1.408c1.875,0.043,3.752,0.038,5.627,0.002
			c1.096-0.021,1.502,0.482,1.465,1.531C46.252,67.588,46.284,68.706,46.284,69.823z M39.977,72.354c1.4,0,2.691,0,4.008,0
			c0-1.758,0-3.439,0-5.102c-1.387,0-2.674,0-4.008,0C39.977,68.98,39.977,70.605,39.977,72.354z"/>
		<linearGradient id="SVGID_3_" gradientUnits="userSpaceOnUse" x1="61.9497" y1="68.4727" x2="70.6416" y2="68.4727">
			<stop  offset="0" style="stop-color:#2181C5"/>
			<stop  offset="1" style="stop-color:#1A8DD0"/>
		</linearGradient>
		<path fill-rule="evenodd" clip-rule="evenodd" fill="url(#SVGID_3_)" d="M68.403,71.63c0-2.427,0.014-4.663-0.008-6.9
			c-0.008-0.841,0.123-1.617,1.129-1.624c0.941-0.006,1.109,0.77,1.113,1.539c0.008,2.561,0.002,5.119,0.002,7.68
			c0,1.027-0.465,1.534-1.543,1.515c-1.918-0.034-3.838-0.017-5.758-0.007c-0.791,0.004-1.379-0.287-1.389-1.131
			c-0.01-0.883,0.613-1.089,1.395-1.078C64.975,71.646,66.608,71.63,68.403,71.63z"/>
	</g>
</g>
</svg>
