<?xml version="1.0" encoding="utf-8"?>
<!-- Generator: Adobe Illustrator 16.0.0, SVG Export Plug-In . SVG Version: 6.00 Build 0)  -->
<!DOCTYPE svg PUBLIC "-//W3C//DTD SVG 1.1//EN" "http://www.w3.org/Graphics/SVG/1.1/DTD/svg11.dtd">
<svg version="1.1" id="Layer_1" xmlns="http://www.w3.org/2000/svg" xmlns:xlink="http://www.w3.org/1999/xlink" x="0px" y="0px"
	 width="113.606px" height="113.6px" viewBox="0 0 113.606 113.6" enable-background="new 0 0 113.606 113.6" xml:space="preserve">
<g>
	<path opacity="0.1" fill-rule="evenodd" clip-rule="evenodd" fill="#008DD0" d="M20.317,59.559c0-6.057-0.002-12.113,0-18.17
		c0.002-2.602,1.127-4.572,3.379-5.875c10.5-6.066,21.002-12.131,31.508-18.189c2.234-1.287,4.492-1.295,6.725-0.008
		c10.506,6.057,21.006,12.121,31.506,18.188c2.275,1.316,3.393,3.305,3.393,5.93c0,12.072,0,24.145,0.002,36.217
		c0,2.678-1.166,4.664-3.482,6c-10.332,5.959-20.67,11.906-30.98,17.902c-2.545,1.48-4.963,1.52-7.521,0.033
		c-10.363-6.021-20.756-11.994-31.135-17.99c-2.252-1.301-3.389-3.266-3.391-5.869C20.313,71.67,20.317,65.613,20.317,59.559z"/>
	<linearGradient id="SVGID_1_" gradientUnits="userSpaceOnUse" x1="57.3105" y1="51.1748" x2="70.5142" y2="51.1748">
		<stop  offset="0" style="stop-color:#20335E"/>
		<stop  offset="0.2892" style="stop-color:#3757A0"/>
		<stop  offset="0.5901" style="stop-color:#2181C5"/>
		<stop  offset="1" style="stop-color:#1A8DD0"/>
	</linearGradient>
	<path fill="url(#SVGID_1_)" d="M57.354,56.295c0,0-0.467-6.263,1.65-8.209c2.115-1.946,4.113-2.032,4.906-2.031
		c0.795,0,3.43,0,5.037,2.158c1.375,1.845,1.566,2.328,1.566,8.082h-2.158c0,0,0.363-5.023-0.975-6.56
		c-1.043-1.198-1.947-1.574-3.52-1.604c-1.686-0.031-2.912,0.801-3.42,1.521c-0.508,0.719-1.143,1.481-0.93,6.644H57.354z"/>
	<linearGradient id="SVGID_2_" gradientUnits="userSpaceOnUse" x1="54.7432" y1="62.917" x2="72.9248" y2="62.917">
		<stop  offset="0" style="stop-color:#20335E"/>
		<stop  offset="0.2892" style="stop-color:#3757A0"/>
		<stop  offset="0.5901" style="stop-color:#2181C5"/>
		<stop  offset="1" style="stop-color:#1A8DD0"/>
	</linearGradient>
	
		<path fill="none" stroke="url(#SVGID_2_)" stroke-width="2.2" stroke-linecap="round" stroke-linejoin="round" stroke-miterlimit="10" d="
		M70.174,56.295c1.059-0.042,1.65,0.127,1.65,1.396c0,1.269,0,10.916,0,10.916s-0.127,0.932-1.311,0.932c-1.186,0-13.414,0-13.414,0
		s-1.213,0.127-1.242-0.932c-0.027-1.058-0.01-10.233-0.004-10.587c0.004-0.354-0.221-1.731,1.5-1.726
		C58.581,56.299,69.116,56.338,70.174,56.295z"/>
	<g>
		<circle fill="#395498" cx="63.909" cy="61.068" r="1.424"/>
		<path fill="#395498" d="M64.893,64.529c0,0.697-0.441,1.264-0.984,1.264l0,0c-0.543,0-0.984-0.566-0.984-1.264v-2.324
			c0-0.698,0.441-1.264,0.984-1.264l0,0c0.543,0,0.984,0.565,0.984,1.264V64.529z"/>
	</g>
	<linearGradient id="SVGID_3_" gradientUnits="userSpaceOnUse" x1="36.9458" y1="59.9014" x2="87.1978" y2="59.9014">
		<stop  offset="0" style="stop-color:#20335E"/>
		<stop  offset="0.2892" style="stop-color:#3757A0"/>
		<stop  offset="0.5901" style="stop-color:#2181C5"/>
		<stop  offset="1" style="stop-color:#1A8DD0"/>
	</linearGradient>
	<path fill-rule="evenodd" clip-rule="evenodd" fill="url(#SVGID_3_)" d="M87.198,52.055c-0.158,3.71-0.023,7.462-0.535,11.122
		c-1.15,8.209-5.455,14.515-12.596,18.712c-3.568,2.098-7.342,3.854-11.074,5.655c-0.719,0.348-1.783,0.475-2.518,0.218
		c-6.496-2.278-12.424-5.557-17-10.809c-4.223-4.85-6.215-10.693-6.43-17.051C36.85,54.069,37,48.226,37.006,42.387
		c0-1.609,0.338-2.091,1.869-2.674c6.676-2.545,13.342-5.117,20.047-7.586c0.814-0.3,1.932-0.292,2.75,0.008
		c7.717,2.824,15.398,5.741,23.09,8.636c2.057,0.773,2.283,1.116,2.283,3.36c0,2.639,0,5.278,0,7.918
		C87.096,52.051,87.147,52.053,87.198,52.055z M43.366,52.005c0,2.398-0.088,4.801,0.018,7.194
		c0.254,5.822,1.881,11.194,5.828,15.616c3.951,4.427,9.047,7.152,14.518,9.223c0.416,0.157,1.057,0.037,1.477-0.18
		c3.043-1.572,6.186-3.002,9.053-4.854c6.443-4.164,9.822-10.356,10.357-17.886c0.408-5.728,0.189-11.5,0.191-17.253
		c0-0.319-0.473-0.796-0.828-0.933c-6.404-2.465-12.82-4.898-19.248-7.301c-0.438-0.163-1.037-0.178-1.471-0.016
		c-6.389,2.389-12.76,4.827-19.145,7.226c-0.588,0.221-0.771,0.519-0.764,1.129C43.383,46.648,43.366,49.327,43.366,52.005z"/>
</g>
</svg>
