<?xml version="1.0" encoding="utf-8"?>
<!-- Generator: Adobe Illustrator 16.0.0, SVG Export Plug-In . SVG Version: 6.00 Build 0)  -->
<!DOCTYPE svg PUBLIC "-//W3C//DTD SVG 1.1//EN" "http://www.w3.org/Graphics/SVG/1.1/DTD/svg11.dtd">
<svg version="1.1" id="Layer_1" xmlns="http://www.w3.org/2000/svg" xmlns:xlink="http://www.w3.org/1999/xlink" x="0px" y="0px"
	 width="113.606px" height="113.6px" viewBox="0 0 113.606 113.6" enable-background="new 0 0 113.606 113.6" xml:space="preserve">
<g>
	<path opacity="0.1" fill-rule="evenodd" clip-rule="evenodd" fill="#008DD0" d="M20.714,58.508c0-6.057-0.002-12.113,0.002-18.17
		c0-2.602,1.125-4.572,3.377-5.875c10.5-6.066,21.004-12.13,31.508-18.188c2.232-1.288,4.49-1.295,6.723-0.009
		c10.506,6.058,21.008,12.122,31.508,18.188c2.275,1.315,3.395,3.304,3.395,5.929c0,12.072-0.002,24.146,0,36.218
		c0.002,2.678-1.164,4.664-3.482,6c-10.33,5.959-20.67,11.905-30.98,17.901c-2.547,1.48-4.965,1.52-7.52,0.034
		c-10.365-6.021-20.758-11.995-31.137-17.991c-2.252-1.301-3.389-3.266-3.391-5.869C20.712,70.62,20.714,64.564,20.714,58.508z"/>
	<linearGradient id="SVGID_1_" gradientUnits="userSpaceOnUse" x1="41.9365" y1="47.8198" x2="65.0679" y2="47.8198">
		<stop  offset="0" style="stop-color:#20335E"/>
		<stop  offset="0.2892" style="stop-color:#3757A0"/>
		<stop  offset="0.5901" style="stop-color:#2181C5"/>
		<stop  offset="1" style="stop-color:#1A8DD0"/>
	</linearGradient>
	<path fill-rule="evenodd" clip-rule="evenodd" fill="url(#SVGID_1_)" d="M53.521,48.942c-3.277,0-6.555,0.002-9.832-0.002
		c-0.803-0.002-1.734,0.099-1.752-1.084c-0.016-1.154,0.871-1.156,1.703-1.156c6.596,0,13.189,0.003,19.785-0.004
		c0.818,0,1.617,0.079,1.643,1.109c0.027,1.05-0.771,1.142-1.592,1.139C60.157,48.936,56.839,48.941,53.521,48.942z"/>
	<linearGradient id="SVGID_2_" gradientUnits="userSpaceOnUse" x1="41.917" y1="58.3188" x2="65.0894" y2="58.3188">
		<stop  offset="0" style="stop-color:#20335E"/>
		<stop  offset="0.2892" style="stop-color:#3757A0"/>
		<stop  offset="0.5901" style="stop-color:#2181C5"/>
		<stop  offset="1" style="stop-color:#1A8DD0"/>
	</linearGradient>
	<path fill-rule="evenodd" clip-rule="evenodd" fill="url(#SVGID_2_)" d="M53.603,57.22c3.318,0,6.637,0.011,9.955-0.009
		c0.809-0.004,1.51,0.15,1.531,1.089c0.021,0.95-0.678,1.126-1.488,1.125c-6.715-0.01-13.432-0.011-20.148,0.001
		c-0.807,0.002-1.523-0.164-1.535-1.092c-0.014-1.033,0.781-1.125,1.609-1.121C46.886,57.229,50.243,57.22,53.603,57.22z"/>
	<linearGradient id="SVGID_3_" gradientUnits="userSpaceOnUse" x1="41.936" y1="52.999" x2="65.0693" y2="52.999">
		<stop  offset="0" style="stop-color:#20335E"/>
		<stop  offset="0.2892" style="stop-color:#3757A0"/>
		<stop  offset="0.5901" style="stop-color:#2181C5"/>
		<stop  offset="1" style="stop-color:#1A8DD0"/>
	</linearGradient>
	<path fill-rule="evenodd" clip-rule="evenodd" fill="url(#SVGID_3_)" d="M53.479,51.9c3.355,0,6.711,0.009,10.066-0.006
		c0.787-0.004,1.523,0.079,1.523,1.063c0.002,0.934-0.676,1.146-1.488,1.146c-6.711-0.007-13.422-0.007-20.135-0.001
		c-0.789,0.001-1.488-0.13-1.51-1.105c-0.023-1.006,0.682-1.105,1.475-1.103C46.767,51.907,50.124,51.901,53.479,51.9z"/>
	<linearGradient id="SVGID_4_" gradientUnits="userSpaceOnUse" x1="42.1465" y1="63.6187" x2="65.3159" y2="63.6187">
		<stop  offset="0" style="stop-color:#20335E"/>
		<stop  offset="0.2892" style="stop-color:#3757A0"/>
		<stop  offset="0.5901" style="stop-color:#2181C5"/>
		<stop  offset="1" style="stop-color:#1A8DD0"/>
	</linearGradient>
	<path fill-rule="evenodd" clip-rule="evenodd" fill="url(#SVGID_4_)" d="M53.802,62.5c3.316,0,6.635,0.007,9.951-0.005
		c0.783-0.003,1.538,0.1,1.562,1.054c0.026,1.009-0.735,1.194-1.575,1.194c-6.675-0.004-13.35-0.003-20.024-0.002
		c-0.844,0-1.599-0.223-1.568-1.215c0.029-0.96,0.811-1.032,1.582-1.03C47.087,62.504,50.444,62.499,53.802,62.5z"/>
	<linearGradient id="SVGID_5_" gradientUnits="userSpaceOnUse" x1="34.2192" y1="58.5918" x2="72.9175" y2="58.5918">
		<stop  offset="0" style="stop-color:#20335E"/>
		<stop  offset="0.2892" style="stop-color:#3757A0"/>
		<stop  offset="0.5901" style="stop-color:#2181C5"/>
		<stop  offset="1" style="stop-color:#1A8DD0"/>
	</linearGradient>
	
		<path fill-rule="evenodd" clip-rule="evenodd" fill="none" stroke="url(#SVGID_5_)" stroke-width="2.2" stroke-linecap="round" stroke-linejoin="round" stroke-miterlimit="10" d="
		M41.567,35.909c0,0-6.248-0.75-6.248,6.5s0,33,0,33s-0.1,5.891,6.095,5.75c0,0,21.03,0.151,24.78,0.141s5.625-1.143,5.623-6.142
		c-0.004-6.233-0.008-28.462,0-33.494c0.002-1.962-0.744-5.876-7.08-5.777C57.694,35.996,41.567,35.909,41.567,35.909z"/>
	<linearGradient id="SVGID_6_" gradientUnits="userSpaceOnUse" x1="43.1611" y1="72.6655" x2="54.6201" y2="72.6655">
		<stop  offset="0" style="stop-color:#20335E"/>
		<stop  offset="0.2892" style="stop-color:#3757A0"/>
		<stop  offset="0.5901" style="stop-color:#2181C5"/>
		<stop  offset="1" style="stop-color:#1A8DD0"/>
	</linearGradient>
	
		<path fill-rule="evenodd" clip-rule="evenodd" fill="none" stroke="url(#SVGID_6_)" stroke-linecap="round" stroke-linejoin="round" stroke-miterlimit="10" d="
		M43.661,73.682c0,0,1.739,0.358,2.098-0.479c0.359-0.837,1.077-2.393,1.077-2.393s-1.436,1.914,0,2.513
		c1.437,0.598,2.513,0.119,2.752-0.239c0.239-0.359,1.556-1.556,1.556-1.556l-0.479,2.229l1.312,0.762l2.143-0.958l-8.361,0.958"/>
	<linearGradient id="SVGID_7_" gradientUnits="userSpaceOnUse" x1="42.0464" y1="76.6226" x2="55.7358" y2="76.6226">
		<stop  offset="0" style="stop-color:#20335E"/>
		<stop  offset="0.2892" style="stop-color:#3757A0"/>
		<stop  offset="0.5901" style="stop-color:#2181C5"/>
		<stop  offset="1" style="stop-color:#1A8DD0"/>
	</linearGradient>
	
		<line fill-rule="evenodd" clip-rule="evenodd" fill="none" stroke="url(#SVGID_7_)" stroke-width="2.2" stroke-linecap="round" stroke-linejoin="round" stroke-miterlimit="10" x1="43.146" y1="76.623" x2="54.636" y2="76.623"/>
	<g>
		<linearGradient id="SVGID_8_" gradientUnits="userSpaceOnUse" x1="78.6953" y1="65.7378" x2="84.8818" y2="65.7378">
			<stop  offset="0" style="stop-color:#20335E"/>
			<stop  offset="0.2892" style="stop-color:#3757A0"/>
			<stop  offset="0.5901" style="stop-color:#2181C5"/>
			<stop  offset="1" style="stop-color:#1A8DD0"/>
		</linearGradient>
		<path fill-rule="evenodd" clip-rule="evenodd" fill="url(#SVGID_8_)" d="M78.713,52.174c2.074,1.323,4.09,1.124,6.141-0.059
			c0.011,0.212,0.035,0.385,0.026,0.555c-0.158,3.218-0.329,6.435-0.481,9.652c-0.17,3.618-0.325,7.238-0.487,10.856
			c-0.046,1.025-0.052,2.055-0.147,3.075c-0.087,0.912-0.373,1.78-0.93,2.528c-0.569,0.764-1.53,0.772-2.102,0.009
			c-0.572-0.765-0.886-1.656-0.938-2.596c-0.149-2.662-0.241-5.327-0.362-7.992c-0.181-3.983-0.366-7.968-0.552-11.951
			c-0.059-1.249-0.124-2.498-0.184-3.747C78.691,52.414,78.705,52.322,78.713,52.174z"/>
		<linearGradient id="SVGID_9_" gradientUnits="userSpaceOnUse" x1="78.8169" y1="45.6763" x2="84.7598" y2="45.6763">
			<stop  offset="0" style="stop-color:#20335E"/>
			<stop  offset="0.2892" style="stop-color:#3757A0"/>
			<stop  offset="0.5901" style="stop-color:#2181C5"/>
			<stop  offset="1" style="stop-color:#1A8DD0"/>
		</linearGradient>
		<path fill-rule="evenodd" clip-rule="evenodd" fill="url(#SVGID_9_)" d="M81.64,52.203c-1.051,0.003-1.962-0.372-2.747-1.051
			c-0.086-0.074-0.088-0.303-0.059-0.444c0.245-1.189,0.512-2.374,0.761-3.562c0.029-0.14,0.02-0.297-0.01-0.438
			c-0.153-0.739-0.328-1.474-0.472-2.215c-0.026-0.136,0.034-0.303,0.095-0.437c0.695-1.537,1.392-3.072,2.11-4.598
			c0.069-0.147,0.292-0.312,0.441-0.309s0.363,0.173,0.433,0.323c0.725,1.574,1.435,3.156,2.124,4.746
			c0.094,0.218,0.145,0.53,0.061,0.735c-0.493,1.211-0.495,2.396-0.066,3.636c0.237,0.684,0.287,1.432,0.433,2.148
			c0.051,0.251-0.013,0.401-0.244,0.541C83.616,51.813,82.69,52.197,81.64,52.203z M82.276,41.832
			c-0.023,0.004-0.048,0.008-0.071,0.013c0,0.134,0,0.269,0,0.403c0.004,0.578,0.002,1.155,0.013,1.733
			c0.007,0.307-0.11,0.509-0.427,0.538c-0.275,0.024-0.445-0.191-0.448-0.551c-0.004-0.46,0.004-0.92-0.003-1.38
			c-0.004-0.259-0.027-0.518-0.042-0.776c-0.469,0.843-0.86,1.694-1.251,2.547c-0.019,0.041-0.035,0.094-0.026,0.136
			c0.112,0.536,0.23,1.071,0.349,1.613c0.88,0,1.717,0.004,2.553-0.005c0.086-0.002,0.23-0.064,0.248-0.127
			c0.188-0.684,0.515-1.334,0.057-2.078C82.831,43.257,82.587,42.524,82.276,41.832z"/>
	</g>
</g>
</svg>
