<?xml version="1.0" encoding="utf-8"?>
<!-- Generator: Adobe Illustrator 16.0.0, SVG Export Plug-In . SVG Version: 6.00 Build 0)  -->
<!DOCTYPE svg PUBLIC "-//W3C//DTD SVG 1.1//EN" "http://www.w3.org/Graphics/SVG/1.1/DTD/svg11.dtd">
<svg version="1.1" id="Layer_1" xmlns="http://www.w3.org/2000/svg" xmlns:xlink="http://www.w3.org/1999/xlink" x="0px" y="0px"
	 width="113.606px" height="113.6px" viewBox="0 0 113.606 113.6" enable-background="new 0 0 113.606 113.6" xml:space="preserve">
<path opacity="0.1" fill-rule="evenodd" clip-rule="evenodd" fill="#008DD0" d="M18.547,56.839c0-6.057-0.002-12.111,0.001-18.168
	c0.001-2.604,1.126-4.574,3.378-5.875c10.5-6.068,21.003-12.131,31.508-18.189c2.232-1.287,4.49-1.295,6.723-0.008
	c10.506,6.057,21.008,12.121,31.508,18.188c2.275,1.314,3.394,3.305,3.394,5.93c0,12.072-0.001,24.145,0.001,36.217
	c0.001,2.678-1.165,4.664-3.482,6c-10.331,5.959-20.671,11.906-30.981,17.9c-2.546,1.48-4.964,1.521-7.52,0.035
	C42.711,92.847,32.319,86.874,21.94,80.876c-2.252-1.301-3.389-3.264-3.391-5.867C18.544,68.952,18.547,62.896,18.547,56.839z"/>
<g>
	<linearGradient id="SVGID_1_" gradientUnits="userSpaceOnUse" x1="35.5474" y1="52.54" x2="49.0649" y2="52.54">
		<stop  offset="0" style="stop-color:#20335E"/>
		<stop  offset="0.2892" style="stop-color:#3757A0"/>
		<stop  offset="0.5077" style="stop-color:#335FA7"/>
		<stop  offset="0.8454" style="stop-color:#2775BA"/>
		<stop  offset="1" style="stop-color:#2181C5"/>
	</linearGradient>
	<circle fill="url(#SVGID_1_)" cx="42.306" cy="52.541" r="6.759"/>
	<linearGradient id="SVGID_2_" gradientUnits="userSpaceOnUse" x1="30.061" y1="68.5342" x2="54.6689" y2="68.5342">
		<stop  offset="0" style="stop-color:#20335E"/>
		<stop  offset="0.2892" style="stop-color:#3757A0"/>
		<stop  offset="0.5077" style="stop-color:#335FA7"/>
		<stop  offset="0.8454" style="stop-color:#2775BA"/>
		<stop  offset="1" style="stop-color:#2181C5"/>
	</linearGradient>
	<path fill="url(#SVGID_2_)" d="M30.061,76.297v-8.969c0,0,1.473-6.557,9.369-6.557c7.895,0,7.895,0,7.895,0s6.96,1.205,7.226,6.557
		c0.268,5.355,0,8.969,0,8.969H30.061z"/>
</g>
<linearGradient id="SVGID_3_" gradientUnits="userSpaceOnUse" x1="52.3423" y1="49.5547" x2="88.3628" y2="49.5547">
	<stop  offset="0" style="stop-color:#2181C5"/>
	<stop  offset="1" style="stop-color:#1A8DD0"/>
</linearGradient>
<path fill-rule="evenodd" clip-rule="evenodd" fill="url(#SVGID_3_)" d="M86.875,43.231c-1.825-3.257-4.408-5.611-7.965-6.772
	c-3.522-1.15-6.979-0.896-10.43,0.649c0,0-1.694,1.008-2.179,1.363c-2.607,1.915-4.32,4.464-5.113,7.598
	c-0.275,1.085-0.401,2.208-0.618,3.45c-2.712,0-5.438,0-8.164,0c-0.022,0.074-0.043,0.149-0.064,0.223
	c0.206,0.154,0.401,0.326,0.62,0.457c2.197,1.325,4.383,2.672,6.604,3.954c1.51,0.872,2.719,1.992,3.739,3.427
	c2.625,3.691,6.232,5.653,10.807,5.779c7.411,0.203,13.498-5.164,14.19-12.522c0.192-2.033-0.09-4.007-0.714-5.947L86.875,43.231z
	 M80.199,60.282c-4.259,2.303-10.006,1.663-13.521-1.548c-0.74-0.676-1.468-1.412-2.012-2.244c-1.068-1.633-2.45-2.862-4.145-3.789
	c-0.738-0.403-1.438-0.879-2.157-1.32c0.024-0.068,0.048-0.136,0.071-0.205c1.273,0,2.547,0,3.797,0
	c0.182-1.456,0.269-2.859,0.544-4.225c1.125-5.562,6.301-9.62,12.001-9.475c5.791,0.148,10.76,4.418,11.669,10.027
	C87.296,52.755,84.845,57.771,80.199,60.282z"/>
<g>
	<linearGradient id="SVGID_4_" gradientUnits="userSpaceOnUse" x1="70.3521" y1="50.1108" x2="79.5093" y2="50.1108">
		<stop  offset="0" style="stop-color:#2181C5"/>
		<stop  offset="1" style="stop-color:#1A8DD0"/>
	</linearGradient>
	<path fill="url(#SVGID_4_)" d="M73.877,51.623c0-3.38,3.442-2.378,3.442-4.818c0-1.378-0.982-1.982-2.4-1.982
		c-1.647,0-2.357,0.876-2.357,2.462h-2.21c0-2.878,1.794-4.548,4.484-4.548c2.504,0,4.673,1.419,4.673,4.11
		c0,3.775-3.504,3.379-3.504,4.797v1.481h-2.128V51.623z M73.605,54.773h2.732v2.712h-2.732V54.773z"/>
</g>
</svg>
