<?xml version="1.0" encoding="utf-8"?>
<!-- Generator: Adobe Illustrator 16.0.0, SVG Export Plug-In . SVG Version: 6.00 Build 0)  -->
<!DOCTYPE svg PUBLIC "-//W3C//DTD SVG 1.1//EN" "http://www.w3.org/Graphics/SVG/1.1/DTD/svg11.dtd">
<svg version="1.1" id="Layer_1" xmlns="http://www.w3.org/2000/svg" xmlns:xlink="http://www.w3.org/1999/xlink" x="0px" y="0px"
	 width="113.606px" height="113.6px" viewBox="0 0 113.606 113.6" enable-background="new 0 0 113.606 113.6" xml:space="preserve">
<g>
	<path opacity="0.1" fill-rule="evenodd" clip-rule="evenodd" fill="#008DD0" d="M18.548,58.741c0-6.057-0.002-12.113,0.002-18.169
		c0-2.603,1.125-4.573,3.377-5.875c10.5-6.067,21.003-12.13,31.508-18.189c2.232-1.288,4.49-1.295,6.723-0.008
		c10.506,6.057,21.008,12.122,31.508,18.188c2.275,1.315,3.395,3.304,3.395,5.929c0,12.073-0.002,24.145,0,36.217
		c0.002,2.678-1.164,4.664-3.482,6c-10.33,5.959-20.67,11.906-30.98,17.901c-2.547,1.48-4.965,1.521-7.521,0.034
		C42.712,94.748,32.319,88.775,21.94,82.778c-2.252-1.301-3.389-3.265-3.391-5.868C18.545,70.854,18.548,64.797,18.548,58.741z"/>
	<linearGradient id="SVGID_1_" gradientUnits="userSpaceOnUse" x1="42.4805" y1="46.2915" x2="50.9829" y2="46.2915">
		<stop  offset="0" style="stop-color:#20335E"/>
		<stop  offset="1" style="stop-color:#3757A0"/>
	</linearGradient>
	<path fill-rule="evenodd" clip-rule="evenodd" fill="url(#SVGID_1_)" d="M46.767,50.333c-0.96,0.001-1.92-0.02-2.879,0.007
		c-0.889,0.025-1.381-0.373-1.391-1.258c-0.021-1.879-0.025-3.76,0.004-5.639c0.012-0.752,0.447-1.181,1.223-1.183
		c2.039-0.006,4.082-0.06,6.115,0.052c0.394,0.022,1.05,0.69,1.074,1.091c0.113,1.913,0.058,3.836,0.047,5.756
		c-0.004,0.773-0.401,1.178-1.193,1.173C48.767,50.328,47.767,50.332,46.767,50.333z"/>
	<linearGradient id="SVGID_2_" gradientUnits="userSpaceOnUse" x1="33.0386" y1="57.4941" x2="80.5693" y2="57.4941">
		<stop  offset="0" style="stop-color:#20335E"/>
		<stop  offset="0.2892" style="stop-color:#3757A0"/>
		<stop  offset="0.5901" style="stop-color:#2181C5"/>
		<stop  offset="1" style="stop-color:#1A8DD0"/>
	</linearGradient>
	<path fill-rule="evenodd" clip-rule="evenodd" fill="url(#SVGID_2_)" d="M33.087,57.654c0-6.995,0.107-13.994-0.047-20.986
		c-0.072-3.249,2.369-5.68,5.416-6.055c0.672-0.083,1.354-0.115,2.032-0.116c11.034-0.007,22.067-0.007,33.101-0.004
		c4.475,0.001,6.979,2.507,6.979,6.98c0.002,13.432,0.008,26.864-0.014,40.297c-0.002,0.948-0.111,1.924-0.355,2.839
		c-0.723,2.721-2.309,3.885-5.127,3.886c-12.232,0.001-24.465,0.002-36.698-0.001c-3.399,0-5.278-1.857-5.282-5.252
		C33.081,72.047,33.087,64.851,33.087,57.654z M35.288,57.721c0,7.037-0.004,14.075,0.001,21.113c0.002,2.59,0.847,3.42,3.446,3.42
		c12.075,0,24.152,0,36.227-0.001c1.965,0,2.836-0.698,3.211-2.635c0.113-0.584,0.146-1.191,0.146-1.788
		c0.008-13.436,0.01-26.87,0.004-40.305c0-3.322-1.498-4.789-4.857-4.79c-10.998-0.001-21.994-0.001-32.99,0.002
		c-0.559,0-1.123-0.006-1.676,0.069c-1.783,0.241-3.593,1.483-3.551,4.043C35.361,43.805,35.288,50.763,35.288,57.721z"/>
	<linearGradient id="SVGID_3_" gradientUnits="userSpaceOnUse" x1="37.5586" y1="57.5352" x2="75.9351" y2="57.5352">
		<stop  offset="0" style="stop-color:#20335E"/>
		<stop  offset="0.2892" style="stop-color:#3757A0"/>
		<stop  offset="0.5901" style="stop-color:#2181C5"/>
		<stop  offset="1" style="stop-color:#1A8DD0"/>
	</linearGradient>
	<path fill-rule="evenodd" clip-rule="evenodd" fill="url(#SVGID_3_)" d="M37.608,57.623c-0.002-5.477,0.123-10.958-0.047-16.429
		c-0.106-3.456,2.576-5.446,5.496-5.426c3.518,0.023,7.035,0.005,10.553,0.004c5.518,0,11.033-0.003,16.551,0.001
		c3.691,0.003,5.754,2.004,5.762,5.672c0.018,10.753,0.02,21.506-0.016,32.259c-0.004,0.979-0.191,1.996-0.504,2.924
		c-0.586,1.731-1.908,2.65-3.734,2.654c-9.953,0.021-19.907,0.027-29.861,0c-2.613-0.008-4.172-1.694-4.188-4.512
		C37.585,69.055,37.609,63.339,37.608,57.623z M39.808,57.672c0,5.598-0.012,11.197,0.007,16.795
		c0.007,1.992,0.622,2.583,2.585,2.584c9.557,0.004,19.115,0.004,28.672,0c1.66-0.002,2.316-0.567,2.549-2.206
		c0.072-0.511,0.064-1.037,0.064-1.556c0.004-5.599,0.002-11.197,0.002-16.795c0-5.079,0.014-10.158-0.008-15.236
		c-0.01-2.069-1.078-3.227-3.033-3.231c-9.238-0.023-18.475-0.023-27.713,0c-2.115,0.005-3.125,1.1-3.125,3.21
		C39.807,46.714,39.808,52.193,39.808,57.672z"/>
	<linearGradient id="SVGID_4_" gradientUnits="userSpaceOnUse" x1="42.4839" y1="57.4111" x2="50.9658" y2="57.4111">
		<stop  offset="0" style="stop-color:#20335E"/>
		<stop  offset="1" style="stop-color:#3757A0"/>
	</linearGradient>
	<path fill-rule="evenodd" clip-rule="evenodd" fill="url(#SVGID_4_)" d="M46.831,53.375c0.955,0,1.912,0.019,2.868-0.005
		c0.849-0.021,1.265,0.366,1.265,1.208c0.002,1.874-0.002,3.747,0.002,5.62c0.003,0.848-0.445,1.246-1.257,1.25
		c-1.992,0.011-3.985,0.012-5.978-0.002c-0.833-0.006-1.23-0.498-1.236-1.297c-0.014-1.833-0.017-3.666-0.001-5.5
		c0.007-0.865,0.438-1.309,1.348-1.28C44.837,53.399,45.834,53.375,46.831,53.375z"/>
	<linearGradient id="SVGID_5_" gradientUnits="userSpaceOnUse" x1="42.4805" y1="68.7344" x2="50.9727" y2="68.7344">
		<stop  offset="0" style="stop-color:#20335E"/>
		<stop  offset="1" style="stop-color:#3757A0"/>
	</linearGradient>
	<path fill-rule="evenodd" clip-rule="evenodd" fill="url(#SVGID_5_)" d="M46.821,64.656c0.916-0.001,1.834,0.013,2.75-0.005
		c0.938-0.018,1.406,0.396,1.399,1.356c-0.013,1.795-0.018,3.588,0.002,5.382c0.011,0.944-0.429,1.417-1.36,1.421
		c-1.913,0.008-3.826,0.012-5.74-0.004c-0.847-0.008-1.363-0.449-1.375-1.318c-0.023-1.834-0.021-3.668-0.002-5.5
		c0.01-0.852,0.442-1.335,1.336-1.332C44.828,64.66,45.825,64.658,46.821,64.656z"/>
	<linearGradient id="SVGID_6_" gradientUnits="userSpaceOnUse" x1="52.7871" y1="68.7285" x2="70.2158" y2="68.7285">
		<stop  offset="0" style="stop-color:#20335E"/>
		<stop  offset="0.2892" style="stop-color:#3757A0"/>
		<stop  offset="0.5901" style="stop-color:#2181C5"/>
		<stop  offset="1" style="stop-color:#1A8DD0"/>
	</linearGradient>
	<path fill-rule="evenodd" clip-rule="evenodd" fill="url(#SVGID_6_)" d="M61.534,67.613c2.398,0,4.797,0.012,7.195-0.006
		c0.822-0.006,1.49,0.209,1.486,1.141c-0.002,0.88-0.701,1.095-1.432,1.096c-4.877,0.01-9.754,0.008-14.631-0.007
		c-0.744-0.003-1.397-0.269-1.365-1.155c0.031-0.873,0.664-1.075,1.43-1.072C56.656,67.621,59.095,67.613,61.534,67.613z"/>
	<linearGradient id="SVGID_7_" gradientUnits="userSpaceOnUse" x1="52.7939" y1="57.3931" x2="70.2178" y2="57.3931">
		<stop  offset="0" style="stop-color:#20335E"/>
		<stop  offset="0.2892" style="stop-color:#3757A0"/>
		<stop  offset="0.5901" style="stop-color:#2181C5"/>
		<stop  offset="1" style="stop-color:#1A8DD0"/>
	</linearGradient>
	<path fill-rule="evenodd" clip-rule="evenodd" fill="url(#SVGID_7_)" d="M61.417,58.494c-2.395-0.001-4.787-0.008-7.18,0.004
		c-0.755,0.003-1.416-0.164-1.442-1.045c-0.028-0.93,0.597-1.17,1.437-1.166c4.826,0.016,9.652,0.016,14.479-0.001
		c0.814-0.003,1.502,0.174,1.508,1.105c0.006,0.942-0.699,1.113-1.504,1.108C66.282,58.483,63.849,58.494,61.417,58.494z"/>
	<linearGradient id="SVGID_8_" gradientUnits="userSpaceOnUse" x1="52.7925" y1="46.3145" x2="70.2139" y2="46.3145">
		<stop  offset="0" style="stop-color:#20335E"/>
		<stop  offset="0.2892" style="stop-color:#3757A0"/>
		<stop  offset="0.5901" style="stop-color:#2181C5"/>
		<stop  offset="1" style="stop-color:#1A8DD0"/>
	</linearGradient>
	<path fill-rule="evenodd" clip-rule="evenodd" fill="url(#SVGID_8_)" d="M61.526,47.414c-2.4,0-4.801-0.009-7.199,0.005
		c-0.797,0.005-1.513-0.136-1.534-1.089c-0.022-0.964,0.681-1.123,1.487-1.121c4.799,0.01,9.598,0.011,14.398-0.001
		c0.793-0.002,1.533,0.117,1.535,1.072c0.004,1.018-0.771,1.146-1.609,1.14C66.245,47.403,63.886,47.414,61.526,47.414z"/>
</g>
</svg>
