<?xml version="1.0" encoding="utf-8"?>
<!-- Generator: Adobe Illustrator 16.0.0, SVG Export Plug-In . SVG Version: 6.00 Build 0)  -->
<!DOCTYPE svg PUBLIC "-//W3C//DTD SVG 1.1//EN" "http://www.w3.org/Graphics/SVG/1.1/DTD/svg11.dtd">
<svg version="1.1" id="Layer_1" xmlns="http://www.w3.org/2000/svg" xmlns:xlink="http://www.w3.org/1999/xlink" x="0px" y="0px"
	 width="113.606px" height="113.6px" viewBox="0 0 113.606 113.6" enable-background="new 0 0 113.606 113.6" xml:space="preserve">
<g>
	<path opacity="0.1" fill-rule="evenodd" clip-rule="evenodd" fill="#008DD0" d="M19.548,57.878c0-6.057-0.002-12.113,0-18.17
		c0.002-2.602,1.125-4.572,3.379-5.875c10.5-6.066,21.002-12.13,31.506-18.188c2.234-1.288,4.49-1.295,6.723-0.009
		c10.508,6.058,21.01,12.122,31.51,18.188c2.275,1.315,3.393,3.304,3.393,5.929c0,12.072-0.002,24.146,0.002,36.218
		c0,2.678-1.166,4.664-3.482,6c-10.332,5.958-20.672,11.906-30.982,17.902c-2.547,1.48-4.963,1.52-7.52,0.033
		C43.71,93.884,33.318,87.912,22.939,81.915c-2.25-1.301-3.389-3.266-3.391-5.869C19.544,69.989,19.548,63.934,19.548,57.878z"/>
	<g>
		<linearGradient id="SVGID_1_" gradientUnits="userSpaceOnUse" x1="53.7583" y1="46.8994" x2="71.3643" y2="46.8994">
			<stop  offset="0" style="stop-color:#20335E"/>
			<stop  offset="0.2892" style="stop-color:#3757A0"/>
			<stop  offset="0.5901" style="stop-color:#2181C5"/>
			<stop  offset="1" style="stop-color:#1A8DD0"/>
		</linearGradient>
		<path fill-rule="evenodd" clip-rule="evenodd" fill="url(#SVGID_1_)" d="M62.575,48.021c-2.496,0-4.99,0.002-7.484-0.002
			c-0.611-0.002-1.32,0.099-1.332-1.084c-0.013-1.154,0.661-1.156,1.294-1.156c5.021,0,10.041,0.003,15.061-0.004
			c0.622,0,1.231,0.079,1.251,1.109c0.019,1.05-0.588,1.142-1.214,1.139C67.625,48.016,65.099,48.021,62.575,48.021z"/>
		<linearGradient id="SVGID_2_" gradientUnits="userSpaceOnUse" x1="53.7417" y1="59.6299" x2="71.3789" y2="59.6299">
			<stop  offset="0" style="stop-color:#20335E"/>
			<stop  offset="0.2892" style="stop-color:#3757A0"/>
			<stop  offset="0.5901" style="stop-color:#2181C5"/>
			<stop  offset="1" style="stop-color:#1A8DD0"/>
		</linearGradient>
		<path fill-rule="evenodd" clip-rule="evenodd" fill="url(#SVGID_2_)" d="M62.636,58.531c2.525,0,5.051,0.011,7.576-0.009
			c0.616-0.004,1.149,0.15,1.166,1.089c0.017,0.95-0.515,1.126-1.132,1.125c-5.112-0.01-10.225-0.011-15.337,0.001
			c-0.613,0.002-1.159-0.164-1.168-1.092c-0.011-1.033,0.595-1.125,1.227-1.121C57.523,58.54,60.081,58.531,62.636,58.531z"/>
		<linearGradient id="SVGID_3_" gradientUnits="userSpaceOnUse" x1="53.7559" y1="53.2026" x2="71.3647" y2="53.2026">
			<stop  offset="0" style="stop-color:#20335E"/>
			<stop  offset="0.2892" style="stop-color:#3757A0"/>
			<stop  offset="0.5901" style="stop-color:#2181C5"/>
			<stop  offset="1" style="stop-color:#1A8DD0"/>
		</linearGradient>
		<path fill-rule="evenodd" clip-rule="evenodd" fill="url(#SVGID_3_)" d="M62.542,52.104c2.554,0,5.107,0.009,7.661-0.006
			c0.6-0.004,1.16,0.079,1.161,1.063c0,0.934-0.516,1.146-1.134,1.146c-5.108-0.007-10.216-0.007-15.324-0.001
			c-0.602,0.001-1.134-0.13-1.15-1.105c-0.018-1.006,0.521-1.105,1.124-1.103C57.434,52.11,59.988,52.104,62.542,52.104z"/>
		<linearGradient id="SVGID_4_" gradientUnits="userSpaceOnUse" x1="53.917" y1="65.9014" x2="71.5518" y2="65.9014">
			<stop  offset="0" style="stop-color:#20335E"/>
			<stop  offset="0.2892" style="stop-color:#3757A0"/>
			<stop  offset="0.5901" style="stop-color:#2181C5"/>
			<stop  offset="1" style="stop-color:#1A8DD0"/>
		</linearGradient>
		<path fill-rule="evenodd" clip-rule="evenodd" fill="url(#SVGID_4_)" d="M62.789,64.782c2.523,0,5.05,0.007,7.573-0.005
			c0.597-0.003,1.171,0.1,1.189,1.054c0.021,1.009-0.56,1.194-1.199,1.194c-5.08-0.004-10.16-0.003-15.24-0.002
			c-0.643,0-1.217-0.223-1.194-1.215c0.022-0.96,0.617-1.032,1.204-1.03C57.677,64.787,60.233,64.781,62.789,64.782z"/>
		<linearGradient id="SVGID_5_" gradientUnits="userSpaceOnUse" x1="38.4541" y1="58.7959" x2="77.1523" y2="58.7959">
			<stop  offset="0" style="stop-color:#20335E"/>
			<stop  offset="0.2892" style="stop-color:#3757A0"/>
			<stop  offset="0.5901" style="stop-color:#2181C5"/>
			<stop  offset="1" style="stop-color:#1A8DD0"/>
		</linearGradient>
		
			<path fill-rule="evenodd" clip-rule="evenodd" fill="none" stroke="url(#SVGID_5_)" stroke-width="2.2" stroke-linecap="round" stroke-linejoin="round" stroke-miterlimit="10" d="
			M45.803,36.112c0,0-6.249-0.75-6.249,6.5s0,33,0,33s-0.1,5.891,6.096,5.75c0,0,21.029,0.151,24.779,0.141s5.627-1.143,5.623-6.142
			c-0.003-6.233-0.007-28.462,0-33.494c0.004-1.962-0.743-5.876-7.08-5.777C61.931,36.199,45.803,36.112,45.803,36.112z"/>
		<linearGradient id="SVGID_6_" gradientUnits="userSpaceOnUse" x1="44.917" y1="46.4434" x2="51.7832" y2="46.4434">
			<stop  offset="0" style="stop-color:#20335E"/>
			<stop  offset="0.2892" style="stop-color:#3757A0"/>
			<stop  offset="0.5901" style="stop-color:#2181C5"/>
			<stop  offset="1" style="stop-color:#1A8DD0"/>
		</linearGradient>
		
			<polyline fill-rule="evenodd" clip-rule="evenodd" fill="none" stroke="url(#SVGID_6_)" stroke-width="2.2" stroke-linecap="round" stroke-linejoin="round" stroke-miterlimit="10" points="
			46.017,46.899 47.35,48.545 50.683,44.342 		"/>
		<linearGradient id="SVGID_7_" gradientUnits="userSpaceOnUse" x1="44.5352" y1="53.2021" x2="51.4014" y2="53.2021">
			<stop  offset="0" style="stop-color:#20335E"/>
			<stop  offset="0.2892" style="stop-color:#3757A0"/>
			<stop  offset="0.5901" style="stop-color:#2181C5"/>
			<stop  offset="1" style="stop-color:#1A8DD0"/>
		</linearGradient>
		
			<polyline fill-rule="evenodd" clip-rule="evenodd" fill="none" stroke="url(#SVGID_7_)" stroke-width="2.2" stroke-linecap="round" stroke-linejoin="round" stroke-miterlimit="10" points="
			45.635,53.658 46.968,55.304 50.301,51.101 		"/>
		<linearGradient id="SVGID_8_" gradientUnits="userSpaceOnUse" x1="44.5352" y1="59.5166" x2="51.4014" y2="59.5166">
			<stop  offset="0" style="stop-color:#20335E"/>
			<stop  offset="0.2892" style="stop-color:#3757A0"/>
			<stop  offset="0.5901" style="stop-color:#2181C5"/>
			<stop  offset="1" style="stop-color:#1A8DD0"/>
		</linearGradient>
		
			<polyline fill-rule="evenodd" clip-rule="evenodd" fill="none" stroke="url(#SVGID_8_)" stroke-width="2.2" stroke-linecap="round" stroke-linejoin="round" stroke-miterlimit="10" points="
			45.635,59.973 46.968,61.618 50.301,57.415 		"/>
		<linearGradient id="SVGID_9_" gradientUnits="userSpaceOnUse" x1="44.5352" y1="65.9238" x2="51.4014" y2="65.9238">
			<stop  offset="0" style="stop-color:#20335E"/>
			<stop  offset="0.2892" style="stop-color:#3757A0"/>
			<stop  offset="0.5901" style="stop-color:#2181C5"/>
			<stop  offset="1" style="stop-color:#1A8DD0"/>
		</linearGradient>
		
			<polyline fill-rule="evenodd" clip-rule="evenodd" fill="none" stroke="url(#SVGID_9_)" stroke-width="2.2" stroke-linecap="round" stroke-linejoin="round" stroke-miterlimit="10" points="
			45.635,66.38 46.968,68.025 50.301,63.822 		"/>
		<linearGradient id="SVGID_10_" gradientUnits="userSpaceOnUse" x1="54.126" y1="72.8633" x2="71.7607" y2="72.8633">
			<stop  offset="0" style="stop-color:#20335E"/>
			<stop  offset="0.2892" style="stop-color:#3757A0"/>
			<stop  offset="0.5901" style="stop-color:#2181C5"/>
			<stop  offset="1" style="stop-color:#1A8DD0"/>
		</linearGradient>
		<path fill-rule="evenodd" clip-rule="evenodd" fill="url(#SVGID_10_)" d="M62.998,71.744c2.523,0,5.05,0.007,7.573-0.005
			c0.597-0.003,1.171,0.1,1.189,1.054c0.021,1.009-0.56,1.194-1.199,1.194c-5.08-0.004-10.16-0.003-15.24-0.002
			c-0.643,0-1.217-0.223-1.194-1.215c0.022-0.96,0.617-1.032,1.204-1.03C57.886,71.749,60.442,71.743,62.998,71.744z"/>
		<linearGradient id="SVGID_11_" gradientUnits="userSpaceOnUse" x1="44.7441" y1="72.8857" x2="51.6104" y2="72.8857">
			<stop  offset="0" style="stop-color:#20335E"/>
			<stop  offset="0.2892" style="stop-color:#3757A0"/>
			<stop  offset="0.5901" style="stop-color:#2181C5"/>
			<stop  offset="1" style="stop-color:#1A8DD0"/>
		</linearGradient>
		
			<polyline fill-rule="evenodd" clip-rule="evenodd" fill="none" stroke="url(#SVGID_11_)" stroke-width="2.2" stroke-linecap="round" stroke-linejoin="round" stroke-miterlimit="10" points="
			45.844,73.342 47.177,74.987 50.51,70.784 		"/>
	</g>
</g>
</svg>
