<?xml version="1.0" encoding="utf-8"?>
<!-- Generator: Adobe Illustrator 16.0.0, SVG Export Plug-In . SVG Version: 6.00 Build 0)  -->
<!DOCTYPE svg PUBLIC "-//W3C//DTD SVG 1.1//EN" "http://www.w3.org/Graphics/SVG/1.1/DTD/svg11.dtd">
<svg version="1.1" id="Layer_1" xmlns="http://www.w3.org/2000/svg" xmlns:xlink="http://www.w3.org/1999/xlink" x="0px" y="0px"
	 width="113.606px" height="113.6px" viewBox="0 0 113.606 113.6" enable-background="new 0 0 113.606 113.6" xml:space="preserve">
<g>
	<path opacity="0.1" fill-rule="evenodd" clip-rule="evenodd" fill="#008DD0" d="M18.548,59.033c0-6.057-0.002-12.113,0-18.17
		c0.002-2.602,1.127-4.572,3.379-5.875c10.5-6.066,21.002-12.131,31.508-18.189c2.233-1.287,4.491-1.295,6.724-0.008
		c10.506,6.057,21.008,12.121,31.507,18.188c2.275,1.316,3.393,3.305,3.393,5.93c0,12.072,0,24.145,0.002,36.217
		c0,2.678-1.166,4.664-3.482,6c-10.331,5.959-20.671,11.906-30.981,17.902c-2.545,1.48-4.963,1.52-7.521,0.033
		C42.712,95.039,32.319,89.066,21.94,83.07c-2.252-1.301-3.389-3.266-3.391-5.869C18.544,71.144,18.548,65.087,18.548,59.033z"/>
	<linearGradient id="SVGID_1_" gradientUnits="userSpaceOnUse" x1="26.7227" y1="53.5967" x2="59.7954" y2="53.5967">
		<stop  offset="0" style="stop-color:#20335E"/>
		<stop  offset="0.2892" style="stop-color:#3757A0"/>
		<stop  offset="0.5901" style="stop-color:#2181C5"/>
		<stop  offset="1" style="stop-color:#1A8DD0"/>
	</linearGradient>
	<linearGradient id="SVGID_2_" gradientUnits="userSpaceOnUse" x1="26.4727" y1="53.5967" x2="60.0454" y2="53.5967">
		<stop  offset="0" style="stop-color:#20335E"/>
		<stop  offset="0.2892" style="stop-color:#3757A0"/>
		<stop  offset="0.5901" style="stop-color:#2181C5"/>
		<stop  offset="1" style="stop-color:#1A8DD0"/>
	</linearGradient>
	
		<path fill-rule="evenodd" clip-rule="evenodd" fill="url(#SVGID_1_)" stroke="url(#SVGID_2_)" stroke-width="0.5" stroke-linecap="round" stroke-linejoin="round" stroke-miterlimit="10" d="
		M32.116,59.25c0.629-1.201,0.932-2.359,1.111-3.58c0.573-3.887,2.025-7.406,4.618-10.398c0.363-0.419,0.529-0.812,0.524-1.368
		c-0.029-2.63,0.031-5.261-0.029-7.889c-0.043-1.791,1.301-2.74,2.705-2.724c4.256,0.047,8.514,0.017,12.771,0.017
		c1.674,0.002,2.663,0.979,2.667,2.647c0.004,2.802,0.004,5.604-0.006,8.405c0,0.308,0.066,0.501,0.352,0.682
		c1.08,0.68,1.496,1.74,1.242,3.043c-0.045,0.229-0.109,0.452-0.176,0.718c1.006,0.483,1.785,1.184,1.889,2.362
		c0.104,1.174-0.512,1.988-1.507,2.609c0.497,0.612,0.786,1.292,0.667,2.079c-0.118,0.784-0.557,1.38-1.152,1.818
		c0.111,0.365,0.252,0.687,0.305,1.021c0.174,1.115-0.279,1.925-1.321,2.502c-0.18,0.1-0.355,0.293-0.431,0.484
		c-0.39,0.974-1.229,1.645-2.271,1.58c-0.994-0.062-1.712,0.169-2.411,0.975c-1.103,1.272-2.717,1.722-4.299,2.146
		c-1.132,0.303-2.269,0.593-3.384,0.946c-0.838,0.267-1.603,0.693-2.218,1.336c0.018,0.052,0.02,0.088,0.037,0.109
		c0.754,0.833,0.75,0.979-0.041,1.768c-0.978,0.971-1.955,1.94-2.934,2.909c-0.607,0.603-0.902,0.604-1.494,0.018
		c-3.379-3.352-6.756-6.703-10.133-10.055c-0.639-0.635-0.635-0.916,0.013-1.559c0.999-0.992,2-1.983,3.001-2.976
		c0.678-0.672,0.924-0.676,1.592-0.013C31.903,58.963,31.981,59.083,32.116,59.25z M39.878,43.446
		c0.546-0.081,1.087-0.263,1.611-0.222c1.598,0.125,2.553,1.533,2.209,3.168c-0.247,1.179-0.891,2.147-1.602,3.095
		c-0.741,0.985-1.418,2.021-2.111,3.04c-0.082,0.12-0.139,0.284-0.141,0.429c-0.006,1.11,0.008,2.221,0.014,3.332
		c0.002,0.165,0,0.329,0,0.505c3.522,0,6.973,0,10.471,0c-0.623-1.302-0.344-2.396,0.695-3.346
		c-0.713-0.628-1.111-1.374-1.012-2.329c0.103-0.967,0.702-1.6,1.488-2.12c-0.448-0.586-0.742-1.196-0.67-1.924
		c0.136-1.365,1.318-2.468,2.793-2.586c0.431-0.035,0.865-0.005,1.326-0.005c0-2.44,0-4.793,0-7.163c-5.039,0-10.047,0-15.072,0
		C39.878,39.407,39.878,41.454,39.878,43.446z M38.353,55.518c-0.981-0.071-1.232-0.471-0.869-1.34
		c0.82-1.96,1.921-3.752,3.24-5.417c0.436-0.548,0.844-1.131,1.168-1.748c0.209-0.399,0.311-0.887,0.344-1.343
		c0.043-0.628-0.542-1.084-1.158-0.934c-0.326,0.079-0.666,0.22-0.924,0.426c-0.463,0.367-0.914,0.768-1.293,1.22
		c-2.055,2.446-3.354,5.267-3.939,8.396c-0.333,1.782-0.57,3.583-1.459,5.202c-0.166,0.302-0.078,0.459,0.138,0.671
		c2.239,2.21,4.468,4.429,6.701,6.645c0.108,0.108,0.224,0.207,0.352,0.324c1.318-1.291,2.969-1.843,4.677-2.284
		c1.419-0.367,2.877-0.624,4.182-1.343c0.322-0.18,0.616-0.411,0.924-0.618c-0.02-0.032-0.039-0.064-0.057-0.096
		c-0.173,0-0.344,0-0.516,0c-3.021,0-6.041,0.005-9.061-0.003c-1.154-0.003-2.086-0.703-2.361-1.777
		c-0.076-0.298-0.082-0.619-0.084-0.93C38.35,58.898,38.353,57.225,38.353,55.518z M54.292,61.776
		c0.004-0.047,0.008-0.093,0.013-0.141c-0.958-0.006-1.87-0.155-2.636-0.775c-0.825-0.666-1.023-1.516-0.678-2.51
		c-3.734,0-7.406,0-11.131,0c0,0.758-0.002,1.489,0,2.222c0.002,0.925,0.28,1.204,1.201,1.204c4.24,0.002,8.481,0,12.723,0
		C53.953,61.776,54.122,61.776,54.292,61.776z M54.954,50.104c0-0.002,0-0.004,0-0.006c-0.625,0-1.251-0.001-1.875,0.001
		c-0.078,0-0.156,0.01-0.235,0.022c-0.764,0.118-1.351,0.677-1.344,1.28c0.007,0.585,0.579,1.129,1.319,1.255
		c0.047,0.008,0.094,0.015,0.141,0.015c1.281,0.002,2.565,0.034,3.847-0.008c0.841-0.028,1.499-0.649,1.491-1.285
		c-0.008-0.637-0.666-1.213-1.514-1.267C56.177,50.074,55.563,50.104,54.954,50.104z M39.905,35.741c5.012,0,10.023,0,15.037,0
		c-0.059-0.666-0.36-0.928-1.062-0.929c-4.194-0.002-8.387,0-12.58,0c-0.203,0-0.408-0.012-0.609,0.009
		C40.185,34.872,39.899,35.206,39.905,35.741z M54.485,56.811c0.002,0.018,0.002,0.037,0.004,0.054
		c0.635-0.051,1.283-0.041,1.904-0.168c0.648-0.132,1.053-0.647,1.064-1.152c0.016-0.529-0.391-1.003-1.053-1.224
		c-0.088-0.029-0.181-0.065-0.271-0.065c-1.107-0.004-2.217-0.048-3.32,0.014c-0.729,0.041-1.283,0.627-1.312,1.194
		c-0.027,0.584,0.459,1.109,1.209,1.296c0.134,0.033,0.277,0.048,0.417,0.05C53.58,56.814,54.032,56.811,54.485,56.811z
		 M54.887,48.595c0-0.014,0.001-0.027,0.001-0.041c0.359,0,0.726,0.043,1.075-0.017c0.196-0.034,0.47-0.205,0.526-0.374
		c0.317-0.961,0.192-1.775-0.885-2.05c-0.697-0.176-1.488-0.124-2.215-0.021c-0.654,0.096-1.059,0.65-1.068,1.152
		c-0.012,0.514,0.419,1.005,1.076,1.216c0.133,0.042,0.272,0.073,0.412,0.083C54.168,48.568,54.528,48.579,54.887,48.595z
		 M54.875,58.348c0-0.006,0-0.012,0-0.017c-0.297,0-0.604-0.054-0.888,0.012c-0.475,0.111-0.967,0.236-1.39,0.471
		c-0.38,0.21-0.346,0.551-0.018,0.847c0.716,0.643,3.042,0.645,3.784,0.016c0.301-0.254,0.342-0.594,0.211-0.889
		c-0.086-0.194-0.361-0.381-0.58-0.421C55.633,58.297,55.25,58.348,54.875,58.348z"/>
	<linearGradient id="SVGID_3_" gradientUnits="userSpaceOnUse" x1="70.8599" y1="79.3076" x2="73.0601" y2="79.3076">
		<stop  offset="0" style="stop-color:#2181C5"/>
		<stop  offset="1" style="stop-color:#1A8DD0"/>
	</linearGradient>
	
		<line fill-rule="evenodd" clip-rule="evenodd" fill="none" stroke="url(#SVGID_3_)" stroke-width="2.2" stroke-linecap="round" stroke-linejoin="round" stroke-miterlimit="10" x1="71.96" y1="86.452" x2="71.96" y2="72.164"/>
	<linearGradient id="SVGID_4_" gradientUnits="userSpaceOnUse" x1="56.1543" y1="72.1631" x2="87.7671" y2="72.1631">
		<stop  offset="0" style="stop-color:#20335E"/>
		<stop  offset="0.2892" style="stop-color:#3757A0"/>
		<stop  offset="0.5901" style="stop-color:#2181C5"/>
		<stop  offset="1" style="stop-color:#1A8DD0"/>
	</linearGradient>
	
		<path fill-rule="evenodd" clip-rule="evenodd" fill="none" stroke="url(#SVGID_4_)" stroke-width="2.2" stroke-linecap="round" stroke-linejoin="round" stroke-miterlimit="10" d="
		M58.999,63.964c0,0,10.096-5.236,11.342-5.733c1.246-0.498,2.119-0.623,4.486,0.623c2.368,1.246,8.728,4.424,10.344,5.11
		c0.67,0.282,1.496,0.996,1.496,3.326c0,3.153,0,10.631,0,10.631s-0.25,1.746-1.994,2.618c-1.745,0.871-11.217,5.606-11.217,5.606
		s-1.496,0.687-3.115,0c-1.619-0.684-9.485-4.61-10.977-5.481c-1.491-0.873-2.109-2.12-2.109-3.864s0.021-7.766,0-9.681
		C57.239,65.583,57.706,64.617,58.999,63.964z"/>
	<linearGradient id="SVGID_5_" gradientUnits="userSpaceOnUse" x1="56.7505" y1="68.5215" x2="87.2798" y2="68.5215">
		<stop  offset="0" style="stop-color:#20335E"/>
		<stop  offset="0.2892" style="stop-color:#3757A0"/>
		<stop  offset="0.5901" style="stop-color:#2181C5"/>
		<stop  offset="1" style="stop-color:#1A8DD0"/>
	</linearGradient>
	
		<polyline fill-rule="evenodd" clip-rule="evenodd" fill="none" stroke="url(#SVGID_5_)" stroke-width="2.2" stroke-linecap="round" stroke-linejoin="round" stroke-miterlimit="10" points="
		57.851,64.879 71.96,72.164 86.18,64.879 	"/>
	<linearGradient id="SVGID_6_" gradientUnits="userSpaceOnUse" x1="62.5605" y1="67.7129" x2="80.8193" y2="67.7129">
		<stop  offset="0" style="stop-color:#20335E"/>
		<stop  offset="0.2892" style="stop-color:#3757A0"/>
		<stop  offset="0.5901" style="stop-color:#2181C5"/>
		<stop  offset="1" style="stop-color:#1A8DD0"/>
	</linearGradient>
	<polygon fill-rule="evenodd" clip-rule="evenodd" fill="url(#SVGID_6_)" points="76.56,59.747 62.561,67.311 62.561,73.373 
		64.794,73.373 66.913,75.679 66.917,69.56 80.819,61.886 	"/>
</g>
</svg>
