<?xml version="1.0" encoding="utf-8"?>
<!-- Generator: Adobe Illustrator 16.0.0, SVG Export Plug-In . SVG Version: 6.00 Build 0)  -->
<!DOCTYPE svg PUBLIC "-//W3C//DTD SVG 1.1//EN" "http://www.w3.org/Graphics/SVG/1.1/DTD/svg11.dtd">
<svg version="1.1" id="Layer_1" xmlns="http://www.w3.org/2000/svg" xmlns:xlink="http://www.w3.org/1999/xlink" x="0px" y="0px"
	 width="113.606px" height="113.6px" viewBox="0 0 113.606 113.6" enable-background="new 0 0 113.606 113.6" xml:space="preserve">
<g>
	<path opacity="0.1" fill-rule="evenodd" clip-rule="evenodd" fill="#008DD0" d="M18.548,58.729c0-6.057-0.002-12.113,0-18.169
		c0.002-2.603,1.126-4.573,3.379-5.875c10.5-6.067,21.002-12.13,31.507-18.189c2.233-1.288,4.49-1.295,6.723-0.008
		c10.507,6.057,21.009,12.122,31.509,18.188c2.275,1.315,3.393,3.304,3.393,5.929c0,12.073-0.001,24.146,0.002,36.218
		c0,2.678-1.166,4.664-3.482,6c-10.332,5.959-20.672,11.905-30.982,17.901c-2.546,1.48-4.963,1.52-7.52,0.034
		c-10.364-6.021-20.757-11.995-31.136-17.991c-2.251-1.301-3.389-3.266-3.391-5.869C18.544,70.84,18.548,64.784,18.548,58.729z"/>
	<linearGradient id="SVGID_1_" gradientUnits="userSpaceOnUse" x1="28.0103" y1="59.2349" x2="85.9492" y2="59.2349">
		<stop  offset="0" style="stop-color:#20335E"/>
		<stop  offset="0.2892" style="stop-color:#3757A0"/>
		<stop  offset="0.5901" style="stop-color:#2181C5"/>
		<stop  offset="1" style="stop-color:#1A8DD0"/>
	</linearGradient>
	<path fill-rule="evenodd" clip-rule="evenodd" fill="url(#SVGID_1_)" d="M64.505,75.736c-0.361,1.096,0.092,1.346,0.955,1.326
		c1.398-0.031,2.799-0.021,4.197-0.003c1.356,0.018,1.626,0.291,1.631,1.61c0.008,1.84-0.016,3.678,0.009,5.518
		c0.013,0.966-0.441,1.39-1.378,1.389c-8.436-0.002-16.872-0.001-25.309-0.001c-0.949,0-1.367-0.495-1.363-1.425
		c0.01-1.879,0.023-3.758-0.005-5.637c-0.017-1.066,0.478-1.543,1.516-1.539c1.749,0.007,3.498,0.002,5.301,0.002
		c0-0.467,0-0.799,0-1.24c-0.495,0-0.927,0-1.358,0c-4.997,0-9.995,0.008-14.992-0.002c-3.809-0.008-5.656-1.872-5.657-5.676
		c-0.001-8.155,0.099-16.312-0.039-24.465c-0.077-4.617,2.956-6.103,6.118-6.565c0.544-0.079,1.092-0.133,1.688-0.205
		c0.05-0.795,0.057-1.51,0.145-2.215c0.241-1.939,1.539-3.284,3.47-3.592c0.59-0.094,1.194-0.116,1.792-0.116
		c10.755-0.007,21.51-0.014,32.265,0.012c0.904,0.002,1.855,0.105,2.701,0.401c1.754,0.613,2.66,1.962,2.773,3.818
		c0.033,0.55,0.005,1.104,0.005,1.687c0.753,0.162,1.415,0.278,2.063,0.449c2.681,0.706,4.998,3.51,4.915,6.435
		c-0.229,8.148-0.183,16.304-0.261,24.458c-0.034,3.637-2.025,5.576-5.675,5.576C74.858,75.736,69.706,75.736,64.505,75.736z
		 M57.405,58.256c5.635,0,11.269,0.001,16.903-0.001c1.689-0.001,2.235-0.509,2.257-2.188c0.078-5.951,0.146-11.902,0.201-17.853
		c0.021-2.33-0.721-3.071-3.084-3.073c-10.949-0.008-21.899-0.007-32.849,0c-2.087,0.002-2.7,0.639-2.701,2.742
		c-0.005,5.994-0.002,11.988-0.001,17.982c0,1.985,0.394,2.388,2.369,2.389C46.136,58.258,51.771,58.256,57.405,58.256z
		 M78.931,41.271c0,0.428,0.005,0.861,0,1.293c-0.053,4.597-0.094,9.194-0.166,13.791c-0.041,2.566-1.553,4.137-3.969,4.139
		c-11.52,0.008-23.038,0.01-34.557-0.002c-2.912-0.002-4.346-1.463-4.35-4.359c-0.004-4.519-0.001-9.039-0.001-13.558
		c0-0.458,0-0.917,0-1.367c-4.221-0.111-5.662,1.375-5.624,5.266c0.062,6.398,0.008,12.797,0.004,19.197
		c-0.001,1.03,0,2.061,0,3.151c17.762,0,35.417,0,53.138,0c0.032-0.377,0.078-0.687,0.081-0.996
		c0.057-7.398,0.115-14.794,0.158-22.192C83.66,43.065,81.669,41.195,78.931,41.271z M62.126,75.82c-3.314,0-6.525,0-9.772,0
		c0,0.8,0.134,1.552-0.047,2.219c-0.123,0.452-0.623,0.93-1.073,1.129c-0.434,0.194-1.02,0.049-1.539,0.05
		c-1.379,0.001-2.756,0-4.123,0c0,1.495,0,2.759,0,4.085c7.848,0,15.616,0,23.421,0c0-1.361,0-2.646,0-4.008
		c-1.373,0-2.65,0.033-3.925-0.008c-2.841-0.089-2.84-0.104-2.899-2.913C62.165,76.217,62.145,76.061,62.126,75.82z M83.245,71.188
		c-17.674,0-35.255,0-52.885,0c0.097,1.213,0.79,1.865,1.836,2.119c0.689,0.168,1.422,0.221,2.135,0.221
		c15.23,0.012,30.461,0.01,45.69,0.009c0.239,0,0.48,0.01,0.72-0.003C82.159,73.457,82.909,72.776,83.245,71.188z"/>
	<linearGradient id="SVGID_2_" gradientUnits="userSpaceOnUse" x1="51.8052" y1="46.7119" x2="64.1704" y2="46.7119">
		<stop  offset="0" style="stop-color:#20335E"/>
		<stop  offset="0.2892" style="stop-color:#3757A0"/>
		<stop  offset="0.5901" style="stop-color:#2181C5"/>
		<stop  offset="1" style="stop-color:#1A8DD0"/>
	</linearGradient>
	<path fill-rule="evenodd" clip-rule="evenodd" fill="url(#SVGID_2_)" d="M51.811,46.695c0-1.837-0.017-3.674,0.007-5.511
		c0.016-1.306,0.728-1.729,1.874-1.085c3.234,1.817,6.458,3.654,9.667,5.516c1.091,0.632,1.079,1.575-0.014,2.208
		c-3.213,1.859-6.434,3.703-9.67,5.519c-1.125,0.631-1.844,0.176-1.858-1.134C51.795,50.37,51.811,48.532,51.811,46.695z
		 M60.775,46.712l-6.679,3.809C56.33,49.248,58.436,48.047,60.775,46.712z"/>
	<linearGradient id="SVGID_3_" gradientUnits="userSpaceOnUse" x1="36.167" y1="64.5869" x2="79.8076" y2="64.5869">
		<stop  offset="0" style="stop-color:#20335E"/>
		<stop  offset="0.2892" style="stop-color:#3757A0"/>
		<stop  offset="0.5901" style="stop-color:#2181C5"/>
		<stop  offset="1" style="stop-color:#1A8DD0"/>
	</linearGradient>
	
		<line fill="none" stroke="url(#SVGID_3_)" stroke-width="2" stroke-linecap="round" stroke-miterlimit="10" x1="78.808" y1="64.587" x2="37.167" y2="64.587"/>
	<linearGradient id="SVGID_4_" gradientUnits="userSpaceOnUse" x1="41.3662" y1="64.5869" x2="45.7275" y2="64.5869">
		<stop  offset="0" style="stop-color:#20335E"/>
		<stop  offset="1" style="stop-color:#3757A0"/>
	</linearGradient>
	<circle fill="url(#SVGID_4_)" cx="43.547" cy="64.587" r="2.181"/>
</g>
</svg>
