<?xml version="1.0" encoding="utf-8"?>
<!-- Generator: Adobe Illustrator 16.0.0, SVG Export Plug-In . SVG Version: 6.00 Build 0)  -->
<!DOCTYPE svg PUBLIC "-//W3C//DTD SVG 1.1//EN" "http://www.w3.org/Graphics/SVG/1.1/DTD/svg11.dtd">
<svg version="1.1" id="Layer_1" xmlns="http://www.w3.org/2000/svg" xmlns:xlink="http://www.w3.org/1999/xlink" x="0px" y="0px"
	 width="113.606px" height="113.6px" viewBox="0 0 113.606 113.6" enable-background="new 0 0 113.606 113.6" xml:space="preserve">
<g>
	<path fill-rule="evenodd" clip-rule="evenodd" fill="#39549F" d="M97.404,46.574c0.043,0.396,0.077,0.777,0.111,1.159
		c0.388-0.244,0.775-0.488,1.167-0.734c-0.568-0.925-1.121-1.826-1.681-2.739C97.171,45.024,97.319,45.792,97.404,46.574z"/>
	<path fill-rule="evenodd" clip-rule="evenodd" fill="#39549F" d="M74.418,87.643c1.63-2.863,4.278-5.329,6.638-7.268
		c1.824-1.5,3.824-3.073,5.973-4.085c0.719-0.339,1.452-0.642,2.188-0.938c0.53-0.771,0.879-1.928,1.581-2.19
		c0.223-0.084,0.477-0.087,0.745-0.052c0.22-2.203,0.172-4.673,0.011-6.657c-0.303-3.728-2.864-6.749-3.5-10.425
		c-0.63-3.639-0.042-7.364-1.07-10.945c-0.526-1.832-1.024-3.625-1.408-5.442c-0.366,0.125-0.647,0.001-1.053-0.316
		c-1.845-1.439-3.722-2.842-5.669-4.128c-0.721-0.477-0.91-0.834-0.683-1.685c0.562-2.122,0.995-4.28,1.502-6.524
		c-4.279-1.015-8.447-2.005-12.704-3.014c-0.549,2.333-1.061,4.591-1.631,6.833c-0.08,0.314-0.418,0.757-0.684,0.797
		c-2.769,0.417-5.548,0.761-8.49,1.147c-1.204-1.946-2.545-4.124-3.916-6.349c-3.758,2.361-7.396,4.648-11.098,6.972
		c1.231,2.012,2.372,3.939,3.583,5.822c0.393,0.615,0.314,0.976-0.122,1.546c-1.397,1.835-2.774,3.699-4.008,5.649
		c-0.49,0.778-0.885,0.982-1.743,0.754c-2.099-0.556-4.224-1.018-6.397-1.53c-0.276,1.166-0.519,2.22-0.774,3.268
		c-0.739,3.049-1.481,6.097-2.223,9.145v0.451c2.51,0.606,5.024,1.212,7.343,1.774c0.373,2.385,0.642,4.618,1.09,6.812
		c0.447,2.195,0.525,2.176-1.423,3.402c-1.528,0.961-3.05,1.928-4.595,2.907c2.334,3.804,4.595,7.484,6.881,11.215
		c2.266-1.41,4.407-2.745,6.407-3.993c2.516,1.826,4.94,3.581,7.409,5.372c-0.547,2.379-1.115,4.845-1.705,7.416
		c4.278,1.011,8.475,2.004,12.728,3.013c0.545-2.361,1.022-4.553,1.579-6.726c0.096-0.363,0.503-0.865,0.828-0.914
		c2.731-0.431,5.476-0.771,8.381-1.163C74.398,87.611,74.409,87.627,74.418,87.643z M64.566,75.478
		c-9.016-0.59-15.154-7.799-14.351-16.86c0.716-8.116,7.682-14.041,15.561-13.773c9.05,0.346,15.293,8.172,14.64,16.45
		C79.741,69.868,72.567,76,64.566,75.478z"/>
	<path fill-rule="evenodd" clip-rule="evenodd" fill="#39549F" d="M85.175,89.662c1.414-0.888,2.826-1.773,4.245-2.664
		c-0.08-0.13-0.155-0.253-0.234-0.382C87.823,87.482,86.355,88.533,85.175,89.662z"/>
	<path fill-rule="evenodd" clip-rule="evenodd" fill="#A0A0A3" d="M73.956,93.616c0,0,0,7.107-4.676,7.1
		c-3.042-0.005-5.417,0-5.417,0l0.167-2.476L73.956,93.616z"/>
	<g>
		<g>
			<path fill-rule="evenodd" clip-rule="evenodd" fill="#A0A0A3" d="M64.217,98.24c0,0-48.448,0.019-49.298,0
				s-0.966-0.593-0.966-1.054c0-0.462,0-76.902,0-76.902s0-3.821,3.243-3.821c1.349,0,47.021,0,47.021,0V98.24z"/>
		</g>
		<g>
			<path fill-rule="evenodd" clip-rule="evenodd" fill="#A0A0A3" d="M64.217,100.708c0,0-48.448,0.019-49.298,0
				s-0.966-0.593-0.966-1.054c0-0.462,0-79.37,0-79.37s-0.124-1.354,1.225-1.354c1.349,0,49.039,0,49.039,0V100.708z"/>
		</g>
		<g>
			<defs>
				<polyline id="SVGID_1_" points="22.294,101.07 22.294,19.292 70.709,19.292 				"/>
			</defs>
			<use xlink:href="#SVGID_1_"  overflow="visible" fill-rule="evenodd" clip-rule="evenodd" fill="#A0A0A3"/>
			<clipPath id="SVGID_2_">
				<use xlink:href="#SVGID_1_"  overflow="visible"/>
			</clipPath>
			<path clip-path="url(#SVGID_2_)" fill-rule="evenodd" clip-rule="evenodd" fill="#A0A0A3" d="M70.709,97.349
				c0,2.159-2.467,3.909-5.511,3.909H19.464c-3.043,0-5.511-1.75-5.511-3.909V23.202c0-2.159,2.468-3.909,5.511-3.909h45.734
				c3.043,0,5.511,1.75,5.511,3.909V97.349z"/>
		</g>
	</g>
	<g>
		<path fill-rule="evenodd" clip-rule="evenodd" fill="#C6C6CC" d="M67.463,98.24c0,0-48.448,0.019-49.298,0
			s-0.966-0.593-0.966-1.054c0-0.462,0-79.37,0-79.37s-0.124-1.354,1.225-1.354c1.349,0,49.039,0,49.039,0V98.24z"/>
	</g>
	<path fill-rule="evenodd" clip-rule="evenodd" fill="#31AEE4" d="M32.965,58.028c0.742-3.048,1.483-6.095,2.223-9.145
		c0.255-1.048,0.498-2.103,0.774-3.268c2.173,0.513,4.298,0.975,6.397,1.53c0.858,0.229,1.253,0.024,1.743-0.754
		c1.234-1.951,2.611-3.814,4.008-5.649c0.437-0.571,0.515-0.931,0.122-1.546c-1.211-1.883-2.352-3.81-3.583-5.822
		c3.702-2.324,7.34-4.61,11.098-6.972c1.371,2.225,2.712,4.402,3.916,6.349c2.942-0.387,5.721-0.73,8.49-1.147
		c0.266-0.04,0.604-0.482,0.684-0.797c0.571-2.242,1.082-4.5,1.631-6.833c4.257,1.009,8.425,1.999,12.704,3.014
		c-0.508,2.244-0.94,4.402-1.502,6.524c-0.227,0.851-0.038,1.208,0.683,1.685c1.947,1.287,3.825,2.689,5.669,4.128
		c0.532,0.415,0.847,0.507,1.423,0.129c1.896-1.24,3.83-2.42,5.847-3.684c2.292,3.734,4.551,7.418,6.892,11.229
		c-2.21,1.391-4.366,2.748-6.313,3.973c0.399,2.974,0.758,5.786,1.19,8.586c0.042,0.273,0.483,0.613,0.798,0.694
		c2.187,0.563,4.388,1.065,6.728,1.621c-0.984,4.284-1.957,8.497-2.96,12.86c-1.555-0.36-3.051-0.712-4.549-1.055
		c-0.94-0.216-2.024-0.802-2.778-0.516c-0.719,0.27-1.067,1.483-1.621,2.252c-1.203,1.659-2.429,3.301-3.738,5.072
		c1.255,2.056,2.597,4.246,3.981,6.511c-3.693,2.318-7.338,4.605-11.103,6.967c-1.375-2.233-2.721-4.414-3.928-6.37
		c-2.905,0.392-5.65,0.732-8.381,1.163c-0.324,0.049-0.732,0.551-0.828,0.914c-0.556,2.172-1.034,4.364-1.579,6.726
		c-4.253-1.009-8.45-2.001-12.728-3.013c0.59-2.571,1.158-5.037,1.705-7.416c-2.469-1.791-4.893-3.546-7.409-5.372
		c-2,1.248-4.142,2.583-6.407,3.993c-2.287-3.731-4.547-7.412-6.881-11.215c1.545-0.979,3.066-1.946,4.595-2.907
		c1.949-1.227,1.871-1.207,1.423-3.402c-0.448-2.194-0.717-4.427-1.09-6.812c-2.319-0.562-4.833-1.167-7.343-1.774V58.028z
		 M69.276,44.844c-7.878-0.268-14.844,5.657-15.561,13.773c-0.803,9.062,5.335,16.271,14.351,16.86
		C76.067,76,83.241,69.868,83.916,61.294C84.569,53.017,78.326,45.19,69.276,44.844"/>
	<g>
		<defs>
			<rect id="SVGID_3_" x="25.541" y="16.462" width="48.415" height="81.778"/>
		</defs>
		<clipPath id="SVGID_4_">
			<use xlink:href="#SVGID_3_"  overflow="visible"/>
		</clipPath>
		<path clip-path="url(#SVGID_4_)" fill-rule="evenodd" clip-rule="evenodd" fill="#F0EFF8" d="M73.956,94.519
			c0,2.159-2.467,3.909-5.511,3.909H22.71c-3.043,0-5.511-1.75-5.511-3.909V20.372c0-2.159,2.468-3.909,5.511-3.909h45.734
			c3.043,0,5.511,1.75,5.511,3.909V94.519z"/>
	</g>
	<path fill-rule="evenodd" clip-rule="evenodd" fill="#F4BB43" d="M69.711,34.674c0,1.522-1.235,2.757-2.757,2.757H32.035
		c-1.522,0-2.757-1.234-2.757-2.757V27.38c0-1.523,1.234-2.757,2.757-2.757h34.919c1.522,0,2.757,1.234,2.757,2.757V34.674z"/>
</g>
</svg>
