<?xml version="1.0" encoding="utf-8"?>
<!-- Generator: Adobe Illustrator 16.0.0, SVG Export Plug-In . SVG Version: 6.00 Build 0)  -->
<!DOCTYPE svg PUBLIC "-//W3C//DTD SVG 1.1//EN" "http://www.w3.org/Graphics/SVG/1.1/DTD/svg11.dtd">
<svg version="1.1" id="Layer_1" xmlns="http://www.w3.org/2000/svg" xmlns:xlink="http://www.w3.org/1999/xlink" x="0px" y="0px"
	 width="113.606px" height="113.6px" viewBox="0 0 113.606 113.6" enable-background="new 0 0 113.606 113.6" xml:space="preserve">
<g>
	<g>
		<circle fill="#CB801B" cx="50.229" cy="56.8" r="38.903"/>
		<circle fill="#395499" cx="50.229" cy="56.685" r="32.563"/>
	</g>
	<g>
		<circle fill="#EEB543" cx="68.089" cy="56.8" r="38.903"/>
		<circle fill="#31A8DE" cx="68.088" cy="56.685" r="32.563"/>
	</g>
	<g>
		<path fill="#EEB543" d="M72.962,63.065c-0.001-0.528-0.078-0.993-0.232-1.395c-0.148-0.403-0.396-0.767-0.739-1.093
			c-0.344-0.325-0.787-0.626-1.326-0.902c-0.543-0.274-1.205-0.542-1.986-0.803c-1.341-0.462-2.561-0.945-3.656-1.45
			c-1.096-0.507-2.036-1.092-2.817-1.755c-0.783-0.666-1.39-1.444-1.824-2.336c-0.434-0.892-0.652-1.955-0.656-3.187
			c-0.005-1.069,0.183-2.048,0.563-2.93c0.381-0.88,0.926-1.65,1.634-2.307c0.71-0.658,1.56-1.193,2.551-1.604
			c0.991-0.413,2.103-0.679,3.333-0.796l-0.012-4.04l3.284-0.012l0.013,4.096c1.177,0.146,2.246,0.451,3.204,0.912
			c0.959,0.464,1.775,1.064,2.449,1.807c0.672,0.74,1.192,1.616,1.557,2.625c0.368,1.015,0.553,2.148,0.557,3.407l-5.933,0.021
			c-0.004-1.509-0.347-2.638-1.027-3.385c-0.679-0.746-1.585-1.118-2.722-1.115c-0.616,0.004-1.147,0.091-1.591,0.26
			c-0.443,0.173-0.809,0.408-1.096,0.702c-0.287,0.297-0.498,0.648-0.632,1.052c-0.136,0.403-0.204,0.837-0.201,1.303
			c0,0.465,0.071,0.887,0.21,1.264c0.137,0.377,0.374,0.727,0.71,1.045c0.335,0.32,0.78,0.62,1.336,0.902
			c0.556,0.282,1.245,0.571,2.066,0.87c1.328,0.488,2.538,0.986,3.627,1.498c1.09,0.513,2.025,1.104,2.807,1.773
			c0.783,0.673,1.393,1.454,1.825,2.346c0.435,0.891,0.653,1.947,0.657,3.169c0.004,1.106-0.188,2.103-0.575,2.985
			c-0.388,0.881-0.936,1.644-1.644,2.289c-0.709,0.645-1.567,1.165-2.573,1.559c-1.004,0.393-2.123,0.647-3.352,0.767l0.013,3.755
			l-3.265,0.013l-0.011-3.738c-1.138-0.11-2.236-0.351-3.297-0.724c-1.062-0.375-2.005-0.915-2.828-1.623
			c-0.823-0.708-1.481-1.602-1.979-2.684c-0.497-1.081-0.748-2.375-0.752-3.887l5.932-0.021c0.003,0.894,0.132,1.64,0.386,2.237
			c0.256,0.595,0.595,1.074,1.021,1.431c0.426,0.356,0.908,0.608,1.45,0.75c0.54,0.144,1.091,0.213,1.652,0.209
			c0.644,0,1.207-0.083,1.691-0.251c0.486-0.164,0.894-0.391,1.221-0.682c0.327-0.291,0.572-0.634,0.733-1.034
			C72.882,63.963,72.964,63.531,72.962,63.065z"/>
	</g>
</g>
</svg>
