<?xml version="1.0" encoding="utf-8"?>
<!-- Generator: Adobe Illustrator 16.0.0, SVG Export Plug-In . SVG Version: 6.00 Build 0)  -->
<!DOCTYPE svg PUBLIC "-//W3C//DTD SVG 1.1//EN" "http://www.w3.org/Graphics/SVG/1.1/DTD/svg11.dtd">
<svg version="1.1" id="Layer_1" xmlns="http://www.w3.org/2000/svg" xmlns:xlink="http://www.w3.org/1999/xlink" x="0px" y="0px"
	 width="113.606px" height="113.6px" viewBox="0 0 113.606 113.6" enable-background="new 0 0 113.606 113.6" xml:space="preserve">
<g>
	<polygon fill="#F4BB43" points="42.616,17.602 65.827,28.681 35.961,37.546 12.42,25.554 	"/>
	<polygon fill="#C6801B" points="65.689,60.423 35.907,71 35.907,37.443 65.827,28.681 	"/>
	<polygon fill="#CC973A" points="12.42,25.554 12.483,56.714 35.907,71 35.907,37.443 	"/>
	<polygon fill="#F0EFF8" points="21.125,29.957 51.624,21.901 54.841,23.433 24.548,31.702 	"/>
	<polygon fill="#F0EFF8" points="25.561,22.105 48.849,33.652 52.838,32.507 29.202,21.143 	"/>
	<polygon fill="#C6C6CC" points="48.849,33.652 52.838,32.507 52.838,41.61 48.993,43.287 	"/>
	<polygon fill="#C6C6CC" points="21.125,29.957 24.548,31.702 24.548,41.548 21.112,39.421 	"/>
	<g>
		<g>
			<path fill="#39549F" d="M49.273,60.024l-0.007-0.171l-0.07,0.023l0.007,0.17c-0.976,0.35-1.055,1.582-1.055,1.582
				s0.499-0.31,0.693-0.04c0,0,0.176-0.188,0.415-0.292l0.057,1.329c0,0,0.018,0.209,0.009,0.265
				c-0.013,0.088-0.086,0.081-0.097,0.008c-0.009-0.061-0.051-0.049-0.057,0.002c-0.008,0.052,0.04,0.171,0.137,0.125
				c0.099-0.047,0.09-0.146,0.09-0.146l-0.011-0.276l-0.057-1.333c0.143-0.051,0.305-0.064,0.464,0.008c0,0,0.404-0.48,0.667-0.35
				C50.458,60.927,50.327,59.707,49.273,60.024z"/>
			<path fill="#39549F" d="M50.979,60.008c-0.027-0.646-0.49-1.026-1.032-0.849l-1.448,0.477c-0.542,0.178-0.959,0.846-0.932,1.491
				l0.074,1.728c0.028,0.645,0.491,1.024,1.032,0.848l1.448-0.477c0.542-0.177,0.96-0.846,0.933-1.49L50.979,60.008z M50.109,62.92
				l-1.449,0.476c-0.399,0.131-0.74-0.149-0.761-0.627l-0.075-1.726c-0.019-0.477,0.288-0.97,0.688-1.101l1.449-0.475
				c0.398-0.132,0.741,0.148,0.761,0.624l0.074,1.728C50.816,62.294,50.508,62.789,50.109,62.92z"/>
			<polygon fill="#39549F" points="44.239,63.993 44.417,63.935 44.358,62.556 44.679,62.451 44.232,61.736 43.858,62.72 
				44.179,62.614 			"/>
			<polygon fill="#39549F" points="43.928,64.296 43.937,64.51 45.968,63.844 45.958,63.631 			"/>
			<polygon fill="#39549F" points="45.08,62.318 45.402,62.212 45.461,63.591 45.64,63.533 45.582,62.154 45.903,62.048 
				45.455,61.333 			"/>
			<path fill="#39549F" d="M45.538,60.583l-1.449,0.477c-0.541,0.178-0.959,0.847-0.932,1.491l0.075,1.728
				c0.028,0.646,0.49,1.025,1.031,0.848l1.45-0.476c0.54-0.178,0.957-0.847,0.93-1.491l-0.073-1.727
				C46.542,60.787,46.079,60.407,45.538,60.583z M45.7,64.343l-1.45,0.477c-0.398,0.131-0.739-0.15-0.761-0.625l-0.074-1.728
				c-0.021-0.476,0.288-0.969,0.688-1.101l1.449-0.476c0.398-0.132,0.74,0.149,0.76,0.625l0.074,1.728
				C46.406,63.72,46.098,64.212,45.7,64.343z"/>
			<path fill="#39549F" d="M40.404,62.929L40.4,62.931l-0.054,0.016l0.139,0.389l0.116-0.115l0.156,0.618l-0.205-0.458l-0.095,0.096
				l-0.198-0.5l-0.258,0.083c0,0-0.286,0.854-0.181,1.306c0.092,0.391,0.509,0.263,0.619,0.221l0.042,1.049
				c-0.159,0.064-0.334,0.191-0.434,0.27c-0.019,0.014-0.012,0.045,0.008,0.039l0.933-0.301c0.02-0.008,0.023-0.041,0.006-0.043
				c-0.102-0.017-0.284-0.031-0.449,0.015l-0.041-1.048c0.127-0.037,0.517-0.184,0.573-0.607C41.146,63.451,40.8,62.8,40.8,62.8
				L40.404,62.929z"/>
			<path fill="#39549F" d="M41.1,62.021l-1.449,0.467c-0.542,0.176-0.961,0.844-0.936,1.49l0.067,1.729
				c0.025,0.646,0.486,1.029,1.028,0.854l1.448-0.468c0.541-0.176,0.961-0.843,0.936-1.488l-0.068-1.73
				C42.102,62.229,41.642,61.847,41.1,62.021z M41.937,64.687c0.02,0.477-0.291,0.97-0.69,1.099l-1.449,0.468
				c-0.397,0.129-0.738-0.154-0.757-0.631l-0.069-1.729c-0.018-0.477,0.291-0.969,0.691-1.098l1.448-0.467
				c0.399-0.13,0.74,0.152,0.759,0.628L41.937,64.687z"/>
		</g>
	</g>
	<g>
		<polygon fill="#C0BFC8" points="64.884,31.062 54.495,34.621 54.549,36.798 64.936,33.242 		"/>
		<g>
			<linearGradient id="SVGID_1_" gradientUnits="userSpaceOnUse" x1="55.0259" y1="35.4907" x2="55.2808" y2="35.4907">
				<stop  offset="0" style="stop-color:#395481"/>
				<stop  offset="0.4312" style="stop-color:#204480"/>
				<stop  offset="1" style="stop-color:#1B4180"/>
			</linearGradient>
			<polygon fill="url(#SVGID_1_)" points="55.243,34.672 55.026,34.747 55.064,36.309 55.281,36.235 			"/>
			<linearGradient id="SVGID_2_" gradientUnits="userSpaceOnUse" x1="55.5962" y1="35.2471" x2="56.1353" y2="35.2471">
				<stop  offset="0" style="stop-color:#395481"/>
				<stop  offset="0.4312" style="stop-color:#204480"/>
				<stop  offset="1" style="stop-color:#1B4180"/>
			</linearGradient>
			<polygon fill="url(#SVGID_2_)" points="56.097,34.38 55.596,34.55 55.635,36.114 56.135,35.943 			"/>
			<linearGradient id="SVGID_3_" gradientUnits="userSpaceOnUse" x1="56.3823" y1="35.0308" x2="56.6108" y2="35.0308">
				<stop  offset="0" style="stop-color:#395481"/>
				<stop  offset="0.4312" style="stop-color:#204480"/>
				<stop  offset="1" style="stop-color:#1B4180"/>
			</linearGradient>
			<polygon fill="url(#SVGID_3_)" points="56.574,34.216 56.382,34.281 56.421,35.845 56.611,35.78 			"/>
			<linearGradient id="SVGID_4_" gradientUnits="userSpaceOnUse" x1="56.8823" y1="34.8569" x2="57.1226" y2="34.8569">
				<stop  offset="0" style="stop-color:#395481"/>
				<stop  offset="0.4312" style="stop-color:#204480"/>
				<stop  offset="1" style="stop-color:#1B4180"/>
			</linearGradient>
			<polygon fill="url(#SVGID_4_)" points="57.084,34.041 56.882,34.111 56.92,35.673 57.123,35.605 			"/>
			<linearGradient id="SVGID_5_" gradientUnits="userSpaceOnUse" x1="57.5015" y1="34.5688" x2="58.1821" y2="34.5688">
				<stop  offset="0" style="stop-color:#395481"/>
				<stop  offset="0.4312" style="stop-color:#204480"/>
				<stop  offset="1" style="stop-color:#1B4180"/>
			</linearGradient>
			<polygon fill="url(#SVGID_5_)" points="58.144,33.677 57.501,33.898 57.54,35.46 58.182,35.24 			"/>
			<linearGradient id="SVGID_6_" gradientUnits="userSpaceOnUse" x1="58.5249" y1="34.3052" x2="58.7065" y2="34.3052">
				<stop  offset="0" style="stop-color:#395481"/>
				<stop  offset="0.4312" style="stop-color:#204480"/>
				<stop  offset="1" style="stop-color:#1B4180"/>
			</linearGradient>
			<polygon fill="url(#SVGID_6_)" points="58.667,33.5 58.525,33.546 58.563,35.111 58.707,35.062 			"/>
			<linearGradient id="SVGID_7_" gradientUnits="userSpaceOnUse" x1="58.9058" y1="34.0518" x2="59.8013" y2="34.0518">
				<stop  offset="0" style="stop-color:#395481"/>
				<stop  offset="0.4312" style="stop-color:#204480"/>
				<stop  offset="1" style="stop-color:#1B4180"/>
			</linearGradient>
			<polygon fill="url(#SVGID_7_)" points="59.763,33.123 58.906,33.417 58.945,34.981 59.801,34.687 			"/>
			<linearGradient id="SVGID_8_" gradientUnits="userSpaceOnUse" x1="60.0249" y1="33.7788" x2="60.2778" y2="33.7788">
				<stop  offset="0" style="stop-color:#395481"/>
				<stop  offset="0.4312" style="stop-color:#204480"/>
				<stop  offset="1" style="stop-color:#1B4180"/>
			</linearGradient>
			<polygon fill="url(#SVGID_8_)" points="60.239,32.96 60.025,33.034 60.063,34.597 60.278,34.524 			"/>
			<linearGradient id="SVGID_9_" gradientUnits="userSpaceOnUse" x1="60.7153" y1="33.5059" x2="61.1821" y2="33.5059">
				<stop  offset="0" style="stop-color:#395481"/>
				<stop  offset="0.4312" style="stop-color:#204480"/>
				<stop  offset="1" style="stop-color:#1B4180"/>
			</linearGradient>
			<polygon fill="url(#SVGID_9_)" points="61.144,32.651 60.715,32.798 60.753,34.361 61.182,34.213 			"/>
			<linearGradient id="SVGID_10_" gradientUnits="userSpaceOnUse" x1="61.3823" y1="33.311" x2="61.6509" y2="33.311">
				<stop  offset="0" style="stop-color:#395481"/>
				<stop  offset="0.4312" style="stop-color:#204480"/>
				<stop  offset="1" style="stop-color:#1B4180"/>
			</linearGradient>
			<polygon fill="url(#SVGID_10_)" points="61.613,32.49 61.382,32.569 61.42,34.132 61.651,34.054 			"/>
			<linearGradient id="SVGID_11_" gradientUnits="userSpaceOnUse" x1="62.4058" y1="32.9468" x2="62.7534" y2="32.9468">
				<stop  offset="0" style="stop-color:#395481"/>
				<stop  offset="0.4312" style="stop-color:#204480"/>
				<stop  offset="1" style="stop-color:#1B4180"/>
			</linearGradient>
			<polygon fill="url(#SVGID_11_)" points="62.715,32.113 62.406,32.218 62.444,33.781 62.753,33.675 			"/>
			<linearGradient id="SVGID_12_" gradientUnits="userSpaceOnUse" x1="62.9048" y1="32.8076" x2="63.0669" y2="32.8076">
				<stop  offset="0" style="stop-color:#395481"/>
				<stop  offset="0.4312" style="stop-color:#204480"/>
				<stop  offset="1" style="stop-color:#1B4180"/>
			</linearGradient>
			<polygon fill="url(#SVGID_12_)" points="63.028,32.005 62.905,32.047 62.944,33.61 63.067,33.568 			"/>
			<linearGradient id="SVGID_13_" gradientUnits="userSpaceOnUse" x1="63.4048" y1="32.5757" x2="63.9204" y2="32.5757">
				<stop  offset="0" style="stop-color:#395481"/>
				<stop  offset="0.4312" style="stop-color:#204480"/>
				<stop  offset="1" style="stop-color:#1B4180"/>
			</linearGradient>
			<polygon fill="url(#SVGID_13_)" points="63.882,31.712 63.405,31.875 63.444,33.439 63.92,33.277 			"/>
			<linearGradient id="SVGID_14_" gradientUnits="userSpaceOnUse" x1="64.2144" y1="32.3516" x2="64.4194" y2="32.3516">
				<stop  offset="0" style="stop-color:#395481"/>
				<stop  offset="0.4312" style="stop-color:#204480"/>
				<stop  offset="1" style="stop-color:#1B4180"/>
			</linearGradient>
			<polygon fill="url(#SVGID_14_)" points="64.381,31.542 64.214,31.598 64.253,33.162 64.419,33.104 			"/>
		</g>
	</g>
</g>
<g>
	<path fill="#39549F" d="M71.608,44.847v47.61c0,0,0.251,3.015,3.644,3.141c3.393,0.125,22.736,0,22.736,0s3.016-0.251,3.142-4.021
		c0.126-3.769,0-46.73,0-46.73s-0.252-3.141-4.396-3.141c-4.146,0-21.168,0-22.108,0C73.681,41.707,71.608,42.711,71.608,44.847z"/>
	<rect x="73.242" y="46.481" fill="#F0EFF8" width="26.506" height="44.973"/>
	<path fill="#31AEE4" d="M96.937,79.109c0,0.834-0.675,1.508-1.508,1.508h-17.15c-0.833,0-1.509-0.674-1.509-1.508V58.571
		c0-0.831,0.676-1.507,1.509-1.507h17.15c0.833,0,1.508,0.676,1.508,1.507V79.109z"/>
	<path fill="#F4BB43" d="M81.181,62.819l10.999-0.136c0.729-0.008,1.327,0.576,1.337,1.306l0.129,10.549l-13.641,0.168
		l-0.129-10.551C79.868,63.425,80.452,62.828,81.181,62.819"/>
	<polygon fill="#F0EFF8" points="88.873,62.753 88.873,66.241 88.363,65.73 87.828,66.266 87.293,65.73 86.759,66.266 86.223,65.73 
		85.682,66.266 85.148,65.73 84.631,66.248 84.631,62.753 	"/>
	<circle fill="#DBDAE3" cx="86.495" cy="93.56" r="1.34"/>
	<path fill="#F0EFF8" d="M92.178,44.294c0,0.156-0.126,0.283-0.282,0.283H81.092c-0.156,0-0.281-0.127-0.281-0.283l0,0
		c0-0.156,0.125-0.281,0.281-0.281h10.804C92.052,44.013,92.178,44.138,92.178,44.294L92.178,44.294z"/>
</g>
</svg>
