<?xml version="1.0" encoding="utf-8"?>
<!-- Generator: Adobe Illustrator 16.0.0, SVG Export Plug-In . SVG Version: 6.00 Build 0)  -->
<!DOCTYPE svg PUBLIC "-//W3C//DTD SVG 1.1//EN" "http://www.w3.org/Graphics/SVG/1.1/DTD/svg11.dtd">
<svg version="1.1" id="Layer_1" xmlns="http://www.w3.org/2000/svg" xmlns:xlink="http://www.w3.org/1999/xlink" x="0px" y="0px"
	 width="113.606px" height="113.6px" viewBox="0 0 113.606 113.6" enable-background="new 0 0 113.606 113.6" xml:space="preserve">
<g>
	<polygon fill="#F4BB43" points="57.41,15.424 90.124,31.038 48.032,43.534 14.852,26.631 	"/>
	<polygon fill="#C6801B" points="89.93,75.776 47.955,90.684 47.955,43.388 90.124,31.038 	"/>
	<polygon fill="#CC973A" points="14.852,26.631 14.94,70.549 47.955,90.684 47.955,43.388 	"/>
	<polygon fill="#F0EFF8" points="27.122,32.837 70.106,21.483 74.642,23.643 31.946,35.296 	"/>
	<polygon fill="#F0EFF8" points="33.373,21.771 66.195,38.045 71.818,36.431 38.504,20.415 	"/>
	<polygon fill="#C6C6CC" points="66.195,38.045 71.818,36.431 71.818,49.261 66.398,51.624 	"/>
	<polygon fill="#C6C6CC" points="27.122,32.837 31.946,35.296 31.946,49.174 27.102,46.176 	"/>
	<g>
		<g>
			<path fill="#39549F" d="M66.793,75.214l-0.011-0.241l-0.099,0.034l0.01,0.24c-1.376,0.492-1.487,2.229-1.487,2.229
				s0.703-0.436,0.978-0.056c0,0,0.247-0.265,0.584-0.412l0.081,1.874c0,0,0.022,0.294,0.011,0.373
				c-0.018,0.124-0.12,0.114-0.136,0.012c-0.013-0.086-0.072-0.069-0.081,0.002c-0.009,0.073,0.058,0.24,0.194,0.175
				c0.138-0.065,0.127-0.206,0.127-0.206l-0.016-0.39l-0.08-1.879c0.202-0.07,0.43-0.09,0.654,0.013c0,0,0.571-0.678,0.941-0.493
				C68.464,76.488,68.277,74.767,66.793,75.214z"/>
			<path fill="#39549F" d="M69.197,75.192c-0.039-0.909-0.691-1.446-1.455-1.195l-2.042,0.671c-0.763,0.25-1.352,1.192-1.312,2.102
				l0.104,2.435c0.04,0.909,0.692,1.444,1.455,1.195l2.042-0.671c0.763-0.25,1.352-1.193,1.313-2.102L69.197,75.192z M67.971,79.297
				l-2.042,0.67c-0.562,0.184-1.043-0.21-1.072-0.883l-0.105-2.433c-0.027-0.671,0.406-1.366,0.969-1.552l2.042-0.668
				c0.562-0.186,1.044,0.21,1.073,0.88l0.104,2.435C68.968,78.415,68.534,79.111,67.971,79.297z"/>
			<polygon fill="#39549F" points="59.697,80.808 59.949,80.726 59.866,78.782 60.319,78.634 59.688,77.626 59.161,79.014 
				59.614,78.864 			"/>
			<polygon fill="#39549F" points="59.26,81.237 59.272,81.537 62.135,80.599 62.121,80.298 			"/>
			<polygon fill="#39549F" points="60.884,78.448 61.337,78.299 61.421,80.242 61.673,80.159 61.59,78.217 62.043,78.068 
				61.412,77.061 			"/>
			<path fill="#39549F" d="M61.528,76.003l-2.042,0.671c-0.763,0.25-1.352,1.193-1.313,2.102l0.106,2.436
				c0.039,0.909,0.69,1.444,1.453,1.194l2.043-0.67c0.761-0.251,1.35-1.194,1.312-2.103L62.982,77.2
				C62.943,76.289,62.291,75.754,61.528,76.003z M61.756,81.302l-2.042,0.671c-0.562,0.186-1.043-0.211-1.073-0.881l-0.104-2.434
				c-0.029-0.67,0.405-1.365,0.968-1.551l2.042-0.671c0.562-0.185,1.043,0.211,1.072,0.881l0.105,2.434
				C62.753,80.423,62.318,81.118,61.756,81.302z"/>
			<path fill="#39549F" d="M54.292,79.309l-0.005,0.002l-0.076,0.023l0.195,0.548l0.165-0.164l0.22,0.872l-0.289-0.646l-0.134,0.136
				l-0.279-0.707l-0.363,0.118c0,0-0.402,1.203-0.254,1.84c0.129,0.55,0.717,0.371,0.872,0.312l0.059,1.478
				c-0.225,0.09-0.47,0.269-0.611,0.379c-0.025,0.021-0.017,0.064,0.011,0.055l1.315-0.424c0.027-0.01,0.033-0.056,0.008-0.061
				c-0.143-0.023-0.4-0.044-0.633,0.021l-0.059-1.477c0.179-0.051,0.729-0.258,0.809-0.856c0.095-0.715-0.391-1.631-0.391-1.631
				L54.292,79.309z"/>
			<path fill="#39549F" d="M55.273,78.029l-2.042,0.658c-0.764,0.247-1.354,1.189-1.319,2.1l0.096,2.437
				c0.036,0.91,0.686,1.451,1.449,1.205l2.042-0.659c0.763-0.247,1.354-1.188,1.318-2.098l-0.096-2.438
				C56.686,78.322,56.037,77.783,55.273,78.029z M56.454,81.786c0.026,0.672-0.41,1.367-0.973,1.549l-2.043,0.659
				c-0.562,0.182-1.041-0.217-1.068-0.889l-0.096-2.437c-0.025-0.672,0.41-1.366,0.974-1.547l2.042-0.659
				c0.562-0.182,1.042,0.215,1.069,0.886L56.454,81.786z"/>
		</g>
	</g>
	<g>
		<polygon fill="#C0BFC8" points="88.795,34.396 74.153,39.411 74.229,42.48 88.87,37.466 		"/>
		<g>
			<linearGradient id="SVGID_1_" gradientUnits="userSpaceOnUse" x1="74.9009" y1="40.6367" x2="75.2607" y2="40.6367">
				<stop  offset="0" style="stop-color:#395481"/>
				<stop  offset="0.4312" style="stop-color:#204480"/>
				<stop  offset="1" style="stop-color:#1B4180"/>
			</linearGradient>
			<polygon fill="url(#SVGID_1_)" points="75.207,39.483 74.901,39.587 74.956,41.79 75.261,41.686 			"/>
			<linearGradient id="SVGID_2_" gradientUnits="userSpaceOnUse" x1="75.7056" y1="40.293" x2="76.4648" y2="40.293">
				<stop  offset="0" style="stop-color:#395481"/>
				<stop  offset="0.4312" style="stop-color:#204480"/>
				<stop  offset="1" style="stop-color:#1B4180"/>
			</linearGradient>
			<polygon fill="url(#SVGID_2_)" points="76.411,39.071 75.706,39.311 75.76,41.515 76.465,41.273 			"/>
			<linearGradient id="SVGID_3_" gradientUnits="userSpaceOnUse" x1="76.8135" y1="39.9878" x2="77.1353" y2="39.9878">
				<stop  offset="0" style="stop-color:#395481"/>
				<stop  offset="0.4312" style="stop-color:#204480"/>
				<stop  offset="1" style="stop-color:#1B4180"/>
			</linearGradient>
			<polygon fill="url(#SVGID_3_)" points="77.082,38.84 76.813,38.932 76.868,41.135 77.135,41.044 			"/>
			<linearGradient id="SVGID_4_" gradientUnits="userSpaceOnUse" x1="77.5181" y1="39.7441" x2="77.8569" y2="39.7441">
				<stop  offset="0" style="stop-color:#395481"/>
				<stop  offset="0.4312" style="stop-color:#204480"/>
				<stop  offset="1" style="stop-color:#1B4180"/>
			</linearGradient>
			<polygon fill="url(#SVGID_4_)" points="77.803,38.593 77.518,38.692 77.572,40.895 77.857,40.797 			"/>
			<linearGradient id="SVGID_5_" gradientUnits="userSpaceOnUse" x1="78.3901" y1="39.3379" x2="79.3501" y2="39.3379">
				<stop  offset="0" style="stop-color:#395481"/>
				<stop  offset="0.4312" style="stop-color:#204480"/>
				<stop  offset="1" style="stop-color:#1B4180"/>
			</linearGradient>
			<polygon fill="url(#SVGID_5_)" points="79.296,38.081 78.39,38.392 78.445,40.595 79.35,40.284 			"/>
			<linearGradient id="SVGID_6_" gradientUnits="userSpaceOnUse" x1="79.833" y1="38.9658" x2="80.0889" y2="38.9658">
				<stop  offset="0" style="stop-color:#395481"/>
				<stop  offset="0.4312" style="stop-color:#204480"/>
				<stop  offset="1" style="stop-color:#1B4180"/>
			</linearGradient>
			<polygon fill="url(#SVGID_6_)" points="80.034,37.829 79.833,37.897 79.887,40.102 80.089,40.032 			"/>
			<linearGradient id="SVGID_7_" gradientUnits="userSpaceOnUse" x1="80.3696" y1="38.6084" x2="81.6323" y2="38.6084">
				<stop  offset="0" style="stop-color:#395481"/>
				<stop  offset="0.4312" style="stop-color:#204480"/>
				<stop  offset="1" style="stop-color:#1B4180"/>
			</linearGradient>
			<polygon fill="url(#SVGID_7_)" points="81.578,37.299 80.37,37.714 80.424,39.918 81.632,39.503 			"/>
			<linearGradient id="SVGID_8_" gradientUnits="userSpaceOnUse" x1="81.9468" y1="38.2236" x2="82.3032" y2="38.2236">
				<stop  offset="0" style="stop-color:#395481"/>
				<stop  offset="0.4312" style="stop-color:#204480"/>
				<stop  offset="1" style="stop-color:#1B4180"/>
			</linearGradient>
			<polygon fill="url(#SVGID_8_)" points="82.249,37.07 81.947,37.173 82.001,39.377 82.303,39.274 			"/>
			<linearGradient id="SVGID_9_" gradientUnits="userSpaceOnUse" x1="82.9204" y1="37.8389" x2="83.5781" y2="37.8389">
				<stop  offset="0" style="stop-color:#395481"/>
				<stop  offset="0.4312" style="stop-color:#204480"/>
				<stop  offset="1" style="stop-color:#1B4180"/>
			</linearGradient>
			<polygon fill="url(#SVGID_9_)" points="83.525,36.634 82.92,36.841 82.974,39.043 83.578,38.836 			"/>
			<linearGradient id="SVGID_10_" gradientUnits="userSpaceOnUse" x1="83.8599" y1="37.5649" x2="84.2388" y2="37.5649">
				<stop  offset="0" style="stop-color:#395481"/>
				<stop  offset="0.4312" style="stop-color:#204480"/>
				<stop  offset="1" style="stop-color:#1B4180"/>
			</linearGradient>
			<polygon fill="url(#SVGID_10_)" points="84.185,36.407 83.86,36.519 83.915,38.723 84.239,38.611 			"/>
			<linearGradient id="SVGID_11_" gradientUnits="userSpaceOnUse" x1="85.3027" y1="37.0508" x2="85.7925" y2="37.0508">
				<stop  offset="0" style="stop-color:#395481"/>
				<stop  offset="0.4312" style="stop-color:#204480"/>
				<stop  offset="1" style="stop-color:#1B4180"/>
			</linearGradient>
			<polygon fill="url(#SVGID_11_)" points="85.739,35.875 85.303,36.024 85.356,38.227 85.792,38.079 			"/>
			<linearGradient id="SVGID_12_" gradientUnits="userSpaceOnUse" x1="86.0063" y1="36.855" x2="86.2349" y2="36.855">
				<stop  offset="0" style="stop-color:#395481"/>
				<stop  offset="0.4312" style="stop-color:#204480"/>
				<stop  offset="1" style="stop-color:#1B4180"/>
			</linearGradient>
			<polygon fill="url(#SVGID_12_)" points="86.181,35.724 86.006,35.783 86.061,37.986 86.235,37.927 			"/>
			<linearGradient id="SVGID_13_" gradientUnits="userSpaceOnUse" x1="86.7114" y1="36.5283" x2="87.437" y2="36.5283">
				<stop  offset="0" style="stop-color:#395481"/>
				<stop  offset="0.4312" style="stop-color:#204480"/>
				<stop  offset="1" style="stop-color:#1B4180"/>
			</linearGradient>
			<polygon fill="url(#SVGID_13_)" points="87.383,35.312 86.711,35.541 86.766,37.745 87.437,37.516 			"/>
			<linearGradient id="SVGID_14_" gradientUnits="userSpaceOnUse" x1="87.8525" y1="36.2119" x2="88.1416" y2="36.2119">
				<stop  offset="0" style="stop-color:#395481"/>
				<stop  offset="0.4312" style="stop-color:#204480"/>
				<stop  offset="1" style="stop-color:#1B4180"/>
			</linearGradient>
			<polygon fill="url(#SVGID_14_)" points="88.087,35.07 87.853,35.15 87.906,37.354 88.142,37.273 			"/>
		</g>
	</g>
</g>
<circle fill="#B1B1B7" cx="83.063" cy="80.374" r="20.026"/>
<circle fill="#DEDDE6" cx="85.138" cy="80.374" r="20.026"/>
<circle fill="#319CD2" cx="85.084" cy="80.594" r="18.297"/>
<g>
	<defs>
		<path id="SVGID_15_" d="M85.976,62.436c0,0,14.633,5.129,14.522,17.938c-0.102,11.614-7.838,16.66-14.522,18.589
			c-6.685,1.928,2.766,2.417,2.766,2.417l28.467-5.214l-15.473-34.432l-22.647-1.386L85.976,62.436z"/>
	</defs>
	<clipPath id="SVGID_16_">
		<use xlink:href="#SVGID_15_"  overflow="visible"/>
	</clipPath>
	<circle clip-path="url(#SVGID_16_)" fill="#39548D" cx="85.138" cy="80.479" r="18.297"/>
</g>
<polyline fill="none" stroke="#685FD1" stroke-width="2" stroke-linecap="round" stroke-linejoin="round" stroke-miterlimit="10" points="
	79.721,77.352 85.101,80.912 93.963,75.908 "/>
<line fill="none" stroke="#E0A743" stroke-width="2" stroke-linecap="round" stroke-linejoin="round" stroke-miterlimit="10" x1="85.101" y1="64.037" x2="85.101" y2="66.381"/>
<line fill="none" stroke="#E0A743" stroke-width="2" stroke-linecap="round" stroke-linejoin="round" stroke-miterlimit="10" x1="85.101" y1="94.365" x2="85.101" y2="96.71"/>
<line fill="none" stroke="#E0A743" stroke-width="2" stroke-linecap="round" stroke-linejoin="round" stroke-miterlimit="10" x1="77.369" y1="94.365" x2="79.028" y2="92.07"/>
<line fill="none" stroke="#E0A743" stroke-width="2" stroke-linecap="round" stroke-linejoin="round" stroke-miterlimit="10" x1="91.942" y1="69.485" x2="93.602" y2="67.189"/>
<line fill="none" stroke="#E0A743" stroke-width="2" stroke-linecap="round" stroke-linejoin="round" stroke-miterlimit="10" x1="78.198" y1="68.912" x2="76.539" y2="66.617"/>
<line fill="none" stroke="#E0A743" stroke-width="2" stroke-linecap="round" stroke-linejoin="round" stroke-miterlimit="10" x1="93.27" y1="95.082" x2="91.61" y2="92.786"/>
<line fill="none" stroke="#E0A743" stroke-width="2" stroke-linecap="round" stroke-linejoin="round" stroke-miterlimit="10" x1="68.575" y1="80.912" x2="70.898" y2="80.912"/>
<line fill="none" stroke="#E0A743" stroke-width="2" stroke-linecap="round" stroke-linejoin="round" stroke-miterlimit="10" x1="99.27" y1="80.912" x2="101.593" y2="80.912"/>
<line fill="none" stroke="#E0A743" stroke-width="2" stroke-linecap="round" stroke-linejoin="round" stroke-miterlimit="10" x1="70.898" y1="89.178" x2="73.221" y2="87.518"/>
<line fill="none" stroke="#E0A743" stroke-width="2" stroke-linecap="round" stroke-linejoin="round" stroke-miterlimit="10" x1="96.615" y1="74.411" x2="98.938" y2="72.751"/>
<line fill="none" stroke="#E0A743" stroke-width="2" stroke-linecap="round" stroke-linejoin="round" stroke-miterlimit="10" x1="99.122" y1="89.124" x2="96.799" y2="87.465"/>
<line fill="none" stroke="#E0A743" stroke-width="2" stroke-linecap="round" stroke-linejoin="round" stroke-miterlimit="10" x1="73.404" y1="74.357" x2="71.082" y2="72.698"/>
</svg>
