<?xml version="1.0" encoding="utf-8"?>
<!-- Generator: Adobe Illustrator 16.0.0, SVG Export Plug-In . SVG Version: 6.00 Build 0)  -->
<!DOCTYPE svg PUBLIC "-//W3C//DTD SVG 1.1//EN" "http://www.w3.org/Graphics/SVG/1.1/DTD/svg11.dtd">
<svg version="1.1" id="Layer_1" xmlns="http://www.w3.org/2000/svg" xmlns:xlink="http://www.w3.org/1999/xlink" x="0px" y="0px"
	 width="261.9px" height="126.236px" viewBox="24.059 29.311 261.9 126.236" enable-background="new 24.059 29.311 261.9 126.236"
	 xml:space="preserve">
<g>
	<path fill="#F4BB43" d="M227.71,91.77c0,3.025,1.792,7.262,4.206,11.584c4.964,8.947,12.596,18.318,12.596,18.318
		s16.802-20.625,16.802-29.902c0-5.257-2.412-9.958-6.209-13.049c-2.895-2.351-6.583-3.755-10.593-3.755
		C235.235,74.965,227.71,82.49,227.71,91.77z M242.801,99.239c-3.518-0.766-6.146-3.887-6.146-7.644
		c0-4.341,3.519-7.855,7.857-7.855c3.28,0,6.079,2.003,7.261,4.855c0.386,0.929,0.6,1.938,0.6,3c0,4.341-3.521,7.844-7.859,7.844
		C243.93,99.439,243.343,99.372,242.801,99.239z"/>
	<path fill="#F4BB43" d="M24.059,107.045c0,4.117,7.458,13.277,7.458,13.277s7.458-9.16,7.458-13.277
		c0-4.121-3.339-7.455-7.458-7.455C27.396,99.59,24.059,102.924,24.059,107.045z M28.031,106.972c0-1.927,1.56-3.488,3.485-3.488
		c1.925,0,3.487,1.562,3.487,3.488c0,1.923-1.562,3.485-3.487,3.485C29.59,110.458,28.031,108.895,28.031,106.972z"/>
	<g opacity="0.5">
		<path fill="#F4BB43" d="M33.75,96.549c0.027,0.008,0.058,0.014,0.086,0.014c0.129,0,0.242-0.083,0.283-0.21
			c0.003-0.005,0.191-0.614,0.584-1.687c0.056-0.153-0.023-0.324-0.18-0.379c-0.152-0.059-0.321,0.021-0.378,0.176
			c-0.397,1.091-0.585,1.688-0.594,1.716C33.506,96.334,33.592,96.5,33.75,96.549z M34.953,93.167
			c0.034,0.014,0.07,0.023,0.105,0.023c0.119,0,0.233-0.072,0.277-0.192c0.212-0.533,0.438-1.089,0.671-1.645
			c0.062-0.153-0.008-0.328-0.159-0.389c-0.151-0.064-0.325,0.008-0.386,0.159c-0.235,0.562-0.464,1.12-0.677,1.66
			C34.725,92.936,34.799,93.108,34.953,93.167z M266.646,91.979c0.054,0.104,0.161,0.167,0.27,0.167
			c0.042,0,0.088-0.011,0.129-0.031c0.525-0.258,1.062-0.51,1.6-0.749c0.151-0.066,0.217-0.241,0.151-0.39
			c-0.068-0.153-0.244-0.22-0.392-0.154c-0.547,0.244-1.091,0.498-1.621,0.762C266.636,91.654,266.575,91.833,266.646,91.979z
			 M269.884,90.515c0.046,0.114,0.159,0.185,0.273,0.185c0.037,0,0.075-0.006,0.112-0.021c0.542-0.22,1.099-0.429,1.65-0.629
			c0.154-0.056,0.234-0.226,0.177-0.381c-0.053-0.155-0.224-0.233-0.378-0.179c-0.557,0.201-1.121,0.417-1.671,0.64
			C269.896,90.187,269.823,90.36,269.884,90.515z M36.321,89.872c0.038,0.015,0.078,0.025,0.119,0.025
			c0.113,0,0.22-0.067,0.271-0.179c0.234-0.531,0.481-1.077,0.729-1.62c0.071-0.149,0.008-0.325-0.141-0.392
			c-0.149-0.069-0.323-0.005-0.396,0.144c-0.249,0.543-0.499,1.094-0.737,1.629C36.102,89.629,36.17,89.803,36.321,89.872z
			 M273.22,89.286c0.042,0.127,0.157,0.207,0.278,0.207c0.035,0,0.064-0.005,0.095-0.014c0.554-0.178,1.123-0.351,1.691-0.514
			c0.157-0.046,0.245-0.209,0.202-0.367c-0.045-0.157-0.208-0.247-0.366-0.204c-0.574,0.167-1.15,0.342-1.709,0.521
			C273.255,88.964,273.169,89.131,273.22,89.286z M276.632,88.292c0.033,0.134,0.154,0.223,0.285,0.223
			c0.024,0,0.051-0.002,0.075-0.01c0.564-0.143,1.146-0.279,1.721-0.406c0.159-0.033,0.26-0.191,0.224-0.353
			c-0.035-0.158-0.191-0.261-0.352-0.224c-0.581,0.126-1.166,0.264-1.741,0.409C276.686,87.971,276.589,88.13,276.632,88.292z
			 M280.099,87.51c0.026,0.14,0.151,0.241,0.29,0.241c0.021,0,0.037-0.004,0.055-0.006c0.574-0.11,1.161-0.21,1.744-0.304
			c0.161-0.026,0.272-0.181,0.244-0.342c-0.027-0.162-0.176-0.272-0.338-0.245c-0.589,0.096-1.182,0.199-1.759,0.309
			C280.174,87.194,280.067,87.347,280.099,87.51z M283.606,86.929c0.021,0.147,0.145,0.254,0.293,0.254c0.012,0,0.025,0,0.038-0.001
			c0.575-0.076,1.169-0.147,1.756-0.211c0.166-0.02,0.282-0.165,0.265-0.329c-0.018-0.163-0.163-0.277-0.325-0.261
			c-0.597,0.065-1.192,0.136-1.771,0.214C283.697,86.615,283.581,86.768,283.606,86.929z M37.812,86.631
			c0.037,0.021,0.083,0.027,0.126,0.027c0.109,0,0.216-0.061,0.268-0.168c0.257-0.524,0.521-1.063,0.788-1.591
			c0.074-0.146,0.017-0.322-0.13-0.398c-0.146-0.074-0.324-0.013-0.397,0.132c-0.271,0.532-0.537,1.071-0.794,1.601
			C37.6,86.38,37.659,86.558,37.812,86.631z M39.407,83.444c0.043,0.024,0.091,0.035,0.136,0.035c0.107,0,0.21-0.058,0.266-0.158
			c0.271-0.52,0.558-1.047,0.839-1.566c0.08-0.142,0.026-0.324-0.118-0.401c-0.143-0.077-0.324-0.026-0.4,0.118
			c-0.285,0.522-0.57,1.051-0.844,1.573C39.206,83.188,39.262,83.369,39.407,83.444z M41.109,80.316
			c0.046,0.026,0.096,0.037,0.145,0.037c0.103,0,0.206-0.055,0.259-0.151c0.292-0.512,0.589-1.029,0.891-1.537
			c0.083-0.14,0.035-0.324-0.105-0.406c-0.142-0.083-0.323-0.037-0.406,0.104c-0.302,0.511-0.6,1.031-0.894,1.547
			C40.916,80.054,40.965,80.235,41.109,80.316z M223.683,77.319c0.34,0.48,0.683,0.969,1.017,1.456
			c0.057,0.082,0.148,0.127,0.243,0.127c0.061,0,0.118-0.014,0.167-0.05c0.137-0.093,0.167-0.275,0.074-0.413
			c-0.332-0.486-0.676-0.98-1.018-1.465c-0.093-0.133-0.279-0.165-0.412-0.07C223.621,77.002,223.59,77.186,223.683,77.319z
			 M42.91,77.243c0.046,0.027,0.099,0.043,0.151,0.043c0.101,0,0.199-0.051,0.254-0.145c0.311-0.503,0.625-1.011,0.938-1.504
			c0.086-0.141,0.047-0.323-0.091-0.41c-0.142-0.088-0.322-0.047-0.41,0.09c-0.317,0.499-0.632,1.008-0.943,1.519
			C42.724,76.975,42.768,77.155,42.91,77.243z M221.592,74.452c0.354,0.472,0.711,0.949,1.058,1.426
			c0.057,0.078,0.147,0.122,0.239,0.122c0.058,0,0.123-0.02,0.175-0.058c0.133-0.097,0.159-0.282,0.063-0.413
			c-0.351-0.477-0.705-0.96-1.06-1.436c-0.101-0.129-0.287-0.157-0.418-0.058C221.521,74.133,221.492,74.318,221.592,74.452z
			 M44.803,74.228c0.053,0.033,0.108,0.05,0.163,0.05c0.101,0,0.192-0.048,0.252-0.135c0.323-0.495,0.657-0.99,0.985-1.477
			c0.091-0.136,0.057-0.318-0.08-0.411c-0.137-0.091-0.32-0.056-0.409,0.078c-0.333,0.488-0.668,0.986-0.993,1.485
			C44.629,73.955,44.667,74.139,44.803,74.228z M219.418,71.644c0.366,0.458,0.737,0.927,1.097,1.396
			c0.058,0.075,0.146,0.114,0.236,0.114c0.061,0,0.126-0.02,0.181-0.062c0.129-0.099,0.154-0.288,0.051-0.417
			c-0.36-0.469-0.733-0.941-1.103-1.402c-0.102-0.126-0.289-0.148-0.416-0.047C219.337,71.329,219.315,71.515,219.418,71.644z
			 M46.798,71.276c0.052,0.038,0.113,0.055,0.169,0.055c0.094,0,0.186-0.042,0.245-0.126c0.338-0.482,0.685-0.968,1.033-1.444
			c0.096-0.132,0.065-0.317-0.066-0.415c-0.133-0.094-0.318-0.066-0.413,0.067c-0.35,0.479-0.7,0.966-1.04,1.451
			C46.634,70.999,46.666,71.182,46.798,71.276z M217.162,68.901c0.381,0.447,0.765,0.907,1.139,1.364
			c0.058,0.071,0.141,0.109,0.229,0.109c0.066,0,0.135-0.022,0.188-0.069c0.126-0.104,0.146-0.291,0.04-0.417
			c-0.376-0.458-0.761-0.921-1.141-1.369c-0.108-0.125-0.296-0.139-0.421-0.033C217.072,68.591,217.054,68.778,217.162,68.901z
			 M48.885,68.395c0.053,0.04,0.116,0.058,0.179,0.058c0.088,0,0.178-0.039,0.237-0.116c0.354-0.473,0.718-0.949,1.079-1.41
			c0.101-0.128,0.076-0.316-0.051-0.415c-0.129-0.101-0.315-0.078-0.415,0.051c-0.365,0.466-0.729,0.942-1.086,1.415
			C48.729,68.108,48.756,68.296,48.885,68.395z M214.824,66.231c0.395,0.438,0.791,0.882,1.179,1.326
			c0.058,0.069,0.143,0.101,0.224,0.101c0.07,0,0.14-0.023,0.196-0.071c0.121-0.108,0.136-0.296,0.024-0.421
			c-0.388-0.443-0.785-0.892-1.184-1.334c-0.109-0.12-0.295-0.127-0.417-0.019C214.723,65.922,214.714,66.11,214.824,66.231z
			 M51.065,65.581c0.056,0.043,0.121,0.066,0.188,0.066c0.086,0,0.172-0.039,0.231-0.111c0.368-0.46,0.749-0.922,1.124-1.372
			c0.106-0.127,0.086-0.312-0.037-0.418c-0.125-0.103-0.312-0.087-0.419,0.038c-0.378,0.454-0.758,0.916-1.132,1.381
			C50.917,65.289,50.939,65.479,51.065,65.581z M212.405,63.637c0.41,0.425,0.819,0.857,1.22,1.286
			c0.06,0.065,0.139,0.095,0.219,0.095c0.073,0,0.143-0.026,0.199-0.08c0.123-0.111,0.127-0.299,0.017-0.42
			c-0.4-0.429-0.812-0.865-1.226-1.293c-0.114-0.12-0.304-0.124-0.421-0.009C212.295,63.33,212.294,63.517,212.405,63.637z
			 M53.34,62.842c0.055,0.05,0.126,0.074,0.196,0.074c0.083,0,0.164-0.038,0.224-0.106c0.386-0.444,0.779-0.891,1.171-1.331
			c0.111-0.122,0.099-0.309-0.021-0.418c-0.123-0.11-0.311-0.098-0.419,0.022c-0.396,0.44-0.791,0.891-1.181,1.342
			C53.205,62.548,53.218,62.735,53.34,62.842z M209.903,61.115c0.422,0.41,0.847,0.829,1.263,1.25
			c0.057,0.06,0.134,0.089,0.209,0.089c0.078,0,0.153-0.029,0.21-0.088c0.118-0.114,0.118-0.303,0.002-0.419
			c-0.419-0.422-0.848-0.845-1.27-1.254c-0.115-0.116-0.305-0.113-0.416,0.003C209.785,60.815,209.787,61.001,209.903,61.115z
			 M55.708,60.184c0.056,0.052,0.129,0.079,0.202,0.079c0.08,0,0.158-0.032,0.214-0.094c0.404-0.435,0.816-0.868,1.22-1.291
			c0.113-0.118,0.11-0.307-0.008-0.417c-0.118-0.114-0.308-0.113-0.421,0.006c-0.404,0.425-0.819,0.861-1.225,1.3
			C55.581,59.882,55.585,60.072,55.708,60.184z M207.323,58.679c0.438,0.398,0.871,0.804,1.304,1.207
			c0.055,0.056,0.127,0.081,0.202,0.081c0.077,0,0.157-0.031,0.214-0.092c0.11-0.12,0.108-0.305-0.01-0.418
			c-0.431-0.409-0.871-0.817-1.308-1.215c-0.121-0.111-0.31-0.102-0.419,0.02C207.195,58.379,207.206,58.57,207.323,58.679z
			 M58.167,57.609c0.056,0.058,0.132,0.086,0.207,0.086c0.076,0,0.15-0.028,0.209-0.086c0.416-0.418,0.841-0.837,1.263-1.248
			c0.118-0.112,0.118-0.302,0.007-0.419c-0.114-0.118-0.3-0.121-0.418-0.005c-0.426,0.411-0.852,0.834-1.27,1.253
			C58.049,57.309,58.049,57.493,58.167,57.609z M204.667,56.328c0.448,0.381,0.896,0.773,1.34,1.166
			c0.056,0.048,0.126,0.074,0.197,0.074c0.081,0,0.161-0.034,0.222-0.099c0.109-0.124,0.096-0.312-0.026-0.419
			c-0.445-0.393-0.896-0.788-1.345-1.171c-0.125-0.107-0.314-0.093-0.419,0.033C204.529,56.034,204.543,56.222,204.667,56.328z
			 M201.935,54.067c0.458,0.365,0.924,0.743,1.375,1.119c0.058,0.045,0.125,0.069,0.189,0.069c0.086,0,0.172-0.037,0.229-0.11
			c0.104-0.124,0.088-0.311-0.04-0.417c-0.455-0.375-0.922-0.754-1.386-1.124c-0.125-0.103-0.312-0.081-0.415,0.046
			C201.786,53.778,201.805,53.964,201.935,54.067z M60.712,55.125c0.06,0.063,0.138,0.094,0.217,0.094
			c0.073,0,0.145-0.025,0.202-0.078c0.431-0.405,0.871-0.808,1.307-1.201c0.121-0.11,0.132-0.298,0.023-0.418
			c-0.108-0.122-0.297-0.134-0.419-0.023c-0.439,0.396-0.882,0.804-1.313,1.209C60.607,54.819,60.603,55.007,60.712,55.125z
			 M199.126,51.895c0.469,0.355,0.947,0.712,1.416,1.074c0.051,0.043,0.116,0.063,0.181,0.063c0.09,0,0.176-0.041,0.234-0.116
			c0.1-0.13,0.075-0.316-0.056-0.417c-0.471-0.364-0.946-0.724-1.421-1.078c-0.131-0.096-0.314-0.069-0.415,0.061
			C198.969,51.615,198.995,51.8,199.126,51.895z M63.348,52.735c0.061,0.067,0.139,0.103,0.222,0.103
			c0.071,0,0.142-0.023,0.195-0.071c0.444-0.386,0.897-0.775,1.351-1.151c0.126-0.104,0.145-0.292,0.038-0.415
			c-0.105-0.129-0.293-0.143-0.417-0.039c-0.456,0.379-0.911,0.77-1.358,1.158C63.253,52.425,63.24,52.613,63.348,52.735z
			 M196.248,49.826c0.479,0.335,0.971,0.679,1.448,1.023c0.052,0.036,0.113,0.057,0.172,0.057c0.093,0,0.186-0.042,0.241-0.122
			c0.097-0.134,0.066-0.319-0.065-0.416c-0.482-0.347-0.97-0.69-1.458-1.027c-0.136-0.093-0.318-0.063-0.415,0.071
			C196.079,49.548,196.113,49.733,196.248,49.826z M66.072,50.446c0.057,0.072,0.145,0.11,0.23,0.11
			c0.064,0,0.131-0.021,0.186-0.065c0.462-0.371,0.93-0.741,1.392-1.098c0.129-0.101,0.151-0.289,0.053-0.416
			c-0.098-0.129-0.287-0.155-0.417-0.054c-0.464,0.362-0.937,0.733-1.401,1.105C65.989,50.132,65.968,50.317,66.072,50.446z
			 M193.3,47.855c0.493,0.316,0.992,0.645,1.482,0.972c0.05,0.034,0.107,0.051,0.163,0.051c0.097,0,0.19-0.048,0.247-0.133
			c0.092-0.136,0.056-0.321-0.081-0.411c-0.49-0.33-0.994-0.658-1.488-0.979c-0.142-0.089-0.323-0.049-0.411,0.089
			C193.121,47.58,193.162,47.766,193.3,47.855z M68.876,48.26c0.06,0.075,0.146,0.12,0.239,0.12c0.063,0,0.122-0.02,0.177-0.059
			c0.473-0.354,0.955-0.706,1.434-1.044c0.133-0.095,0.164-0.282,0.07-0.414c-0.096-0.134-0.284-0.164-0.417-0.071
			c-0.48,0.343-0.966,0.698-1.44,1.051C68.808,47.941,68.781,48.129,68.876,48.26z M190.287,45.983
			c0.502,0.301,1.013,0.61,1.512,0.922c0.05,0.032,0.104,0.046,0.158,0.046c0.098,0,0.194-0.05,0.252-0.142
			c0.086-0.139,0.045-0.323-0.097-0.409c-0.502-0.312-1.017-0.623-1.521-0.929c-0.144-0.082-0.323-0.037-0.408,0.104
			C190.1,45.716,190.146,45.9,190.287,45.983z M71.766,46.183c0.055,0.083,0.149,0.128,0.246,0.128c0.058,0,0.116-0.018,0.166-0.054
			c0.488-0.333,0.983-0.664,1.473-0.987c0.137-0.092,0.176-0.274,0.084-0.413c-0.088-0.135-0.271-0.172-0.41-0.084
			c-0.494,0.326-0.992,0.661-1.481,0.996C71.709,45.863,71.673,46.046,71.766,46.183z M187.21,44.219
			c0.518,0.283,1.033,0.575,1.547,0.87c0.043,0.027,0.095,0.039,0.146,0.039c0.104,0,0.202-0.054,0.258-0.148
			c0.083-0.144,0.034-0.323-0.109-0.407c-0.512-0.293-1.035-0.587-1.557-0.873c-0.142-0.08-0.323-0.027-0.401,0.115
			C187.015,43.959,187.067,44.14,187.21,44.219z M74.73,44.219c0.059,0.087,0.154,0.137,0.252,0.137
			c0.054,0,0.107-0.015,0.157-0.046c0.493-0.312,1.001-0.626,1.509-0.929c0.142-0.083,0.187-0.269,0.102-0.408
			c-0.084-0.141-0.27-0.185-0.406-0.101c-0.512,0.307-1.023,0.623-1.522,0.937C74.684,43.896,74.644,44.079,74.73,44.219z
			 M184.073,42.558c0.525,0.269,1.054,0.542,1.577,0.819c0.042,0.021,0.089,0.033,0.14,0.033c0.103,0,0.208-0.056,0.26-0.16
			c0.078-0.143,0.021-0.323-0.123-0.398c-0.525-0.28-1.06-0.553-1.583-0.822c-0.149-0.072-0.325-0.015-0.401,0.131
			C183.871,42.307,183.926,42.486,184.073,42.558z M77.771,42.37c0.056,0.094,0.156,0.148,0.257,0.148
			c0.052,0,0.101-0.014,0.147-0.041c0.513-0.295,1.031-0.588,1.545-0.869c0.144-0.08,0.196-0.259,0.116-0.405
			c-0.08-0.143-0.26-0.195-0.403-0.116c-0.518,0.285-1.043,0.58-1.555,0.876C77.736,42.047,77.688,42.229,77.771,42.37z
			 M180.883,41.01c0.534,0.248,1.073,0.504,1.603,0.76c0.04,0.02,0.086,0.032,0.129,0.032c0.109,0,0.217-0.062,0.268-0.167
			c0.069-0.148,0.012-0.325-0.139-0.397c-0.532-0.262-1.073-0.518-1.608-0.766c-0.149-0.07-0.325-0.005-0.396,0.144
			C180.673,40.766,180.737,40.941,180.883,41.01z M80.88,40.644c0.053,0.101,0.157,0.158,0.263,0.158
			c0.045,0,0.095-0.01,0.138-0.036c0.521-0.273,1.052-0.545,1.577-0.808c0.146-0.074,0.204-0.25,0.131-0.397
			c-0.069-0.147-0.25-0.206-0.397-0.132c-0.529,0.263-1.058,0.538-1.583,0.815C80.86,40.318,80.805,40.497,80.88,40.644z
			 M177.645,39.568c0.539,0.231,1.086,0.468,1.625,0.709c0.04,0.017,0.08,0.025,0.119,0.025c0.116,0,0.222-0.066,0.271-0.174
			c0.065-0.152,0-0.328-0.147-0.392c-0.544-0.241-1.093-0.481-1.637-0.71c-0.151-0.064-0.323,0.006-0.391,0.156
			C177.421,39.332,177.491,39.506,177.645,39.568z M84.056,39.04c0.05,0.105,0.158,0.17,0.266,0.17c0.044,0,0.087-0.012,0.128-0.03
			c0.531-0.252,1.07-0.505,1.607-0.748c0.149-0.067,0.214-0.243,0.149-0.392c-0.068-0.148-0.242-0.216-0.396-0.147
			c-0.537,0.242-1.083,0.497-1.618,0.75C84.046,38.716,83.983,38.893,84.056,39.04z M174.354,38.238
			c0.55,0.211,1.104,0.431,1.65,0.651c0.036,0.016,0.074,0.023,0.112,0.023c0.115,0,0.229-0.069,0.273-0.187
			c0.062-0.151-0.01-0.323-0.163-0.385c-0.549-0.221-1.106-0.442-1.658-0.656c-0.153-0.057-0.322,0.018-0.383,0.17
			C174.127,38.008,174.203,38.18,174.354,38.238z M87.29,37.562c0.05,0.113,0.156,0.18,0.272,0.18c0.037,0,0.076-0.008,0.116-0.024
			c0.541-0.23,1.089-0.461,1.635-0.682c0.152-0.063,0.227-0.235,0.164-0.387s-0.234-0.225-0.388-0.163
			c-0.547,0.222-1.104,0.452-1.646,0.688C87.296,37.239,87.228,37.41,87.29,37.562z M171.026,37.019
			c0.555,0.195,1.116,0.392,1.669,0.596c0.032,0.013,0.068,0.018,0.104,0.018c0.118,0,0.231-0.076,0.274-0.197
			c0.059-0.151-0.021-0.319-0.173-0.378c-0.557-0.203-1.124-0.404-1.681-0.599c-0.154-0.054-0.325,0.028-0.378,0.182
			C170.788,36.796,170.871,36.962,171.026,37.019z M167.659,35.909c0.562,0.176,1.132,0.358,1.686,0.542
			c0.032,0.009,0.063,0.014,0.095,0.014c0.121,0,0.239-0.079,0.28-0.206c0.052-0.156-0.033-0.32-0.187-0.371
			c-0.562-0.186-1.133-0.37-1.7-0.545c-0.156-0.049-0.323,0.039-0.371,0.194C167.412,35.693,167.501,35.858,167.659,35.909z
			 M90.581,36.213c0.043,0.118,0.155,0.191,0.276,0.191c0.035,0,0.073-0.008,0.104-0.021c0.547-0.208,1.105-0.42,1.663-0.62
			c0.15-0.057,0.231-0.227,0.176-0.38c-0.058-0.154-0.226-0.234-0.376-0.177c-0.562,0.202-1.124,0.412-1.675,0.622
			C90.597,35.887,90.521,36.061,90.581,36.213z M164.253,34.906c0.568,0.157,1.144,0.322,1.706,0.488
			c0.029,0.007,0.057,0.014,0.084,0.014c0.126,0,0.246-0.085,0.284-0.216c0.046-0.159-0.043-0.322-0.201-0.368
			c-0.565-0.167-1.145-0.331-1.714-0.491c-0.157-0.042-0.322,0.049-0.366,0.209C164.003,34.701,164.096,34.86,164.253,34.906z
			 M93.92,34.991c0.043,0.124,0.156,0.201,0.282,0.201c0.031,0,0.062-0.006,0.095-0.017c0.555-0.187,1.122-0.375,1.684-0.554
			c0.158-0.05,0.242-0.215,0.191-0.373c-0.05-0.157-0.215-0.241-0.37-0.193c-0.569,0.182-1.138,0.369-1.696,0.558
			C93.951,34.669,93.868,34.837,93.92,34.991z M160.821,34.015c0.572,0.138,1.151,0.282,1.721,0.432
			c0.022,0.006,0.049,0.008,0.072,0.008c0.134,0,0.254-0.086,0.287-0.221c0.045-0.158-0.053-0.321-0.21-0.364
			c-0.569-0.148-1.153-0.296-1.729-0.435c-0.159-0.037-0.317,0.06-0.36,0.219C160.564,33.814,160.662,33.975,160.821,34.015z
			 M97.304,33.9c0.038,0.129,0.158,0.211,0.284,0.211c0.028,0,0.058-0.005,0.088-0.012c0.559-0.17,1.134-0.333,1.701-0.493
			c0.157-0.043,0.25-0.207,0.204-0.364c-0.043-0.157-0.206-0.25-0.363-0.206c-0.571,0.158-1.147,0.323-1.714,0.494
			C97.345,33.58,97.257,33.742,97.304,33.9z M157.361,33.224c0.272,0.058,0.541,0.118,0.812,0.177
			c0.308,0.066,0.615,0.136,0.922,0.205c0.02,0.005,0.043,0.007,0.066,0.007c0.133,0,0.257-0.093,0.289-0.23
			c0.037-0.16-0.064-0.32-0.227-0.356c-0.305-0.07-0.617-0.137-0.923-0.207c-0.275-0.058-0.545-0.118-0.817-0.176
			c-0.158-0.034-0.317,0.069-0.35,0.229C157.098,33.033,157.202,33.19,157.361,33.224z M100.729,32.934
			c0.033,0.137,0.154,0.223,0.285,0.223c0.025,0,0.052-0.002,0.073-0.01c0.57-0.148,1.149-0.29,1.723-0.425
			c0.159-0.04,0.26-0.199,0.219-0.36c-0.036-0.158-0.196-0.257-0.357-0.218c-0.579,0.137-1.159,0.282-1.731,0.431
			C100.782,32.615,100.688,32.777,100.729,32.934z M153.878,32.518c0.579,0.11,1.166,0.228,1.742,0.345
			c0.021,0.004,0.04,0.007,0.06,0.007c0.139,0,0.262-0.097,0.293-0.239c0.03-0.162-0.071-0.318-0.229-0.35
			c-0.585-0.118-1.175-0.234-1.752-0.345c-0.163-0.031-0.317,0.075-0.346,0.235C153.614,32.332,153.719,32.487,153.878,32.518z
			 M104.185,32.098c0.03,0.138,0.152,0.234,0.289,0.234c0.021,0,0.041-0.002,0.062-0.007c0.576-0.126,1.16-0.248,1.735-0.365
			c0.163-0.032,0.267-0.187,0.236-0.352c-0.033-0.158-0.189-0.262-0.35-0.229c-0.58,0.115-1.171,0.239-1.746,0.368
			C104.251,31.781,104.149,31.938,104.185,32.098z M150.383,31.889c0.582,0.097,1.17,0.202,1.752,0.305
			c0.017,0.002,0.035,0.004,0.051,0.004c0.142,0,0.267-0.101,0.292-0.244c0.03-0.16-0.078-0.313-0.239-0.347
			c-0.581-0.101-1.174-0.206-1.756-0.304c-0.161-0.027-0.312,0.081-0.343,0.244C150.114,31.709,150.222,31.861,150.383,31.889z
			 M107.668,31.387c0.025,0.145,0.15,0.241,0.292,0.241c0.017,0,0.037,0,0.053-0.002c0.581-0.107,1.166-0.209,1.749-0.303
			c0.158-0.028,0.269-0.178,0.242-0.341c-0.026-0.162-0.179-0.27-0.343-0.244c-0.58,0.096-1.173,0.2-1.754,0.303
			C107.748,31.069,107.64,31.225,107.668,31.387z M146.878,31.338c0.58,0.086,1.172,0.173,1.754,0.264
			c0.015,0.002,0.033,0.005,0.048,0.005c0.141,0,0.27-0.106,0.292-0.251c0.025-0.162-0.088-0.314-0.249-0.34
			c-0.583-0.09-1.176-0.182-1.761-0.265c-0.164-0.024-0.313,0.089-0.336,0.249C146.604,31.164,146.715,31.313,146.878,31.338z
			 M143.356,30.873c0.579,0.069,1.172,0.144,1.764,0.221c0.013,0.002,0.025,0.002,0.04,0.002c0.146,0,0.271-0.108,0.292-0.257
			c0.02-0.162-0.092-0.313-0.255-0.332c-0.592-0.079-1.187-0.153-1.769-0.225c-0.162-0.019-0.308,0.097-0.33,0.259
			C143.079,30.704,143.194,30.851,143.356,30.873z M111.174,30.8c0.021,0.146,0.151,0.254,0.292,0.254
			c0.018,0,0.032-0.003,0.046-0.003c0.579-0.085,1.17-0.167,1.756-0.244c0.163-0.019,0.277-0.171,0.255-0.333
			c-0.02-0.161-0.169-0.275-0.33-0.255c-0.59,0.076-1.186,0.16-1.769,0.244C111.261,30.487,111.151,30.636,111.174,30.8z
			 M139.56,30.17c-0.015,0.159,0.104,0.304,0.268,0.319c0.585,0.056,1.179,0.118,1.764,0.181c0.012,0,0.025,0.001,0.035,0.001
			c0.148,0,0.276-0.111,0.295-0.268c0.015-0.159-0.102-0.308-0.264-0.325c-0.589-0.063-1.187-0.123-1.774-0.176
			C139.719,29.884,139.574,30.004,139.56,30.17z M114.701,30.334c0.017,0.151,0.144,0.261,0.295,0.261c0.008,0,0.021,0,0.031,0
			c0.585-0.067,1.181-0.127,1.765-0.186c0.164-0.015,0.283-0.159,0.267-0.322c-0.015-0.165-0.159-0.283-0.321-0.266
			c-0.589,0.056-1.186,0.116-1.775,0.182C114.801,30.024,114.681,30.171,114.701,30.334z M136.015,29.884
			c-0.013,0.165,0.109,0.304,0.273,0.316c0.583,0.041,1.181,0.086,1.771,0.134h0.026c0.15,0,0.279-0.116,0.293-0.271
			c0.013-0.164-0.106-0.307-0.271-0.32c-0.593-0.05-1.189-0.094-1.779-0.134C136.164,29.598,136.024,29.721,136.015,29.884z
			 M118.243,29.985c0.011,0.155,0.141,0.271,0.295,0.271c0,0,0.013,0,0.021,0c0.584-0.047,1.179-0.086,1.771-0.126
			c0.161-0.011,0.285-0.153,0.274-0.314c-0.008-0.164-0.146-0.29-0.312-0.277c-0.596,0.036-1.194,0.08-1.779,0.127
			C118.349,29.68,118.228,29.822,118.243,29.985z M132.46,29.698c-0.005,0.164,0.119,0.303,0.283,0.309
			c0.584,0.023,1.181,0.053,1.773,0.084c0.005,0.001,0.008,0.001,0.018,0.001c0.155,0,0.284-0.122,0.293-0.28
			c0.011-0.164-0.116-0.303-0.28-0.312c-0.592-0.031-1.194-0.063-1.779-0.085C132.609,29.408,132.466,29.533,132.46,29.698z
			 M121.787,29.751c0.01,0.158,0.14,0.28,0.299,0.28h0.013c0.587-0.027,1.185-0.048,1.772-0.069
			c0.166-0.006,0.293-0.142,0.289-0.307c-0.008-0.162-0.146-0.29-0.308-0.288c-0.595,0.02-1.191,0.046-1.782,0.073
			C121.908,29.447,121.782,29.586,121.787,29.751z M128.903,29.61c-0.005,0.165,0.13,0.299,0.295,0.303
			c0.582,0.006,1.18,0.018,1.771,0.036h0.01c0.159,0,0.293-0.129,0.295-0.29c0.003-0.164-0.128-0.3-0.29-0.306
			c-0.592-0.016-1.193-0.028-1.78-0.034H129.2C129.038,29.319,128.907,29.45,128.903,29.61z M125.344,29.627
			c0.005,0.163,0.134,0.291,0.295,0.291h0.008c0.587-0.009,1.185-0.015,1.774-0.016c0.162,0,0.296-0.134,0.296-0.297
			c0-0.165-0.134-0.294-0.296-0.294h-0.003c-0.589,0-1.192,0.007-1.781,0.013C125.473,29.329,125.342,29.462,125.344,29.627z"/>
	</g>
	<g>
		<g>
			<rect x="99.307" y="131.401" fill="#31AEE4" width="38.797" height="12.165"/>
		</g>
	</g>
	<g>
		<g>
			<polygon fill="#34508C" points="165.217,125.893 165.217,141.976 151.971,141.976 146.662,134.279 49.93,134.279 49.93,125.893 
							"/>
		</g>
	</g>
	<g>
		<g>
			<path fill="#39549F" d="M166.046,74.974c0.03-0.539,0.483-0.953,1.022-0.932c5.234,0.216,30.092,1.355,35.204,3.813
				c3.911,1.881,8.197,8.91,11.222,13.641c2.167,3.389,6.951,10.922,7.92,14.771c0.818,3.261,1.312,10.028,1.258,13.39
				l-1.368,17.775h-22.531l-2.255-5.871c-1.472-3.83-5.15-6.357-9.253-6.357h-22.383V95.708L166.046,74.974z"/>
		</g>
	</g>
	<g>
		<g>
			<g>
				<path fill="#375A64" d="M204.944,79.821c3.102,2.959,6.206,8.001,8.551,11.674c2.004,3.14,6.257,9.83,7.645,13.858
					c0.027,0.073,0.046,0.146,0.07,0.22c-0.686-0.191-1.743-0.578-2.067-1.229c-0.493-0.985-1.126-4.361-8.957-17.111
					C207.801,83.349,205.478,81.075,204.944,79.821z"/>
			</g>
		</g>
	</g>
	<g>
		<g>
			<path fill="#C6C6CC" d="M177.615,78.507c5.76,0.327,18.247,1.171,22.236,2.538c5.2,1.782,11.033,15.538,11.309,16.139
				l3.935,10.062c0.094,0.282-0.118,0.578-0.418,0.578h-10.162c-0.385,0-0.766-0.07-1.126-0.205l-26.725-9.959
				c-1.21-0.447-2.014-1.604-2.014-2.892V81.308C174.651,79.695,176.005,78.414,177.615,78.507z"/>
		</g>
	</g>
	<g>
		<g>
			<path fill="#F0EFF8" d="M213.96,106.836c0,0-3.77-8.449-5.032-11.211c-1.915-4.182-6.38-12.743-9.394-13.646
				c-2.774-0.832-10.75-1.846-21.976-2.489c-0.035-0.002-0.071-0.002-0.105-0.002c-1.001,0-1.813,0.815-1.813,1.819v13.767
				c0,0.689,0.435,1.315,1.081,1.559l19.747,2.437c1.602,0.197,3.034,1.089,3.919,2.438l3.422,5.217
				c0.201,0.076,0.413,0.113,0.628,0.113h9.523V106.836z"/>
		</g>
	</g>
	<g>
		<g>
			<path fill="#F0EFF8" d="M197.183,99.223l6.72,7.477l-3.714-24.824l-0.929-0.321l1.829,18.388
				c0.038,0.405-0.365,0.707-0.741,0.554L197.183,99.223z"/>
		</g>
	</g>
	<g>
		<g>
			<path fill="#F4BB43" d="M223.11,121.381c0.025-0.323-0.084-0.584-0.249-0.603l-3.601-0.329c-0.3-0.029-0.57,0.528-0.607,1.194
				l-0.16,2.763c-0.028,0.443,0.105,0.816,0.305,0.852l3.669,0.634c0.166,0.026,0.323-0.218,0.348-0.544L223.11,121.381z"/>
		</g>
	</g>
	<g>
		<g>
			<rect x="197.183" y="134.282" fill="#34508C" width="25.931" height="10.399"/>
		</g>
	</g>
	<g>
		<g>
			<g>
				<g>
					<g>
						<g>
							<g>
								<g>
									<g>
										<circle fill="#34508C" cx="180.406" cy="141.36" r="14.188"/>
									</g>
								</g>
							</g>
						</g>
					</g>
				</g>
			</g>
		</g>
	</g>
	<g>
		<g>
			<g>
				<g>
					<g>
						<g>
							<g>
								<g>
									<path fill="#34508C" d="M194.59,141.118c0,0.014,0.003,0.025,0.003,0.037c0.113,7.836-6.146,14.279-13.982,14.391
										c-7.836,0.115-14.278-6.146-14.392-13.98c0-0.014,0.002-0.023,0.002-0.037L194.59,141.118z"/>
								</g>
							</g>
						</g>
					</g>
				</g>
			</g>
		</g>
	</g>
	<g>
		<g>
			<g>
				<g>
					<g>
						<g>
							<g>
								<g>
									<g>
										<circle fill="#C6C6CC" cx="180.406" cy="141.36" r="9.961"/>
									</g>
								</g>
							</g>
						</g>
					</g>
				</g>
			</g>
		</g>
	</g>
	<g>
		<g>
			<g>
				<g>
					<g>
						<g>
							<g>
								<g>
									<g>
										<path fill="#F0EFF8" d="M180.263,131.401c5.501-0.082,10.024,4.314,10.104,9.814l-19.921,0.287
											C170.368,136.002,174.76,131.48,180.263,131.401z"/>
									</g>
								</g>
							</g>
						</g>
					</g>
				</g>
			</g>
		</g>
	</g>
	<g>
		<g>
			<g>
				<g>
					<g>
						<g>
							<g>
								<g>
									<g>
										<circle fill="#34508C" cx="180.406" cy="141.36" r="6.066"/>
									</g>
								</g>
							</g>
						</g>
					</g>
				</g>
			</g>
		</g>
	</g>
	<g>
		<g>
			<path fill="#34508C" d="M196.001,144.768l2.361-0.172c-0.617-8.479-1.524-13.553-2.769-15.51
				c-2.395-3.756-4.77-4.437-7.406-4.887c-2.452-0.418-4.926-0.316-7.316-0.223l-0.587,0.025c-4.938,0.193-15.28,0.021-15.384,0.019
				l-0.04,2.368c0.104,0.001,10.513,0.176,15.517-0.02l0.589-0.023c2.27-0.094,4.617-0.188,6.822,0.189
				c2.354,0.404,3.919,0.86,5.808,3.826C194.167,131.254,195.24,134.323,196.001,144.768z"/>
		</g>
	</g>
	<g>
		<g>
			
				<linearGradient id="SVGID_1_" gradientUnits="userSpaceOnUse" x1="55.3865" y1="122.1538" x2="172.0002" y2="122.1538" gradientTransform="matrix(1 0 0 -1 -8.3599 209.1455)">
				<stop  offset="0.0012" style="stop-color:#31AEE4"/>
				<stop  offset="1" style="stop-color:#39549F"/>
			</linearGradient>
			<rect x="47.027" y="48.171" fill="url(#SVGID_1_)" width="116.613" height="77.642"/>
		</g>
	</g>
	<g>
		<g>
			<g>
				<path fill="#DFA643" d="M222.237,115.875c0.013,0,0.019-0.119,0.019-0.332s-0.006-0.521-0.021-0.899
					c-0.024-0.759-0.077-1.812-0.167-2.968c-0.093-1.156-0.203-2.202-0.297-2.957c-0.048-0.377-0.091-0.682-0.126-0.891
					c-0.032-0.211-0.057-0.328-0.065-0.324c-0.011,0-0.008,0.119,0.008,0.332c0.021,0.244,0.045,0.543,0.073,0.896
					c0.067,0.792,0.155,1.819,0.252,2.958c0.083,1.137,0.156,2.166,0.215,2.959c0.025,0.354,0.05,0.652,0.065,0.896
					C222.212,115.758,222.229,115.875,222.237,115.875z"/>
			</g>
		</g>
	</g>
	<g>
		<g>
			<g>
				<g>
					<g>
						<g>
							<g>
								<g>
									<g>
										<circle fill="#34508C" cx="75.599" cy="141.36" r="14.189"/>
									</g>
								</g>
							</g>
						</g>
					</g>
				</g>
			</g>
		</g>
	</g>
	<g>
		<g>
			<g>
				<g>
					<g>
						<g>
							<g>
								<g>
									<g>
										<path fill="#34508C" d="M89.781,141.118c0,0.014,0.006,0.025,0.006,0.037c0.11,7.836-6.148,14.279-13.984,14.391
											c-7.834,0.115-14.278-6.146-14.391-13.98c0-0.014,0.001-0.023,0.001-0.037L89.781,141.118z"/>
									</g>
								</g>
							</g>
						</g>
					</g>
				</g>
			</g>
		</g>
	</g>
	<g>
		<g>
			<g>
				<g>
					<g>
						<g>
							<g>
								<g>
									<g>
										<circle fill="#C6C6CC" cx="75.598" cy="141.36" r="9.961"/>
									</g>
								</g>
							</g>
						</g>
					</g>
				</g>
			</g>
		</g>
	</g>
	<g>
		<g>
			<g>
				<g>
					<g>
						<g>
							<g>
								<g>
									<g>
										<path fill="#F0EFF8" d="M75.455,131.401c5.501-0.082,10.023,4.314,10.104,9.814l-19.921,0.287
											C65.56,136.002,69.955,131.48,75.455,131.401z"/>
									</g>
								</g>
							</g>
						</g>
					</g>
				</g>
			</g>
		</g>
	</g>
	<g>
		<g>
			<g>
				<g>
					<g>
						<g>
							<g>
								<g>
									<g>
										<circle fill="#34508C" cx="75.598" cy="141.36" r="6.066"/>
									</g>
								</g>
							</g>
						</g>
					</g>
				</g>
			</g>
		</g>
	</g>
	<g>
		<g>
			<path fill="#31AEE4" d="M94.25,145.247c0,0,2.161-20.121-18.692-20.121c-19.243,0-18.814,17.312-18.634,19.987h3.019
				c0,0-1.537-17.06,15.615-17.06c17.15,0,15.656,17.408,15.656,17.408S92.48,145.391,94.25,145.247z"/>
		</g>
	</g>
</g>
</svg>
