<?xml version="1.0" encoding="utf-8"?>
<!-- Generator: Adobe Illustrator 16.0.0, SVG Export Plug-In . SVG Version: 6.00 Build 0)  -->
<!DOCTYPE svg PUBLIC "-//W3C//DTD SVG 1.1//EN" "http://www.w3.org/Graphics/SVG/1.1/DTD/svg11.dtd">
<svg version="1.1" id="Layer_1" xmlns="http://www.w3.org/2000/svg" xmlns:xlink="http://www.w3.org/1999/xlink" x="0px" y="0px"
	 width="113.606px" height="113.6px" viewBox="0 0 113.606 113.6" enable-background="new 0 0 113.606 113.6" xml:space="preserve">
<g>
	<path fill="#39549F" d="M21.958,71.716c-0.744,0-1.346-0.577-1.346-1.289V23.247c0-0.711,0.602-1.286,1.346-2.196H94.3
		c0.743,0.91,1.347,1.485,1.347,2.196v47.181c0,0.711-0.604,1.289-1.347,1.289H21.958z"/>
</g>
<g>
	<path fill="#F0EFF8" d="M22.685,24.804c0-0.711,0.604-1.289,1.347-1.289h68.192c0.745,0,1.348,0.578,1.348,1.289v41.31
		c0,0.708-0.604,1.284-1.348,1.284H24.032c-0.743,0-1.347-0.576-1.347-1.284V24.804z"/>
</g>
<g>
	<polygon fill="#39549F" points="106.214,85.961 60.455,84.536 60.455,84.392 58.129,84.462 55.802,84.392 55.802,84.536 
		10.043,85.961 9.756,86.548 10.835,91.671 11.98,92.549 55.802,92.549 60.455,92.549 104.277,92.549 105.423,91.671 
		106.502,86.548 	"/>
</g>
<path fill="#2B436D" d="M11.428,86.548c-0.96,0-1.578-0.263-1.385-0.586l10.198-16.838c0.119-0.198,0.821-0.36,1.717-0.612H94.3
	c0.895,0.252,1.596,0.415,1.717,0.612l10.197,16.838c0.194,0.324-0.423,0.586-1.383,0.586H11.428z"/>
<g>
	<path fill="#F0EFF8" d="M41.803,85.495c-0.301,0-0.512-0.077-0.472-0.173l2.341-5.302c0.03-0.067,0.26-0.12,0.551-0.205h24.578
		c0.288,0.084,0.52,0.137,0.548,0.205l2.339,5.302c0.042,0.097-0.169,0.173-0.468,0.173H41.803z"/>
</g>
<g>
	<path fill="#39549F" d="M80.575,55.632c0,3.13-2.538,5.667-5.667,5.667H39.098c-3.13,0-5.667-2.537-5.667-5.667V35.877
		c0-3.13,2.537-5.667,5.667-5.667h35.811c3.129,0,5.667,2.537,5.667,5.667V55.632z"/>
	<path fill="#31AEE4" d="M83.093,55.632c0,3.13-2.537,5.667-5.667,5.667H41.616c-3.129,0-5.667-2.537-5.667-5.667V35.877
		c0-3.13,2.537-5.667,5.667-5.667h35.811c3.129,0,5.667,2.537,5.667,5.667V55.632z"/>
	<path fill-rule="evenodd" clip-rule="evenodd" fill="#C6801B" d="M49.035,45.717c0-2.895-0.017-5.788,0.013-8.682
		c0.006-0.563,0.101-1.156,0.312-1.682c0.38-0.948,1.364-1.404,2.436-1.174c0.521,0.112,1.042,0.299,1.506,0.542
		c5.566,2.916,11.126,5.842,16.672,8.789c0.53,0.282,1.029,0.668,1.421,1.1c0.629,0.692,0.623,1.604,0.001,2.303
		c-0.356,0.401-0.808,0.769-1.295,1.028c-5.633,2.991-11.281,5.959-16.926,8.931c-0.213,0.112-0.438,0.211-0.667,0.294
		c-1.828,0.655-3.297-0.196-3.448-1.998c-0.024-0.286-0.024-0.575-0.025-0.863C49.034,51.444,49.034,48.58,49.035,45.717z"/>
	<path fill-rule="evenodd" clip-rule="evenodd" fill="#F4BB43" d="M50.883,45.717c0-2.895-0.015-5.788,0.013-8.682
		c0.005-0.563,0.092-1.156,0.286-1.682c0.349-0.948,1.253-1.404,2.238-1.174c0.478,0.112,0.958,0.299,1.384,0.542
		c5.115,2.916,10.224,5.842,15.32,8.789c0.487,0.282,0.945,0.668,1.306,1.1c0.578,0.692,0.572,1.604,0.001,2.303
		c-0.327,0.401-0.743,0.769-1.19,1.028c-5.176,2.991-10.366,5.959-15.553,8.931c-0.196,0.112-0.402,0.212-0.613,0.294
		c-1.68,0.655-3.03-0.196-3.168-1.998c-0.022-0.286-0.022-0.575-0.023-0.863C50.882,51.443,50.882,48.58,50.883,45.717z"/>
</g>
</svg>
