<?xml version="1.0" encoding="UTF-8" standalone="no"?>
<svg
   xmlns:dc="http://purl.org/dc/elements/1.1/"
   xmlns:cc="http://creativecommons.org/ns#"
   xmlns:rdf="http://www.w3.org/1999/02/22-rdf-syntax-ns#"
   xmlns:svg="http://www.w3.org/2000/svg"
   xmlns="http://www.w3.org/2000/svg"
   version="1.1"
   width="16.916mm"
   height="4.2517mm"
   viewBox="0 0 59.937674 15.064939"
   id="svg2">
  <defs
     id="defs45" />
  <metadata
     id="metadata7">
    <rdf:RDF>
      <cc:Work
         rdf:about="">
        <dc:format>image/svg+xml</dc:format>
        <dc:type
           rdf:resource="http://purl.org/dc/dcmitype/StillImage" />
        <dc:title></dc:title>
      </cc:Work>
    </rdf:RDF>
  </metadata>
  <flowRoot
     fill="#000000"
     font-family="sans-serif"
     font-size="40px"
     line-height="125%"
     transform="translate(-419.96 -451.01)"
     xml:space="preserve"
     style="word-spacing:0px;letter-spacing:0px"
     id="flowRoot4136"><flowRegion
       id="flowRegion4138"><rect
         height="147.14"
         x="238.57"
         width="391.43"
         y="418.08"
         id="rect4140" /></flowRegion><flowPara
       id="flowPara4142" /></flowRoot>  <g
     transform="matrix(.33907 0 0 .33907 -121.14 -154.41)"
     id="text4144">
    <g
       id="g9"
       fill="#3055a5">
      <path
         d="m419.15 484.42v-1.16c0-0.32-0.17797-0.48-0.53391-0.52l-2.3136-0.24c-0.40043-0.04-0.5784 0.12-0.5784 0.44v1.56c0 1.48-0.75636 2.16-2.4026 2.16h-3.0254c-1.6907 0-2.4471-0.68-2.4471-2.16v-5.12h10.767c0.35594 0 0.53391-0.16 0.53391-0.48v-6.96c0-3.4-2.0021-5-5.1166-5h-4.6272c-3.1144 0-5.1166 1.6-5.1166 5v12.48c0 3.4 2.0021 5 5.1166 5h4.6272c3.1144 0 5.1166-1.6 5.1166-5zm-11.301-12.56c0-1.48 0.75636-2.16 2.4471-2.16h3.0254c1.6462 0 2.4026 0.68 2.4026 2.16v4.8h-7.8751v-4.8z"
         id="path4233" />
      <path
         d="m427.67 472.46c0-1.88 0.97883-2.76 3.07-2.76h2.4471c1.4237 0 2.1356 0.6 2.1356 1.92v17.08c0 0.32 0.17797 0.48 0.53391 0.48h2.536c0.31145 0 0.48941-0.16 0.48941-0.48v-17.16c0-3.2-1.7797-4.6-4.6717-4.6h-2.4026c-2.4471 0-3.6484 0.96-4.2267 2.32h-0.22246v-1.6c0-0.32-0.17797-0.48-0.53391-0.48h-2.1801c-0.35594 0-0.53391 0.16-0.53391 0.48v21.04c0 0.32 0.17797 0.48 0.53391 0.48h2.4916c0.35593 0 0.5339-0.16 0.5339-0.48v-16.24z"
         id="path4235" />
      <path
         d="m445.8 467.62c-0.089-0.28-0.26696-0.44-0.62289-0.44h-2.714c-0.35594 0-0.48942 0.24-0.40043 0.52l6.0064 21c0.089 0.32 0.31144 0.48 0.71187 0.48h3.07c0.40042 0 0.66738-0.16 0.75636-0.48l5.9619-21c0.089-0.28-0.0445-0.52-0.40043-0.52h-2.5805c-0.35593 0-0.5339 0.16-0.62288 0.44l-4.4492 17.52h-0.26695l-4.4492-17.52z"
         id="path4237" />
      <path
         d="m462.05 488.7c0 0.32 0.17796 0.48 0.5339 0.48h2.4916c0.35594 0 0.53391-0.16 0.53391-0.48v-21.04c0-0.32-0.17797-0.48-0.53391-0.48h-2.4916c-0.35594 0-0.5339 0.16-0.5339 0.48z"
         id="path4239" />
      <path
         d="m481.94 488.7c0 0.32 0.17797 0.48 0.5339 0.48h2.1801c0.35594 0 0.5339-0.16 0.5339-0.48v-16.76c0-3.4-2.0021-5-5.1166-5h-4.3157c-3.1144 0-5.1166 1.6-5.1166 5v1.44c0 0.32 0.17797 0.48 0.53391 0.52l2.3136 0.24c0.35594 0.04 0.5784-0.12 0.5784-0.44v-1.84c0-1.48 0.75636-2.16 2.4026-2.16h2.714c1.6907 0 2.447 0.68 2.447 2.16v4.96h-6.3179c-3.1144 0-5.1166 1.6-5.1166 5v3c0 3.2 1.7797 4.6 4.6717 4.6h2.625c2.4471 0 3.6483-0.96 4.2267-2.32h0.22246v1.6zm-3.3814-2.04h-2.6695c-1.4238 0-2.1356-0.6-2.1356-1.92v-3.12c0-1.4 0.75637-2.08 2.3136-2.08h5.5615v4.36c0 1.88-0.97882 2.76-3.0699 2.76z"
         id="path4241" />
    </g>
    <path
       fill="#f9b730"
       d="m509.73 466.94h-1.6907c-2.4471 0-3.6483 0.96-4.2712 2.32h-0.22246c-0.62289-1.44-2.0911-2.32-4.0933-2.32h-1.4238c-2.4471 0-3.6483 0.96-4.2267 2.32h-0.22246v-1.6c0-0.32-0.17796-0.48-0.5339-0.48h-2.1801c-0.35593 0-0.5339 0.16-0.5339 0.48v21.04c0 0.32 0.17797 0.48 0.5339 0.48h2.4916c0.35594 0 0.53391-0.16 0.53391-0.48v-16.24c0-1.88 0.97882-2.76 3.07-2.76h1.4682c1.4238 0 2.1356 0.6 2.1356 1.92v17.08c0 0.32 0.17797 0.48 0.5339 0.48h2.536c0.31145 0 0.48942-0.16 0.48942-0.48v-16.24c0-1.88 1.0233-2.76 3.0699-2.76h1.4682c1.4682 0 2.1356 0.6 2.1356 1.92v17.08c0 0.32 0.17796 0.48 0.5339 0.48h2.536c0.35594 0 0.53391-0.16 0.53391-0.48v-17.16c0-3.2-1.7797-4.6-4.6717-4.6z"
       id="path4243" />
    <path
       fill="#f9b730"
       d="m534.03 484.42v-1.16c0-0.32-0.17797-0.48-0.53391-0.52l-2.3136-0.24c-0.40043-0.04-0.5784 0.12-0.5784 0.44v1.56c0 1.48-0.75636 2.16-2.4026 2.16h-3.0255c-1.6907 0-2.4471-0.68-2.4471-2.16v-5.12h10.767c0.35594 0 0.53391-0.16 0.53391-0.48v-6.96c0-3.4-2.0021-5-5.1166-5h-4.6272c-3.1144 0-5.1166 1.6-5.1166 5v12.48c0 3.4 2.0021 5 5.1166 5h4.6272c3.1144 0 5.1166-1.6 5.1166-5zm-11.301-12.56c0-1.48 0.75637-2.16 2.4471-2.16h3.0255c1.6462 0 2.4026 0.68 2.4026 2.16v4.8h-7.8751v-4.8z"
       id="path4245" />
  </g>
  <g
     transform="matrix(.82132 0 0 .82132 -278.4 -394.32)"
     id="g4202">
    <g
       transform="matrix(.10790 0 0 -.10790 344.78 484.5)"
       id="g236">
      <path
         fill="#497bbe"
         d="m48.275-27.868v-28.138l11.091 6.402v28.137"
         id="path4324" />
      <g
         fill="#f0f"
         id="g4338">
        <path
           fill="#62a0d6"
           d="m0 0 48.275-27.868 11.091 6.401-48.274 27.871z"
           id="path4326" />
      </g>
      <path
         fill="#62a0d6"
         d="m11.092 6.404-11.092-6.404"
         id="path238" />
    </g>
    <g
       transform="matrix(.10790 0 0 -.10790 349.99 492.96)"
       id="g240">
      <path
         fill="#3055a5"
         d="m-28.487-38.092-62.52 36.096v21.733l-11.091 6.403v-34.537l73.611-42.503"
         id="path4422" />
      <path
         fill="#497bbe"
         d="m-28.487-50.9 39.578 22.853v34.449l-11.091-6.402v-21.646l-28.487-16.446z"
         id="path242" />
    </g>
    <g
       transform="matrix(.10790 0 0 -.10790 352.13 489.82)"
       id="g244">
      <path
         fill="#3055a5"
         d="m-48.275-27.87-24.407 14.09v-12.806l24.407-14.092z"
         id="path4444" />
      <path
         fill="#497bbe"
         d="m-48.275-40.678 48.275 27.87v12.808l-48.275-27.87"
         id="path246" />
    </g>
    <g
       transform="matrix(.10790 0 0 -.10790 342.2 490.1)"
       id="g248">
      <path
         fill="#62a0d6"
         d="m-18.706 43.694 62.521 36.097 18.777-10.842 11.098 6.4-29.875 17.249-73.611-42.503"
         id="path4435" />
      <path
         fill="#3055a5"
         d="m-29.796 50.095v-45.698l29.796-17.202v12.805l-18.706 10.799v32.895z"
         id="path250" />
    </g>
    <g
       transform="matrix(.10790 0 0 -.10790 343.84 487.5)"
       id="g252">
      <path
         fill="#62a0d6"
         d="m24.343 14.038-11.095 6.405"
         id="path4311" />
      <g
         id="g4315">
        <path
           fill="#62a0d6"
           d="m13.248 20.443-24.339-14.036 11.091-6.407 24.343 14.038z"
           id="path4309" />
      </g>
      <path
         fill="#3055a5"
         d="m-11.091 6.407v-55.637l11.091-6.513v55.743"
         id="path254" />
    </g>
    <g
       transform="matrix(.10790 0 0 -.10790 350.6 482.23)"
       id="g256">
      <path
         fill="#62a0d6"
         d="m9.624-112.34v-12.808"
         id="path4397" />
      <path
         fill="#497bbe"
         d="m28.485-101.45v72.192l11.091 6.401v-84.994l-11.091 6.401-18.861-10.889v-12.808l29.952 17.296"
         id="path4393" />
      <path
         fill="#62a0d6"
         d="m39.576-22.853-39.576 22.853l-29.932-17.261 11.096-6.406 18.833 10.86 28.488-16.447"
         id="path258" />
    </g>
  </g>
  <path
     fill="#3055a5"
     d="m37.904 1.6759c0.0603-0.06781 0.0302-0.14919-0.0754-0.14919h-1.0258c-0.0754 0-0.15086 0.04069-0.18103 0.1085l-0.98058 1.5461c-0.0603 0.08138 0 0.16275 0.1056 0.16275h0.60343c0.13578 0 0.19612-0.05425 0.25646-0.12206z"
     id="path4239-7" />
</svg>
