<svg width="13" height="15.064939000000003" xmlns="http://www.w3.org/2000/svg" version="1.1">

 <metadata id="metadata7">image/svg+xml</metadata>
 <g>
  <title>Layer 1</title>
  <rect id="rect4140" y="418.08" width="391.43" x="238.57" height="147.14"/>
  <g id="g4202" transform="matrix(.82132 0 0 .82132 -278.4 -394.32)">
   <g id="g236" transform="matrix(.10790 0 0 -.10790 344.78 484.5)">
    <path id="path4324" d="m48.275,-27.868l0,-28.138l11.091,6.402l0,28.137" fill="#497bbe"/>
    <g id="g4338" fill="#f0f">
     <path id="path4326" d="m0,0l48.275,-27.868l11.091,6.401l-48.274,27.871l-11.092,-6.404z" fill="#62a0d6"/>
    </g>
    <path id="path238" d="m11.092,6.404l-11.092,-6.404" fill="#62a0d6"/>
   </g>
   <g id="g240" transform="matrix(.10790 0 0 -.10790 349.99 492.96)">
    <path id="path4422" d="m-28.487,-38.092l-62.52,36.096l0,21.733l-11.091,6.403l0,-34.537l73.611,-42.503" fill="#3055a5"/>
    <path id="path242" d="m-28.487,-50.9l39.578,22.853l0,34.449l-11.091,-6.402l0,-21.646l-28.487,-16.446l0,-12.808z" fill="#497bbe"/>
   </g>
   <g id="g244" transform="matrix(.10790 0 0 -.10790 352.13 489.82)">
    <path id="path4444" d="m-48.275,-27.87l-24.407,14.09l0,-12.806l24.407,-14.092l0,12.808z" fill="#3055a5"/>
    <path id="path246" d="m-48.275,-40.678l48.275,27.87l0,12.808l-48.275,-27.87" fill="#497bbe"/>
   </g>
   <g id="g248" transform="matrix(.10790 0 0 -.10790 342.2 490.1)">
    <path id="path4435" d="m-18.706,43.694l62.521,36.097l18.777,-10.842l11.098,6.4l-29.875,17.249l-73.611,-42.503" fill="#62a0d6"/>
    <path id="path250" d="m-29.796,50.095l0,-45.698l29.796,-17.202l0,12.805l-18.706,10.799l0,32.895l-11.09,6.401z" fill="#3055a5"/>
   </g>
   <g id="g252" transform="matrix(.10790 0 0 -.10790 343.84 487.5)">
    <path id="path4311" d="m24.343,14.038l-11.095,6.405" fill="#62a0d6"/>
    <g id="g4315">
     <path id="path4309" d="m13.248,20.443l-24.339,-14.036l11.091,-6.407l24.343,14.038l-11.095,6.405z" fill="#62a0d6"/>
    </g>
    <path id="path254" d="m-11.091,6.407l0,-55.637l11.091,-6.513l0,55.743" fill="#3055a5"/>
   </g>
   <g id="g256" transform="matrix(.10790 0 0 -.10790 350.6 482.23)">
    <path id="path4397" d="m9.624,-112.34l0,-12.808" fill="#62a0d6"/>
    <path id="path4393" d="m28.485,-101.45l0,72.192l11.091,6.401l0,-84.994l-11.091,6.401l-18.861,-10.889l0,-12.808l29.952,17.296" fill="#497bbe"/>
    <path id="path258" d="m39.576,-22.853l-39.576,22.853l-29.932,-17.261l11.096,-6.406l18.833,10.86l28.488,-16.447" fill="#62a0d6"/>
   </g>
  </g>
 </g>
</svg>