<svg xmlns="http://www.w3.org/2000/svg" width="71.5" height="82.5" version="1.1" style=""><rect id="backgroundrect" width="100%" height="100%" x="0" y="0" fill="none" stroke="none"/>

 <metadata id="metadata7">image/svg+xml</metadata>
 <g style="" class="currentLayer">
  <title>Layer 1</title>
  <rect id="rect4140" y="418.0799865722656" width="391.42999267578125" x="238.57000732421875" height="147.13999938964844"/>
  <g class="" id="svg_1">
   <g id="svg_3" stroke-width="0">
    <path id="path4324" d="m26.35537375360242,18.47991801751229 l0,7.117560319976972 l2.8054894274242876,-1.6193980086890538 l0,-7.117307368085581 " fill="#497bbe" stroke-width="0"/>
    <g id="g4338" fill="#f0f" stroke-width="0">
     <path id="path4326" d="m14.144121196672707,11.430654708211051 l12.211252556929717,7.049263309301238 l2.8054894274242876,-1.6191450567976626 l-12.210999605038324,-7.050022164975414 l-2.8057423793156793,1.619903912471837 z" fill="#62a0d6" stroke-width="0"/>
    </g>
    <path id="path238" d="m16.94986357598838,9.810750795739217 l-2.8057423793156793,1.619903912471837 " fill="#62a0d6" stroke-width="0"/>
   </g>
   <g id="svg_5" stroke-width="0">
    <path id="path4422" d="m19.152176441857552,40.899026803598304 l-15.814552249803125,-9.13055147167136 l0,-5.497403455613744 l-2.8054894274242876,-1.619650960580445 l0,8.736199472991851 l18.620041677227412,10.751214239817374 " fill="#3055a5" stroke-width="0"/>
    <path id="path242" d="m19.152176441857552,44.138834628541964 l10.01132995749693,-5.7807095739723415 l0,-8.71393970654939 l-2.8054894274242876,1.6193980086890538 l0,5.475396641062675 l-7.205840530072641,4.160046805826331 l0,3.2398078249436737 z" fill="#497bbe" stroke-width="0"/>
   </g>
   <g id="svg_7" stroke-width="0">
    <path id="path4444" d="m19.16360452230378,30.95219465533887 l-6.173796813194896,-3.5640921497077103 l0,3.2393019211608896 l6.173796813194896,3.564598053490493 l0,-3.2398078249436737 z" fill="#3055a5" stroke-width="0"/>
    <path id="path246" d="m19.16360452230378,34.19200248028254 l12.211252556929717,-7.049769213084023 l0,-3.2398078249436737 l-12.211252556929717,7.049769213084023 " fill="#497bbe" stroke-width="0"/>
   </g>
   <g id="svg_9" stroke-width="0">
    <path id="path4435" d="m3.3640631738515445,13.506354485792553 l15.814805201694515,-9.130804423562752 l4.749677664660164,2.742504406467778 l2.807260090664028,-1.6188921049062703 l-7.55693775532419,-4.363167174613789 l-18.620041677227412,10.751214239817374 " fill="#62a0d6" stroke-width="0"/>
    <path id="path250" d="m0.558826698318649,11.887209428994893 l0,11.559395532813548 l7.536954555904257,4.351278435718385 l0,-3.239048969269498 l-4.73171808037136,-2.731627475137938 l0,-8.320852467326834 l-2.8052364755328956,-1.6191450567976626 z" fill="#3055a5" stroke-width="0"/>
   </g>
   <g id="svg_11" stroke-width="0">
    <path id="path4311" d="m18.09807035009662,14.912669478308995 l-2.806501234989854,-1.6201568643632287 " fill="#62a0d6" stroke-width="0"/>
    <g id="g4315" stroke-width="0">
     <path id="path4309" d="m15.291569115106764,13.292512613945764 l-6.156596084580265,3.5504327475725628 l2.8054894274242876,1.6206627681460128 l6.1576078921458315,-3.5509386513553465 l-2.806501234989854,-1.6201568643632287 z" fill="#62a0d6" stroke-width="0"/>
    </g>
    <path id="path254" d="m9.134973030526501,16.842945361518325 l0,14.073484381354708 l2.8054894274242876,1.6474756686335226 l0,-14.10029728184222 " fill="#3055a5" stroke-width="0"/>
   </g>
   <g id="svg_13" stroke-width="0">
    <path id="path4397" d="m30.2224598370452,34.52566876491097 l0,3.2398078249436737 " fill="#62a0d6" stroke-width="0"/>
    <path id="path4393" d="m34.993385460582246,31.771022667656403 l0,-18.26110294334272 l2.8054894274242876,-1.6191450567976626 l0,21.499393056938054 l-2.8054894274242876,-1.6191450567976626 l-4.7709256235370585,2.754393145363183 l0,3.2398078249436737 l7.576415050961343,-4.375055913509196 " fill="#497bbe" stroke-width="0"/>
    <path id="path258" d="m37.798874888006544,11.889762859950448 l-10.010824053714146,-5.7807095739723415 l-7.571356013133511,4.3662025973104885 l2.8067541868812436,1.62040981625462 l4.76384297057809,-2.7470575405128272 l7.206093481964033,4.160299757717722 " fill="#62a0d6" stroke-width="0"/>
   </g>
  </g>
 </g>
</svg>