<svg xmlns="http://www.w3.org/2000/svg" width="71.5" height="82.5" version="1.1" style=""><rect id="backgroundrect" width="100%" height="100%" x="0" y="0" fill="none" stroke="none"/>

 <metadata id="metadata7">image/svg+xml</metadata>
 <g style="" class="currentLayer">
  <title>Layer 1</title>
  <rect id="rect4140" y="418.0799865722656" width="391.42999267578125" x="238.57000732421875" height="147.13999938964844"/>
  <g class="" id="svg_1">
   <g id="svg_3" stroke-width="0">
    <path id="path4324" d="m49.04282879863129,35.130307990685466 l0,13.302546001113884 l5.243391061850668,-3.026615235593543 l0,-13.302073240221102 " fill="#497bbe" stroke-width="0"/>
    <g id="g4338" fill="#f0f" stroke-width="0">
     <path id="path4326" d="m26.220296699556272,21.955407430622856 l22.822532099075016,13.174900560062607 l5.243391061850668,-3.0261424747007615 l-22.822059338182232,-13.176318842740956 l-5.24386382274345,3.027560757379108 z" fill="#62a0d6" stroke-width="0"/>
    </g>
    <path id="path238" d="m31.464160522299707,18.92784667324375 l-5.24386382274345,3.027560757379108 " fill="#62a0d6" stroke-width="0"/>
   </g>
   <g id="svg_5" stroke-width="0">
    <path id="path4422" d="m35.58022935628529,77.03107349510069 l-29.557011016761674,-17.064777185876984 l0,-10.274512482841994 l-5.243391061850668,-3.027087996486325 l0,16.327742954029077 l34.80040207861234,20.093756225934445 " fill="#3055a5" stroke-width="0"/>
    <path id="path242" d="m35.58022935628529,83.08619500985887 l18.710930614545642,-10.80400468275839 l0,-16.286139995464218 l-5.243391061850668,3.026615235593543 l0,10.233382285169917 l-13.467539552694973,7.775025642700937 l0,6.055121514758215 z" fill="#497bbe" stroke-width="0"/>
   </g>
   <g id="svg_7" stroke-width="0">
    <path id="path4444" d="m35.6015881588814,58.44068770712218 l-11.53867511014239,-6.661200979305375 l0,6.054175992972649 l11.53867511014239,6.662146501090939 l0,-6.055121514758215 z" fill="#3055a5" stroke-width="0"/>
    <path id="path246" d="m35.6015881588814,64.49580922188039 l22.822532099075016,-13.175846081848174 l0,-6.055121514758215 l-22.822532099075016,13.175846081848174 " fill="#497bbe" stroke-width="0"/>
   </g>
   <g id="svg_9" stroke-width="0">
    <path id="path4435" d="m6.072632149279698,25.834839502070224 l29.557483777654454,-17.065249946769768 l8.87703128377694,5.1256735995478255 l5.246700388100144,-3.025669713807978 l-14.123731671877081,-8.15465263960528 l-34.80040207861234,20.093756225934445 " fill="#62a0d6" stroke-width="0"/>
    <path id="path250" d="m0.8297138483218021,22.808697027369462 l0,21.604227278374516 l14.086383561347269,8.132432877644504 l0,-6.053703232079866 l-8.843465260389383,-5.105344881158176 l0,-15.551469568080215 l-5.242918300957885,-3.0261424747007615 z" fill="#3055a5" stroke-width="0"/>
   </g>
   <g id="svg_11" stroke-width="0">
    <path id="path4311" d="m33.61013087516001,28.463207796680834 l-5.245282105421798,-3.028033518271891 " fill="#62a0d6" stroke-width="0"/>
    <g id="g4315" stroke-width="0">
     <path id="path4309" d="m28.364848769738217,25.435174278408937 l-11.506527369433178,6.635671891095118 l5.243391061850668,3.0289790400574574 l11.508418413004307,-6.6366174128806845 l-5.245282105421798,-3.028033518271891 z" fill="#62a0d6" stroke-width="0"/>
    </g>
    <path id="path254" d="m16.858321400305044,32.07084616950405 l0,26.30299779173975 l5.243391061850668,3.0790916946924023 l0,-26.353110446374696 " fill="#3055a5" stroke-width="0"/>
   </g>
   <g id="svg_13" stroke-width="0">
    <path id="path4397" d="m56.27031802283659,65.11942333974497 l0,6.055121514758215 " fill="#62a0d6" stroke-width="0"/>
    <path id="path4393" d="m65.18706122160724,59.97105721734363 l0,-34.12955437175397 l5.243391061850668,-3.0261424747007615 l0,40.18183932115551 l-5.243391061850668,-3.0261424747007615 l-8.91674319877067,5.147893361508602 l0,6.055121514758215 l14.16013426062133,-8.17687240156606 " fill="#497bbe" stroke-width="0"/>
    <path id="path258" d="m70.43045228345792,22.813469327317748 l-18.709985092760075,-10.80400468275839 l-14.150679042765681,8.160325770318671 l5.245754866314576,3.0285062791646737 l8.903505893772753,-5.134183295617912 l13.468012313587755,7.775498403593717 " fill="#62a0d6" stroke-width="0"/>
   </g>
  </g>
 </g>
</svg>